<svg width="110" height="110" viewBox="0 0 110 110" fill="none" xmlns="http://www.w3.org/2000/svg">
<mask id="mask0" mask-type="alpha" maskUnits="userSpaceOnUse" x="0" y="0" width="110" height="110">
<circle cx="55" cy="55" r="55" fill="white"/>
</mask>
<g mask="url(#mask0)">
<path d="M88.9028 -16.2076C79.1365 -20.7121 67.9018 -23 55.5065 -23C43.0214 -23 31.7804 -20.7121 22.1039 -16.2009C20.5009 -15.4535 19.7954 -13.523 20.5327 -11.8914C21.2767 -10.2666 23.1683 -9.55145 24.7842 -10.2988C33.6205 -14.4133 43.9577 -16.4998 55.5065 -16.4998C66.9784 -16.4998 77.3155 -14.4133 86.2417 -10.2924C86.6713 -10.0911 87.1266 -9.99995 87.5691 -9.99995C88.7874 -9.99995 89.9546 -10.7083 90.4932 -11.9045C91.2242 -13.5361 90.5124 -15.4666 88.9028 -16.2076Z" fill="#531EDC"/>
<path d="M102.683 10.4683C89.6848 -2.92178 73.3651 -10.0003 55.4935 -10.0003C37.6925 -10.0003 21.3854 -2.92178 8.34235 10.4616C7.09823 11.7422 7.11115 13.8025 8.3679 15.0635C9.63127 16.3246 11.6575 16.3051 12.9016 15.0376C24.7201 2.909 39.4431 -3.50008 55.4935 -3.50008C71.6082 -3.50008 86.3504 2.909 98.1108 15.0312C98.7394 15.6747 99.5666 15.9998 100.394 15.9998C101.202 15.9998 102.016 15.6879 102.645 15.0639C103.908 13.8028 103.927 11.7489 102.683 10.4683Z" fill="#531EDC"/>
<path d="M55.4936 2.9998C50.9213 2.9998 46.3813 3.5717 41.9951 4.70269C40.2767 5.14479 39.2379 6.91258 39.6737 8.65478C40.1099 10.3967 41.8668 11.4369 43.5726 11.0012C47.4394 10.0067 51.4537 9.49967 55.4936 9.49967C82.0158 9.49967 103.587 31.3655 103.587 58.2495C103.587 60.0435 105.024 61.4996 106.794 61.4996C108.563 61.4996 110 60.0435 110 58.2495C110 27.7842 85.5491 2.9998 55.4936 2.9998Z" fill="#531EDC"/>
<path d="M32.5114 11.6319C31.6264 10.0914 29.6705 9.56487 28.1252 10.4683C24.0339 12.8927 20.2315 15.8892 16.8391 19.3733C6.85485 29.6044 1.23119 43.3908 1.00034 58.2041C0.974792 59.9981 2.38544 61.4737 4.1616 61.4996C4.17453 61.4996 4.19377 61.4996 4.213 61.4996C5.9573 61.4996 7.38719 60.0825 7.41274 58.3016C7.61804 45.1717 12.5813 32.9712 21.3984 23.9363C24.3995 20.8553 27.7531 18.2164 31.3634 16.0778C32.8895 15.1744 33.4026 13.1855 32.5114 11.6319Z" fill="#531EDC"/>
<path d="M86.9149 30.5142C78.9761 21.2907 67.5235 15.9998 55.4935 15.9998C44.3102 15.9998 33.8257 20.4458 25.9639 28.5124C18.1279 36.5333 13.8187 47.3819 13.8187 59.2184C13.838 66.2125 11.6834 74.5974 7.82294 82.6509L6.02092 85.901C5.15524 87.4674 5.7002 89.4436 7.24581 90.3275C7.74599 90.6136 8.28464 90.7501 8.81698 90.7501C9.93906 90.7501 11.0293 90.152 11.6127 89.0926L13.5043 85.6737C17.9353 76.4307 20.2567 67.2789 20.2311 59.0499C20.2311 49.0985 23.8799 39.8815 30.5169 33.0824C37.1731 26.2574 46.0352 22.5003 55.4935 22.5003C65.6701 22.5003 75.3658 26.9789 82.0797 34.7917C83.2402 36.1436 85.2731 36.2801 86.6068 35.1037C87.9408 33.9203 88.0755 31.8664 86.9149 30.5142Z" fill="#531EDC"/>
<path d="M103.139 95.7155L99.5219 83.7231C97.4891 74.3177 97.3159 65.341 97.2071 59.9722L97.175 58.2498C97.175 53.4333 96.3733 48.7012 94.7958 44.1839C94.2058 42.4938 92.3911 41.6099 90.7045 42.208C89.0372 42.8061 88.1652 44.6586 88.7552 46.3551C90.089 50.1707 90.7623 54.1746 90.7623 58.3345L90.8007 60.1026C90.9162 65.7054 91.0956 75.0849 93.3272 85.3614L96.9952 97.6073C97.4121 99.0113 98.6881 99.9083 100.067 99.9083C100.375 99.9083 100.689 99.8629 101.003 99.7718C102.696 99.245 103.652 97.4379 103.139 95.7155Z" fill="#531EDC"/>
<path d="M93.7828 110.73L90.801 101.052C85.5107 84.3081 84.5233 65.4843 84.3501 58.2498C84.3501 42.1233 71.4033 28.9999 55.4939 28.9999C39.5844 28.9999 26.6439 42.3247 26.6439 58.8153C26.6569 62.2342 26.0346 80.2978 12.4914 100.097C11.4782 101.572 11.8437 103.6 13.2931 104.621C14.7422 105.641 16.7495 105.277 17.7562 103.808C32.0304 82.9495 33.0756 64.0803 33.0563 58.7111C33.0563 45.9127 43.1239 35.5062 55.4936 35.5062C67.8696 35.5062 77.9374 45.711 77.9374 58.3342C78.1683 67.7721 79.3547 86.128 84.6898 103.022L87.6524 112.661C88.0819 114.052 89.3453 114.942 90.7174 114.942C91.0315 114.942 91.3523 114.897 91.673 114.8C93.3659 114.26 94.3085 112.44 93.7828 110.73Z" fill="#531EDC"/>
<path d="M71.525 58.2498C71.525 49.2929 64.3302 41.9999 55.4939 41.9999C46.6576 41.9999 39.4627 49.2929 39.4627 58.3735C39.5012 59.446 40.213 84.9778 19.8468 111.842C18.7695 113.266 19.0325 115.307 20.4368 116.399C21.8475 117.497 23.8548 117.218 24.9321 115.801C46.6897 87.0969 45.9073 59.2964 45.8688 58.2501C45.8688 52.8745 50.1843 48.5001 55.4876 48.5001C60.7908 48.5001 65.1063 52.8745 65.1126 58.3217C65.2025 61.9618 65.2217 94.7997 40.1871 127.767C39.1098 129.191 39.3662 131.232 40.7706 132.324C41.3606 132.779 42.0466 133 42.7265 133C43.6884 133 44.6373 132.565 45.2658 131.732C71.6916 96.944 71.6146 62.0392 71.525 58.2498Z" fill="#531EDC"/>
<path d="M58.6869 58.1066C58.6036 56.319 57.2185 54.8955 55.3459 55.0061C53.5824 55.0841 52.2102 56.5987 52.2808 58.3927C52.2808 58.4381 52.4603 63.1961 51.2675 70.7166C50.9919 72.4911 52.1846 74.1617 53.9286 74.4475C54.1018 74.4734 54.2749 74.4865 54.4417 74.4865C55.987 74.4865 57.3529 73.3491 57.603 71.7565C58.9114 63.5081 58.6998 58.3211 58.6869 58.1066Z" fill="#531EDC"/>
<path d="M52.3962 81.2271C50.6904 80.7137 48.9142 81.7015 48.4078 83.4175C44.4 97.139 37.7309 109.97 28.5994 121.566C27.4966 122.97 27.7208 125.011 29.1059 126.135C29.696 126.616 30.4012 126.843 31.1066 126.843C32.0493 126.843 32.979 126.428 33.6138 125.621C43.2647 113.375 50.312 99.7971 54.5635 85.2697C55.0639 83.5476 54.0957 81.7341 52.3962 81.2271Z" fill="#531EDC"/>
<path d="M83.4715 120.168L79.6048 107.721C78.0658 103.054 76.6293 98.1207 76.623 98.1012C76.2382 96.7816 75.084 95.8523 73.731 95.7743C72.3459 95.6768 71.121 96.4827 70.5953 97.7502C70.5247 97.9193 63.3813 114.943 55.1924 128.008C54.2435 129.522 54.6859 131.531 56.1798 132.493C56.7122 132.837 57.3085 133 57.8983 133C58.9627 133 59.9952 132.467 60.6045 131.492C65.5614 123.581 70.063 114.488 72.9997 108.163C73.1665 108.684 73.3397 109.21 73.5128 109.73L77.354 122.119C77.8863 123.828 79.6688 124.79 81.3746 124.244C83.0609 123.704 84.0036 121.884 83.4715 120.168Z" fill="#531EDC"/>
</g>
</svg>
