<svg width="176" height="174" viewBox="0 0 176 174" fill="none" xmlns="http://www.w3.org/2000/svg">
<path d="M170.225 79.2852C148.225 69.6852 132.058 35.9518 126.725 20.2852C112.225 -4.71483 74.725 -3.71483 56.225 7.78517C21.725 31.2852 -4.775 76.2852 0.725004 113.785C13.225 159.785 78.725 188.285 131.225 165.285C183.725 142.285 178.225 99.7852 170.225 79.2852Z" fill="#F5F3FD"/>
<circle cx="141" cy="30" r="4" fill="#FCE9AD"/>
<circle cx="25" cy="20" r="2" fill="#FFC8B5"/>
<circle cx="153.5" cy="114.5" r="2.5" fill="#A5E7DC"/>
<mask id="path-5-inside-1" fill="white">
<path fill-rule="evenodd" clip-rule="evenodd" d="M129.936 60.0867C129.936 62.5979 129.936 65.1091 130.056 67.7399C130.534 92.9716 131.132 127.291 89.2783 141.761L88.0825 142L86.8867 141.761C44.9745 127.312 45.6291 92.9519 46.1073 67.8493L46.1094 67.7399C46.229 65.1091 46.229 62.5979 46.229 60.0867C46.229 58.0538 47.7836 56.4993 49.8164 56.4993C64.7641 56.4993 76.1244 52.1943 85.5713 42.9865C87.0063 41.6712 89.1587 41.6712 90.5937 42.9865C100.041 52.1943 111.401 56.4993 126.349 56.4993C128.381 56.4993 129.936 58.0538 129.936 60.0867Z"/>
</mask>
<path fill-rule="evenodd" clip-rule="evenodd" d="M129.936 60.0867C129.936 62.5979 129.936 65.1091 130.056 67.7399C130.534 92.9716 131.132 127.291 89.2783 141.761L88.0825 142L86.8867 141.761C44.9745 127.312 45.6291 92.9519 46.1073 67.8493L46.1094 67.7399C46.229 65.1091 46.229 62.5979 46.229 60.0867C46.229 58.0538 47.7836 56.4993 49.8164 56.4993C64.7641 56.4993 76.1244 52.1943 85.5713 42.9865C87.0063 41.6712 89.1587 41.6712 90.5937 42.9865C100.041 52.1943 111.401 56.4993 126.349 56.4993C128.381 56.4993 129.936 58.0538 129.936 60.0867Z" fill="url(#paint0_linear)"/>
<path d="M130.056 67.7399L138.054 67.5883L138.052 67.4824L138.047 67.3766L130.056 67.7399ZM89.2783 141.761L90.8473 149.605L91.3794 149.499L91.8922 149.322L89.2783 141.761ZM88.0825 142L86.5135 149.845L88.0825 150.158L89.6514 149.845L88.0825 142ZM86.8867 141.761L84.2794 149.324L84.7891 149.5L85.3177 149.605L86.8867 141.761ZM46.1073 67.8493L54.1059 68.0016L54.1059 68.0016L46.1073 67.8493ZM46.1094 67.7399L38.1177 67.3766L38.1129 67.482L38.1109 67.5875L46.1094 67.7399ZM85.5713 42.9865L80.1655 37.0893L80.0752 37.1721L79.9874 37.2576L85.5713 42.9865ZM90.5937 42.9865L96.1776 37.2576L96.0898 37.1721L95.9995 37.0893L90.5937 42.9865ZM138.047 67.3766C137.937 64.9554 137.936 62.6217 137.936 60.0867H121.936C121.936 62.5741 121.935 65.2628 122.064 68.1032L138.047 67.3766ZM91.8922 149.322C115.034 141.321 127.171 127.4 133.042 111.568C138.676 96.3779 138.289 79.9593 138.054 67.5883L122.057 67.8915C122.301 80.7523 122.452 94.1094 118.041 106.005C113.867 117.257 105.376 127.731 86.6644 134.2L91.8922 149.322ZM89.6514 149.845L90.8473 149.605L87.7094 133.916L86.5136 134.155L89.6514 149.845ZM85.3177 149.605L86.5135 149.845L89.6515 134.155L88.4556 133.916L85.3177 149.605ZM38.1088 67.6969C37.8744 79.998 37.4725 96.3976 43.0991 111.58C48.9646 127.408 61.105 141.335 84.2794 149.324L89.4939 134.198C70.7562 127.738 62.2678 117.261 58.102 106.02C53.6975 94.1351 53.862 80.8031 54.1059 68.0016L38.1088 67.6969ZM38.1109 67.5875L38.1088 67.6969L54.1059 68.0016L54.108 67.8923L38.1109 67.5875ZM38.229 60.0867C38.229 62.6217 38.2277 64.9554 38.1177 67.3766L54.1012 68.1032C54.2303 65.2628 54.229 62.5741 54.229 60.0867H38.229ZM49.8164 48.4993C43.3653 48.4993 38.229 53.6355 38.229 60.0867H54.229C54.229 61.1627 53.7954 62.3094 52.9172 63.1875C52.0391 64.0656 50.8925 64.4993 49.8164 64.4993V48.4993ZM79.9874 37.2576C72.2322 44.8165 62.9714 48.4993 49.8164 48.4993V64.4993C66.5568 64.4993 80.0165 59.5721 91.1552 48.7155L79.9874 37.2576ZM95.9995 37.0893C91.506 32.9702 84.659 32.9702 80.1655 37.0893L90.9771 48.8838C89.3535 50.3721 86.8115 50.3721 85.1879 48.8838L95.9995 37.0893ZM126.349 48.4993C113.194 48.4993 103.933 44.8165 96.1776 37.2576L85.0098 48.7155C96.1485 59.5721 109.608 64.4993 126.349 64.4993V48.4993ZM137.936 60.0867C137.936 53.6356 132.8 48.4993 126.349 48.4993V64.4993C125.273 64.4993 124.126 64.0656 123.248 63.1875C122.37 62.3094 121.936 61.1627 121.936 60.0867H137.936Z" fill="white" mask="url(#path-5-inside-1)"/>
<path d="M95.4636 75.56C93.19 74.5255 90.5746 74 87.689 74C84.7824 74 82.1655 74.5255 79.9128 75.5615C79.5397 75.7332 79.3754 76.1765 79.5471 76.5513C79.7203 76.9245 80.1606 77.0887 80.5368 76.917C82.5939 75.9721 85.0004 75.4929 87.689 75.4929C90.3596 75.4929 92.7661 75.9721 94.8441 76.9185C94.9441 76.9648 95.0501 76.9857 95.1531 76.9857C95.4367 76.9857 95.7085 76.823 95.8339 76.5483C96.004 76.1735 95.8383 75.7302 95.4636 75.56Z" fill="white"/>
<path d="M98.672 81.6866C95.646 78.6113 91.8468 76.9856 87.6863 76.9856C83.5422 76.9856 79.7459 78.6113 76.7095 81.685C76.4199 81.9791 76.4229 82.4523 76.7155 82.7419C77.0096 83.0316 77.4813 83.0271 77.7709 82.736C80.5222 79.9504 83.9497 78.4785 87.6863 78.4785C91.4378 78.4785 94.8698 79.9504 97.6076 82.7345C97.7539 82.8823 97.9465 82.957 98.1391 82.957C98.3272 82.957 98.5167 82.8853 98.663 82.742C98.9571 82.4524 98.9616 81.9807 98.672 81.6866Z" fill="white"/>
<path d="M87.686 79.9713C86.6216 79.9713 85.5646 80.1026 84.5435 80.3624C84.1435 80.4639 83.9016 80.8699 84.0031 81.27C84.1046 81.6701 84.5137 81.909 84.9108 81.8089C85.8109 81.5805 86.7455 81.4641 87.686 81.4641C93.8603 81.4641 98.8822 86.4859 98.8822 92.6603C98.8822 93.0723 99.2166 93.4067 99.6286 93.4067C100.041 93.4067 100.375 93.0723 100.375 92.6603C100.375 85.6634 94.6829 79.9713 87.686 79.9713Z" fill="white"/>
<path d="M82.3358 81.9538C82.1298 81.6 81.6745 81.4791 81.3147 81.6865C80.3623 82.2434 79.4771 82.9316 78.6873 83.7317C76.363 86.0815 75.0538 89.2478 75.0001 92.6499C74.9941 93.0619 75.3225 93.4008 75.736 93.4067C75.739 93.4067 75.7435 93.4067 75.748 93.4067C76.1541 93.4067 76.4869 93.0813 76.4929 92.6723C76.5407 89.6568 77.6961 86.8547 79.7487 84.7797C80.4474 84.0721 81.2281 83.466 82.0686 82.9749C82.4239 82.7674 82.5433 82.3106 82.3358 81.9538Z" fill="white"/>
<path d="M95.0011 86.2904C93.1529 84.1721 90.4867 82.957 87.6862 82.957C85.0827 82.957 82.6419 83.9781 80.8117 85.8307C78.9875 87.6728 77.9843 90.1644 77.9843 92.8828C77.9888 94.4891 77.4872 96.4149 76.5885 98.2645L76.169 99.0109C75.9674 99.3707 76.0943 99.8246 76.4541 100.028C76.5706 100.093 76.696 100.125 76.8199 100.125C77.0811 100.125 77.3349 99.9872 77.4707 99.7439L77.9111 98.9587C78.9426 96.8359 79.483 94.7341 79.4771 92.8441C79.4771 90.5586 80.3265 88.4418 81.8716 86.8803C83.4212 85.3128 85.4843 84.4499 87.6862 84.4499C90.0553 84.4499 92.3124 85.4785 93.8754 87.2728C94.1456 87.5833 94.6188 87.6147 94.9293 87.3445C95.2399 87.0727 95.2712 86.601 95.0011 86.2904Z" fill="white"/>
<path d="M98.7776 101.265L97.9357 98.5107C97.4624 96.3506 97.4221 94.289 97.3968 93.0559L97.3893 92.6604C97.3893 91.5542 97.2027 90.4674 96.8354 89.4299C96.6981 89.0418 96.2756 88.8388 95.883 88.9761C95.4948 89.1135 95.2918 89.5389 95.4292 89.9286C95.7397 90.8049 95.8964 91.7244 95.8964 92.6798L95.9054 93.0859C95.9322 94.3727 95.974 96.5268 96.4935 98.887L97.3474 101.699C97.4445 102.022 97.7415 102.228 98.0625 102.228C98.1342 102.228 98.2073 102.218 98.2805 102.197C98.6746 102.076 98.8971 101.661 98.7776 101.265Z" fill="white"/>
<path d="M96.5998 104.713L95.9056 102.491C94.674 98.6451 94.4441 94.3219 94.4038 92.6604C94.4038 88.9567 91.3898 85.9427 87.6861 85.9427C83.9824 85.9427 80.9698 89.0029 80.9698 92.7903C80.9728 93.5755 80.828 97.7241 77.6751 102.271C77.4393 102.61 77.5243 103.076 77.8618 103.31C78.1991 103.545 78.6664 103.461 78.9008 103.124C82.2238 98.3331 82.4671 93.9994 82.4626 92.7663C82.4626 89.827 84.8064 87.4369 87.686 87.4369C90.5672 87.4369 92.9109 89.7806 92.9109 92.6798C92.9647 94.8473 93.2409 99.0631 94.4829 102.943L95.1726 105.157C95.2726 105.476 95.5667 105.681 95.8861 105.681C95.9593 105.681 96.0339 105.67 96.1086 105.648C96.5027 105.524 96.7221 105.106 96.5998 104.713Z" fill="white"/>
<path d="M91.4184 92.6604C91.4184 90.6033 89.7435 88.9283 87.6864 88.9283C85.6293 88.9283 83.9543 90.6033 83.9543 92.6888C83.9633 92.9351 84.129 98.7989 79.3877 104.969C79.1369 105.296 79.1982 105.764 79.5251 106.015C79.8535 106.268 80.3208 106.203 80.5716 105.878C85.6368 99.2856 85.4546 92.9007 85.4457 92.6604C85.4457 91.4259 86.4503 90.4212 87.6849 90.4212C88.9195 90.4212 89.9241 91.4259 89.9256 92.6769C89.9465 93.5129 89.951 101.055 84.123 108.626C83.8722 108.953 83.9319 109.422 84.2588 109.673C84.3961 109.777 84.5558 109.828 84.7141 109.828C84.938 109.828 85.159 109.728 85.3053 109.537C91.4572 101.547 91.4393 93.5307 91.4184 92.6604Z" fill="white"/>
<path d="M88.4298 92.6275C88.4104 92.2169 88.088 91.89 87.652 91.9154C87.2415 91.9333 86.922 92.2812 86.9385 92.6932C86.9385 92.7036 86.9802 93.7964 86.7026 95.5236C86.6384 95.9311 86.9161 96.3148 87.3221 96.3805C87.3624 96.3864 87.4027 96.3894 87.4415 96.3894C87.8013 96.3894 88.1192 96.1282 88.1775 95.7624C88.4821 93.868 88.4328 92.6768 88.4298 92.6275Z" fill="white"/>
<path d="M86.965 97.9375C86.5679 97.8196 86.1544 98.0465 86.0365 98.4406C85.1035 101.592 83.5509 104.539 81.4251 107.202C81.1684 107.524 81.2206 107.993 81.543 108.251C81.6804 108.362 81.8446 108.414 82.0088 108.414C82.2282 108.414 82.4447 108.319 82.5925 108.133C84.8392 105.321 86.4798 102.202 87.4695 98.8659C87.586 98.4704 87.3606 98.0539 86.965 97.9375Z" fill="white"/>
<path d="M94.1992 106.881L93.2991 104.022C92.9408 102.95 92.6064 101.817 92.6049 101.813C92.5153 101.51 92.2466 101.296 91.9317 101.279C91.6092 101.256 91.324 101.441 91.2017 101.732C91.1852 101.771 89.5222 105.681 87.6159 108.681C87.3949 109.029 87.498 109.491 87.8457 109.712C87.9697 109.791 88.1085 109.828 88.2458 109.828C88.4936 109.828 88.7339 109.706 88.8758 109.482C90.0298 107.665 91.0777 105.576 91.7614 104.124C91.8002 104.243 91.8405 104.364 91.8808 104.484L92.7751 107.329C92.899 107.722 93.314 107.943 93.7111 107.817C94.1036 107.693 94.3231 107.275 94.1992 106.881Z" fill="white"/>
<g filter="url(#filter0_d)">
<circle cx="134" cy="139" r="11" fill="#00CACE"/>
</g>
<path d="M139.5 135.75L132.625 142.625L129.5 139.5" stroke="white" stroke-width="2" stroke-linecap="round" stroke-linejoin="round"/>
<g filter="url(#filter1_d)">
<circle cx="47.5" cy="62.5" r="17.5" fill="#00CACE"/>
</g>
<path d="M55.3332 57.5L45.2498 67.5833L40.6665 63" stroke="white" stroke-width="2" stroke-linecap="round" stroke-linejoin="round"/>
<defs>
<filter id="filter0_d" x="113" y="118" width="42" height="42" filterUnits="userSpaceOnUse" color-interpolation-filters="sRGB">
<feFlood flood-opacity="0" result="BackgroundImageFix"/>
<feColorMatrix in="SourceAlpha" type="matrix" values="0 0 0 0 0 0 0 0 0 0 0 0 0 0 0 0 0 0 127 0"/>
<feOffset/>
<feGaussianBlur stdDeviation="5"/>
<feColorMatrix type="matrix" values="0 0 0 0 0.12549 0 0 0 0 0.12549 0 0 0 0 0.137255 0 0 0 0.1 0"/>
<feBlend mode="normal" in2="BackgroundImageFix" result="effect1_dropShadow"/>
<feBlend mode="normal" in="SourceGraphic" in2="effect1_dropShadow" result="shape"/>
</filter>
<filter id="filter1_d" x="15" y="30" width="65" height="65" filterUnits="userSpaceOnUse" color-interpolation-filters="sRGB">
<feFlood flood-opacity="0" result="BackgroundImageFix"/>
<feColorMatrix in="SourceAlpha" type="matrix" values="0 0 0 0 0 0 0 0 0 0 0 0 0 0 0 0 0 0 127 0"/>
<feOffset/>
<feGaussianBlur stdDeviation="7.5"/>
<feColorMatrix type="matrix" values="0 0 0 0 0.12549 0 0 0 0 0.12549 0 0 0 0 0.137255 0 0 0 0.1 0"/>
<feBlend mode="normal" in2="BackgroundImageFix" result="effect1_dropShadow"/>
<feBlend mode="normal" in="SourceGraphic" in2="effect1_dropShadow" result="shape"/>
</filter>
<linearGradient id="paint0_linear" x1="88.0806" y1="42" x2="88.0806" y2="142" gradientUnits="userSpaceOnUse">
<stop stop-color="#C8B3FD"/>
<stop offset="1" stop-color="#8F6BEA"/>
</linearGradient>
</defs>
</svg>
