<svg width="375" height="393" viewBox="0 0 375 393" fill="none" xmlns="http://www.w3.org/2000/svg">
<g filter="url(#filter0_d)">
<path d="M106.285 68.0696C88.2373 103.606 81.72 108.11 59.6613 116.119C24.2838 127.762 5.20452 142.541 -0.498667 149.059V335.843C63.672 391.4 118.317 394.904 189.005 370.879C249.566 342.05 338.236 345.186 375 350.358V0C366.812 2.66939 345.822 10.811 327.373 22.0225C265.208 62.0634 230.616 48.0491 206.552 39.5404C151.907 14.0143 124.333 32.5332 106.285 68.0696Z" fill="#531EDC"/>
<path d="M133.736 241.917C131.744 243 129.522 243.592 127.255 243.643C124.59 243.801 121.922 243.398 119.423 242.459C114.984 240.784 111.269 238.237 110.147 233.434C109.263 229.648 110.667 225.382 109.013 221.758C107.45 218.336 102.4 215.978 99.0129 214.902C96.6334 214.146 94.1345 213.784 91.7996 212.901C90.6057 212.527 89.5 211.915 88.5497 211.101C87.5993 210.288 86.824 209.29 86.2708 208.168C84.0258 202.662 90.1381 196.421 88.1324 190.824C87.1375 188.047 84.4254 186.333 81.9317 184.758C79.438 183.183 76.7943 181.274 76.1096 178.406C75.8904 177.08 76.0014 175.72 76.4328 174.448C76.8642 173.175 77.6026 172.028 78.5828 171.108C83.0327 166.504 90.5205 166.058 96.5022 168.345C98.3473 169.179 100.237 169.912 102.161 170.54C109.696 172.511 117.714 167.566 125.294 169.354C127.729 169.965 129.949 171.232 131.713 173.018C133.477 174.804 134.716 177.04 135.296 179.483C135.663 181.132 135.716 182.84 136.099 184.486C137.06 188.619 141.423 189.496 142.465 193.73C143.407 197.56 142.211 201.595 141.552 205.37C140.539 211.173 139.401 216.955 138.197 222.721C137.543 225.854 136.873 228.983 136.185 232.109C135.549 234.983 136.387 238.141 135.102 240.783C134.67 241.189 134.214 241.568 133.736 241.917Z" fill="#E6344A"/>
<path d="M135.854 221.447C135.888 221.447 135.922 221.445 135.955 221.44C136.125 221.413 136.278 221.32 136.38 221.181C136.482 221.042 136.524 220.868 136.498 220.698C133.244 199.589 103.594 174.631 84.6566 172.105C84.5713 172.092 84.4842 172.096 84.4006 172.117C84.3169 172.139 84.2384 172.176 84.1694 172.228C84.1004 172.28 84.0424 172.345 83.9988 172.419C83.9552 172.494 83.9269 172.576 83.9155 172.662C83.904 172.747 83.9096 172.834 83.9321 172.917C83.9546 173.001 83.9934 173.079 84.0463 173.147C84.0992 173.215 84.1651 173.272 84.2402 173.314C84.3153 173.357 84.3981 173.384 84.4838 173.394C103.017 175.866 132.032 200.264 135.213 220.896C135.237 221.049 135.314 221.189 135.432 221.29C135.549 221.391 135.699 221.447 135.854 221.447Z" fill="#F5F5F5"/>
<path d="M118.912 193.228C119.074 193.227 119.23 193.166 119.349 193.057C119.469 192.948 119.543 192.798 119.558 192.637C120.741 179.754 125.422 174.754 125.469 174.705C125.589 174.582 125.655 174.415 125.652 174.243C125.65 174.07 125.579 173.906 125.455 173.786C125.331 173.666 125.165 173.6 124.992 173.602C124.82 173.605 124.655 173.676 124.535 173.8C124.329 174.011 119.494 179.12 118.263 192.517C118.247 192.689 118.3 192.86 118.411 192.993C118.521 193.126 118.679 193.209 118.851 193.225C118.871 193.227 118.892 193.228 118.912 193.228Z" fill="#F5F5F5"/>
<path d="M98.2959 203.975C98.3832 203.975 98.4697 203.958 98.55 203.923C98.6947 203.862 113.226 197.781 125.408 201.089C125.491 201.111 125.577 201.117 125.661 201.106C125.746 201.095 125.828 201.068 125.902 201.025C125.976 200.983 126.041 200.926 126.093 200.859C126.145 200.791 126.183 200.714 126.206 200.631C126.228 200.549 126.234 200.463 126.223 200.378C126.212 200.294 126.185 200.212 126.142 200.138C126.1 200.064 126.043 199.999 125.976 199.947C125.908 199.895 125.831 199.856 125.749 199.834C113.128 196.405 98.6515 202.468 98.0406 202.727C97.9028 202.786 97.7896 202.89 97.7201 203.023C97.6506 203.156 97.629 203.308 97.6591 203.455C97.6891 203.602 97.7688 203.734 97.8848 203.829C98.0009 203.923 98.1461 203.975 98.2959 203.975Z" fill="#F5F5F5"/>
<path d="M105.232 279.809C104.701 273.409 103.224 267.123 100.849 261.156C96.9557 251.549 90.2031 243.756 81.5817 241.931C72.9602 240.106 69.6744 244.614 70.399 249.713C71.1235 254.812 78.3724 258.692 83.2366 262.973C88.1007 267.254 97.1831 277.601 99.7081 287.6L104.571 288.131L105.232 279.809Z" fill="#5351FD"/>
<path d="M102.77 288.16C102.761 288.16 102.753 288.16 102.746 288.16C102.65 288.153 102.561 288.109 102.498 288.037C102.435 287.966 102.402 287.871 102.409 287.776C103.507 270.638 92.3426 251.685 76.9901 244.627C76.9035 244.587 76.8364 244.514 76.8034 244.424C76.7705 244.334 76.7744 244.235 76.8143 244.149C76.8542 244.062 76.9269 243.995 77.0164 243.961C77.1059 243.928 77.2049 243.932 77.2918 243.971C92.8968 251.145 104.246 270.407 103.129 287.823C103.123 287.914 103.083 288 103.016 288.062C102.949 288.125 102.861 288.16 102.77 288.16Z" fill="#F5F5F5"/>
<path d="M104.905 318.346C104.905 318.346 99.8782 321.523 92.0255 320.171C84.1727 318.819 82.5004 313.481 81.8303 308.193C81.1601 302.905 77.3012 305.319 72.0433 303.141C66.7854 300.963 65.9127 295.562 67.0838 291.5C67.5885 289.738 68.4906 288.114 69.7209 286.755C69.7209 286.755 66.0054 285.125 62.6433 279.49C61.2149 276.953 59.9964 274.304 59 271.569C59 271.569 63.2749 268.305 71.7162 270.075C74.5384 270.709 77.2027 271.909 79.5482 273.602C79.5482 273.602 84.1804 268.397 90.4441 270.313C91.4981 270.646 92.4605 271.219 93.2559 271.986C94.0513 272.754 94.6579 273.696 95.0283 274.737C95.3139 275.613 95.6571 276.47 96.0557 277.301C96.4243 277.817 96.902 278.246 97.4549 278.558C98.0079 278.869 98.6226 279.055 99.2554 279.102C102.24 279.53 105.004 279.03 107.781 280.556C109.111 281.408 110.184 282.607 110.882 284.025C114.964 291.227 104.905 318.346 104.905 318.346Z" fill="#5351FD"/>
<path d="M108.353 308.119C108.291 308.119 108.23 308.103 108.176 308.073C108.123 308.043 108.077 307.999 108.045 307.947C95.7857 288.038 76.3581 276.53 63.4472 272.724C63.3554 272.697 63.2781 272.635 63.2324 272.551C63.1866 272.467 63.1761 272.368 63.2033 272.276C63.2304 272.184 63.2928 272.107 63.3769 272.061C63.461 272.016 63.5598 272.005 63.6516 272.032C76.6853 275.873 96.2934 287.485 108.66 307.569C108.685 307.609 108.701 307.654 108.709 307.701C108.716 307.748 108.715 307.795 108.704 307.842C108.693 307.888 108.673 307.931 108.645 307.969C108.617 308.008 108.582 308.04 108.542 308.065C108.485 308.101 108.419 308.119 108.353 308.119Z" fill="#F5F5F5"/>
<path d="M75.9237 292.477C75.8504 292.477 75.7787 292.455 75.7184 292.413C75.658 292.372 75.6118 292.313 75.5859 292.244C75.5599 292.175 75.5555 292.101 75.5731 292.029C75.5908 291.958 75.6297 291.894 75.6847 291.845C75.9308 291.628 81.7975 286.532 89.7709 286.398C89.8188 286.396 89.8667 286.403 89.9116 286.42C89.9566 286.436 89.9976 286.462 90.0321 286.495C90.0666 286.529 90.0938 286.569 90.1121 286.613C90.1303 286.657 90.1392 286.705 90.1382 286.753C90.1399 286.849 90.1034 286.941 90.0369 287.01C89.9704 287.079 89.8793 287.119 89.7836 287.12C82.0732 287.249 76.2205 292.336 76.1627 292.387C76.0968 292.445 76.0117 292.477 75.9237 292.477Z" fill="#F5F5F5"/>
<path d="M85.1787 283.639C85.09 283.639 85.0045 283.607 84.9384 283.547C84.8723 283.488 84.8304 283.407 84.8205 283.319C84.5344 280.119 85.087 276.901 86.4238 273.98C86.4664 273.894 86.5413 273.829 86.632 273.798C86.7228 273.768 86.822 273.774 86.9078 273.817C86.9936 273.86 87.059 273.934 87.0896 274.025C87.1202 274.116 87.1135 274.215 87.071 274.301C85.8094 277.102 85.2819 280.177 85.5383 283.238C85.5488 283.333 85.5211 283.429 85.4614 283.504C85.4017 283.578 85.3147 283.626 85.2196 283.637C85.206 283.639 85.1924 283.639 85.1787 283.639Z" fill="#F5F5F5"/>
<path d="M269.907 120.296L275.896 123.748V134.12L269.907 130.663V120.296Z" fill="#263238"/>
<path d="M265.319 95.2864L245.958 106.464V84.1084C245.978 83.5637 245.849 83.0239 245.585 82.547C245.322 82.0701 244.933 81.6741 244.461 81.4016C243.989 81.1291 243.451 80.9905 242.907 81.0005C242.362 81.0106 241.83 81.169 241.368 81.4587L145.598 136.752C141.897 138.889 140.046 141.689 140.046 144.49V237.827C140.046 240.628 141.897 243.429 145.598 245.566L145.735 245.645C153.137 249.919 165.139 249.919 172.542 245.645L268.312 190.352C268.776 190.048 269.162 189.64 269.439 189.16C269.716 188.68 269.877 188.141 269.908 187.588V96.0936L268.411 95.2294C267.927 94.9954 267.395 94.8786 266.858 94.8885C266.321 94.8984 265.793 95.0347 265.319 95.2864Z" fill="#00CE99"/>
<path d="M245.958 101.534L245.958 90.655C245.934 90.2121 245.806 89.781 245.584 89.3969C245.362 89.0127 245.053 88.6862 244.681 88.444L244.24 88.1895C243.845 87.9888 243.407 87.8842 242.964 87.8842C242.52 87.8842 242.083 87.9888 241.687 88.1895L141.175 146.22L156.144 154.862L244.682 103.745C245.053 103.503 245.362 103.177 245.584 102.793C245.806 102.408 245.934 101.977 245.958 101.534Z" fill="#E0E0E0"/>
<path d="M241.687 88.1895L141.175 146.22L144.169 147.949L244.681 89.918C244.835 89.8659 244.969 89.7667 245.064 89.6345C245.159 89.5023 245.21 89.3437 245.21 89.181C245.21 89.0183 245.159 88.8597 245.064 88.7275C244.969 88.5952 244.835 88.4961 244.681 88.444L244.24 88.1895C243.845 87.9888 243.407 87.8842 242.964 87.8842C242.52 87.8842 242.083 87.9888 241.687 88.1895Z" fill="#EBEBEB"/>
<path d="M247.675 91.6458L147.163 149.677L150.158 151.405L250.669 93.3744C250.824 93.3223 250.958 93.2231 251.052 93.0909C251.147 92.9587 251.198 92.8001 251.198 92.6374C251.198 92.4747 251.147 92.3161 251.052 92.1838C250.958 92.0516 250.824 91.9525 250.669 91.9004L250.229 91.6458C249.833 91.4451 249.396 91.3405 248.952 91.3405C248.508 91.3405 248.071 91.4451 247.675 91.6458Z" fill="#EBEBEB"/>
<path d="M253.662 95.1005L153.149 153.132L156.144 154.86L256.656 96.8291C256.81 96.777 256.944 96.6778 257.039 96.5456C257.134 96.4134 257.185 96.2548 257.185 96.0921C257.185 95.9294 257.134 95.7708 257.039 95.6386C256.944 95.5064 256.81 95.4072 256.656 95.3551L256.215 95.1005C255.819 94.8999 255.382 94.7953 254.938 94.7953C254.495 94.7953 254.057 94.8999 253.662 95.1005Z" fill="#EBEBEB"/>
<path d="M145.598 152.23C138.226 147.974 138.226 141.009 145.598 136.753L241.369 81.4597C241.844 81.208 242.371 81.0717 242.908 81.0618C243.446 81.0519 243.978 81.1686 244.461 81.4026C245.288 81.8799 245.244 82.6794 244.363 83.1881L151.266 136.937C150.385 137.446 148.946 138.258 148.133 138.869C143.812 142.114 143.42 146.441 147.143 149.5C148.121 150.243 149.185 150.866 150.312 151.355C155.653 153.585 163.302 153.361 168.987 150.796C169.915 150.378 171.341 149.546 172.223 149.037L265.319 95.2875C265.794 95.0358 266.321 94.8994 266.859 94.8895C267.396 94.8796 267.928 94.9963 268.412 95.2303C269.238 95.7076 269.194 96.5071 268.313 97.0159L172.543 152.309C165.17 156.565 153.107 156.565 145.735 152.309L145.598 152.23Z" fill="#27DEBF"/>
<path opacity="0.3" d="M145.598 152.23C138.226 147.974 138.226 141.009 145.598 136.753L241.369 81.4597C241.844 81.208 242.371 81.0717 242.908 81.0618C243.446 81.0519 243.978 81.1686 244.461 81.4026C245.288 81.8799 245.244 82.6794 244.363 83.1881L151.266 136.937C150.385 137.446 148.946 138.258 148.133 138.869C143.812 142.114 143.42 146.441 147.143 149.5C148.121 150.243 149.185 150.866 150.312 151.355C155.653 153.585 163.302 153.361 168.987 150.796C169.915 150.378 171.341 149.546 172.223 149.037L265.319 95.2875C265.794 95.0358 266.321 94.8994 266.859 94.8895C267.396 94.8796 267.928 94.9963 268.412 95.2303C269.238 95.7076 269.194 96.5071 268.313 97.0159L172.543 152.309C165.17 156.565 153.107 156.565 145.735 152.309L145.598 152.23Z" fill="black"/>
<path d="M143.199 157.799C143.112 157.799 143.027 157.768 142.962 157.711C142.492 157.305 142.055 156.862 141.655 156.388C141.594 156.314 141.564 156.219 141.573 156.124C141.581 156.029 141.627 155.941 141.701 155.88C141.774 155.819 141.869 155.789 141.964 155.797C142.059 155.805 142.147 155.851 142.209 155.924C142.584 156.37 142.994 156.785 143.436 157.166C143.491 157.214 143.53 157.278 143.548 157.35C143.566 157.421 143.562 157.496 143.537 157.565C143.511 157.634 143.465 157.693 143.404 157.735C143.344 157.777 143.272 157.799 143.199 157.799Z" fill="#F5F5F5"/>
<path d="M160.304 162.755C160.209 162.755 160.119 162.717 160.051 162.651C159.984 162.585 159.945 162.495 159.943 162.4C159.941 162.305 159.977 162.214 160.042 162.145C160.107 162.077 160.197 162.036 160.291 162.033C161.491 161.991 162.686 161.881 163.873 161.704C163.968 161.69 164.064 161.714 164.141 161.771C164.218 161.828 164.27 161.913 164.284 162.008C164.298 162.102 164.274 162.199 164.217 162.276C164.16 162.353 164.075 162.404 163.98 162.418C162.766 162.6 161.543 162.712 160.317 162.754L160.304 162.755ZM156.667 162.682L156.639 162.681C155.415 162.589 154.197 162.426 152.992 162.193C152.945 162.184 152.901 162.166 152.861 162.14C152.821 162.114 152.787 162.08 152.761 162.04C152.734 162.001 152.715 161.957 152.706 161.91C152.696 161.864 152.696 161.816 152.705 161.769C152.714 161.722 152.732 161.678 152.759 161.638C152.785 161.599 152.819 161.565 152.858 161.538C152.898 161.512 152.942 161.493 152.989 161.484C153.036 161.475 153.084 161.475 153.13 161.484C154.308 161.712 155.498 161.871 156.694 161.961C156.787 161.968 156.873 162.011 156.935 162.08C156.997 162.15 157.03 162.241 157.026 162.334C157.023 162.427 156.984 162.515 156.917 162.58C156.85 162.645 156.76 162.681 156.667 162.682ZM167.484 161.661C167.397 161.661 167.313 161.63 167.247 161.572C167.181 161.515 167.139 161.436 167.127 161.35C167.115 161.263 167.134 161.176 167.182 161.103C167.23 161.03 167.302 160.976 167.386 160.953C168.537 160.63 169.662 160.22 170.75 159.726C170.837 159.687 170.936 159.683 171.026 159.717C171.115 159.75 171.187 159.818 171.227 159.905C171.267 159.992 171.271 160.091 171.237 160.18C171.204 160.27 171.137 160.342 171.051 160.382C169.928 160.892 168.769 161.315 167.582 161.647C167.551 161.657 167.518 161.661 167.484 161.661ZM149.545 161.273C149.506 161.273 149.467 161.266 149.429 161.254C148.259 160.861 147.124 160.371 146.035 159.789C145.993 159.767 145.956 159.736 145.926 159.7C145.896 159.663 145.874 159.62 145.86 159.575C145.846 159.53 145.842 159.482 145.847 159.435C145.851 159.387 145.865 159.341 145.888 159.3C145.911 159.258 145.941 159.221 145.978 159.191C146.015 159.161 146.057 159.139 146.103 159.125C146.148 159.111 146.196 159.107 146.243 159.112C146.29 159.117 146.336 159.131 146.378 159.154C147.431 159.717 148.529 160.19 149.661 160.57C149.742 160.597 149.811 160.652 149.855 160.726C149.899 160.799 149.915 160.886 149.901 160.97C149.887 161.055 149.844 161.131 149.779 161.187C149.713 161.242 149.631 161.273 149.545 161.273ZM174.094 158.674C174.015 158.674 173.938 158.647 173.875 158.599C173.812 158.551 173.766 158.483 173.746 158.406C173.725 158.329 173.73 158.248 173.761 158.175C173.791 158.101 173.845 158.04 173.914 158L177.066 156.18C177.149 156.133 177.247 156.12 177.34 156.145C177.432 156.17 177.511 156.23 177.559 156.313C177.606 156.396 177.619 156.494 177.595 156.587C177.57 156.679 177.51 156.758 177.427 156.806L174.275 158.625C174.22 158.657 174.158 158.674 174.094 158.674ZM180.399 155.034C180.319 155.034 180.242 155.008 180.179 154.96C180.116 154.911 180.071 154.843 180.05 154.767C180.03 154.69 180.035 154.609 180.065 154.535C180.096 154.462 180.15 154.4 180.218 154.361L183.37 152.54C183.453 152.493 183.551 152.48 183.643 152.505C183.735 152.53 183.814 152.591 183.862 152.673C183.909 152.756 183.923 152.854 183.898 152.947C183.873 153.039 183.813 153.118 183.731 153.166L180.579 154.986C180.524 155.018 180.462 155.034 180.399 155.034ZM186.703 151.394C186.623 151.394 186.546 151.368 186.483 151.32C186.42 151.271 186.375 151.203 186.354 151.127C186.334 151.05 186.339 150.969 186.369 150.895C186.4 150.822 186.453 150.761 186.522 150.721L189.674 148.901C189.757 148.854 189.856 148.841 189.948 148.866C190.04 148.891 190.119 148.951 190.166 149.034C190.214 149.117 190.227 149.215 190.203 149.307C190.178 149.399 190.118 149.478 190.035 149.526L186.883 151.346C186.828 151.378 186.766 151.394 186.703 151.394ZM193.007 147.755C192.928 147.755 192.851 147.728 192.788 147.68C192.725 147.631 192.679 147.564 192.659 147.487C192.638 147.41 192.644 147.329 192.674 147.255C192.704 147.182 192.758 147.121 192.827 147.081L195.978 145.261C196.061 145.214 196.159 145.201 196.252 145.226C196.344 145.251 196.422 145.311 196.47 145.394C196.518 145.477 196.531 145.575 196.506 145.667C196.482 145.76 196.422 145.838 196.339 145.887L193.188 147.706C193.133 147.738 193.071 147.755 193.007 147.755ZM199.311 144.115C199.232 144.115 199.154 144.089 199.091 144.04C199.028 143.992 198.983 143.924 198.963 143.848C198.942 143.771 198.947 143.689 198.978 143.616C199.008 143.543 199.062 143.481 199.131 143.441L202.283 141.621C202.366 141.574 202.464 141.561 202.556 141.586C202.648 141.611 202.727 141.672 202.775 141.754C202.822 141.837 202.836 141.935 202.811 142.028C202.786 142.12 202.726 142.199 202.644 142.247L199.492 144.067C199.437 144.098 199.374 144.115 199.311 144.115ZM205.615 140.475C205.535 140.475 205.458 140.449 205.395 140.401C205.332 140.352 205.287 140.284 205.266 140.208C205.246 140.131 205.251 140.05 205.282 139.976C205.312 139.903 205.366 139.841 205.434 139.802L208.587 137.982C208.67 137.935 208.768 137.922 208.86 137.947C208.952 137.972 209.031 138.032 209.079 138.115C209.126 138.198 209.139 138.296 209.115 138.388C209.09 138.48 209.03 138.559 208.948 138.607L205.795 140.427C205.741 140.459 205.678 140.475 205.615 140.475ZM211.919 136.836C211.84 136.836 211.763 136.81 211.7 136.761C211.637 136.713 211.592 136.645 211.571 136.568C211.55 136.491 211.556 136.41 211.586 136.337C211.617 136.263 211.67 136.202 211.739 136.162L214.891 134.342C214.974 134.295 215.072 134.282 215.164 134.307C215.256 134.332 215.335 134.392 215.382 134.475C215.43 134.558 215.443 134.656 215.419 134.748C215.394 134.841 215.334 134.919 215.252 134.967L212.1 136.788C212.045 136.819 211.983 136.836 211.919 136.836ZM218.223 133.196C218.144 133.196 218.067 133.17 218.004 133.121C217.941 133.073 217.895 133.005 217.875 132.928C217.854 132.852 217.86 132.77 217.89 132.697C217.92 132.623 217.974 132.562 218.043 132.522L221.195 130.703C221.278 130.655 221.376 130.643 221.469 130.668C221.561 130.692 221.639 130.753 221.687 130.836C221.735 130.918 221.748 131.017 221.723 131.109C221.699 131.201 221.639 131.28 221.556 131.328L218.404 133.148C218.349 133.179 218.287 133.196 218.223 133.196ZM224.527 129.556C224.448 129.556 224.371 129.53 224.308 129.481C224.245 129.433 224.199 129.365 224.179 129.289C224.158 129.212 224.164 129.13 224.194 129.057C224.224 128.984 224.278 128.922 224.347 128.883L227.499 127.063C227.582 127.015 227.68 127.003 227.772 127.028C227.865 127.053 227.943 127.113 227.991 127.196C228.039 127.278 228.052 127.377 228.027 127.469C228.003 127.561 227.942 127.64 227.86 127.688L224.708 129.508C224.653 129.54 224.591 129.556 224.527 129.556ZM230.832 125.917C230.752 125.917 230.675 125.89 230.612 125.842C230.549 125.794 230.504 125.726 230.483 125.649C230.463 125.572 230.468 125.491 230.498 125.418C230.529 125.344 230.582 125.283 230.651 125.243L233.803 123.423C233.886 123.376 233.984 123.363 234.076 123.388C234.168 123.413 234.247 123.474 234.295 123.556C234.342 123.639 234.356 123.737 234.331 123.83C234.306 123.922 234.246 124.001 234.164 124.049L231.012 125.868C230.957 125.9 230.895 125.917 230.832 125.917ZM237.136 122.277C237.056 122.277 236.979 122.251 236.916 122.202C236.853 122.154 236.808 122.086 236.787 122.009C236.767 121.933 236.772 121.851 236.802 121.778C236.833 121.704 236.886 121.643 236.955 121.603L240.107 119.784C240.19 119.736 240.289 119.724 240.381 119.748C240.473 119.773 240.552 119.834 240.599 119.916C240.647 119.999 240.66 120.097 240.636 120.19C240.611 120.282 240.551 120.361 240.468 120.409L237.316 122.229C237.261 122.26 237.199 122.277 237.136 122.277ZM243.439 118.637C243.36 118.637 243.283 118.611 243.22 118.563C243.157 118.514 243.112 118.447 243.091 118.37C243.07 118.293 243.076 118.212 243.106 118.138C243.136 118.065 243.19 118.004 243.259 117.964L246.411 116.144C246.494 116.096 246.592 116.084 246.685 116.109C246.777 116.134 246.855 116.194 246.903 116.277C246.951 116.359 246.964 116.458 246.939 116.55C246.915 116.642 246.855 116.721 246.772 116.769L243.62 118.589C243.565 118.621 243.503 118.637 243.439 118.637ZM249.744 114.998C249.665 114.998 249.587 114.971 249.524 114.923C249.461 114.874 249.416 114.807 249.396 114.73C249.375 114.653 249.38 114.572 249.411 114.498C249.441 114.425 249.495 114.364 249.564 114.324L252.715 112.504C252.798 112.457 252.896 112.444 252.989 112.469C253.081 112.494 253.159 112.554 253.207 112.637C253.255 112.72 253.268 112.818 253.243 112.91C253.219 113.003 253.159 113.081 253.076 113.13L249.925 114.949C249.87 114.981 249.807 114.998 249.744 114.998ZM256.048 111.358C255.968 111.358 255.891 111.331 255.828 111.283C255.765 111.235 255.72 111.167 255.699 111.09C255.679 111.013 255.684 110.932 255.715 110.859C255.745 110.785 255.799 110.724 255.867 110.684L259.02 108.864C259.103 108.817 259.201 108.804 259.293 108.829C259.385 108.854 259.464 108.915 259.512 108.997C259.559 109.08 259.572 109.178 259.548 109.271C259.523 109.363 259.463 109.442 259.381 109.49L256.228 111.31C256.174 111.341 256.111 111.358 256.048 111.358Z" fill="#F5F5F5"/>
<path d="M263.922 108.617C263.874 108.617 263.827 108.608 263.784 108.59C263.74 108.571 263.7 108.545 263.667 108.511C263.633 108.478 263.606 108.438 263.588 108.394C263.57 108.35 263.561 108.303 263.561 108.256V107.076L262.539 107.666C262.456 107.714 262.358 107.726 262.266 107.701C262.174 107.676 262.095 107.616 262.047 107.533C262 107.451 261.987 107.352 262.011 107.26C262.036 107.168 262.096 107.089 262.178 107.041L263.741 106.138C263.796 106.107 263.858 106.09 263.922 106.09C263.985 106.09 264.047 106.107 264.102 106.138C264.157 106.17 264.203 106.216 264.234 106.271C264.266 106.325 264.283 106.388 264.283 106.451V108.256C264.283 108.303 264.274 108.35 264.255 108.394C264.237 108.438 264.211 108.478 264.177 108.511C264.144 108.545 264.104 108.571 264.06 108.59C264.016 108.608 263.969 108.617 263.922 108.617Z" fill="#F5F5F5"/>
<path d="M263.922 180.915C263.874 180.915 263.827 180.906 263.783 180.888C263.74 180.869 263.7 180.843 263.666 180.809C263.633 180.776 263.606 180.736 263.588 180.692C263.57 180.648 263.561 180.601 263.561 180.554V176.939C263.561 176.843 263.599 176.751 263.666 176.684C263.734 176.616 263.826 176.578 263.922 176.578C264.017 176.578 264.109 176.616 264.177 176.684C264.244 176.751 264.283 176.843 264.283 176.939V180.554C264.283 180.601 264.273 180.648 264.255 180.692C264.237 180.736 264.21 180.776 264.177 180.809C264.143 180.843 264.104 180.869 264.06 180.888C264.016 180.906 263.969 180.915 263.922 180.915ZM263.922 173.685C263.874 173.685 263.827 173.676 263.783 173.658C263.74 173.639 263.7 173.613 263.666 173.579C263.633 173.546 263.606 173.506 263.588 173.462C263.57 173.418 263.561 173.371 263.561 173.324V169.709C263.561 169.613 263.599 169.522 263.666 169.454C263.734 169.386 263.826 169.348 263.922 169.348C264.017 169.348 264.109 169.386 264.177 169.454C264.244 169.522 264.283 169.613 264.283 169.709V173.324C264.283 173.371 264.273 173.418 264.255 173.462C264.237 173.506 264.21 173.546 264.177 173.579C264.143 173.613 264.104 173.639 264.06 173.658C264.016 173.676 263.969 173.685 263.922 173.685ZM263.922 166.455C263.874 166.455 263.827 166.446 263.783 166.428C263.74 166.41 263.7 166.383 263.666 166.349C263.633 166.316 263.606 166.276 263.588 166.232C263.57 166.188 263.561 166.141 263.561 166.094V162.479C263.561 162.384 263.599 162.292 263.666 162.224C263.734 162.156 263.826 162.118 263.922 162.118C264.017 162.118 264.109 162.156 264.177 162.224C264.244 162.292 264.283 162.384 264.283 162.479V166.094C264.283 166.141 264.273 166.188 264.255 166.232C264.237 166.276 264.21 166.316 264.177 166.349C264.143 166.383 264.104 166.41 264.06 166.428C264.016 166.446 263.969 166.455 263.922 166.455ZM263.922 159.225C263.874 159.225 263.827 159.216 263.783 159.198C263.74 159.18 263.7 159.153 263.666 159.12C263.633 159.086 263.606 159.046 263.588 159.003C263.57 158.959 263.561 158.912 263.561 158.864V155.25C263.561 155.154 263.599 155.062 263.666 154.994C263.734 154.927 263.826 154.889 263.922 154.889C264.017 154.889 264.109 154.927 264.177 154.994C264.244 155.062 264.283 155.154 264.283 155.25V158.864C264.283 158.912 264.273 158.959 264.255 159.003C264.237 159.046 264.21 159.086 264.177 159.12C264.143 159.153 264.104 159.18 264.06 159.198C264.016 159.216 263.969 159.225 263.922 159.225ZM263.922 151.996C263.874 151.996 263.827 151.986 263.783 151.968C263.74 151.95 263.7 151.923 263.666 151.89C263.633 151.856 263.606 151.817 263.588 151.773C263.57 151.729 263.561 151.682 263.561 151.635V148.02C263.561 147.924 263.599 147.832 263.666 147.764C263.734 147.697 263.826 147.659 263.922 147.659C264.017 147.659 264.109 147.697 264.177 147.764C264.244 147.832 264.283 147.924 264.283 148.02V151.635C264.283 151.682 264.273 151.729 264.255 151.773C264.237 151.817 264.21 151.856 264.177 151.89C264.143 151.923 264.104 151.95 264.06 151.968C264.016 151.986 263.969 151.996 263.922 151.996ZM263.922 144.766C263.874 144.766 263.827 144.757 263.783 144.739C263.74 144.72 263.7 144.694 263.666 144.66C263.633 144.627 263.606 144.587 263.588 144.543C263.57 144.499 263.561 144.452 263.561 144.405V140.79C263.561 140.694 263.599 140.602 263.666 140.535C263.734 140.467 263.826 140.429 263.922 140.429C264.017 140.429 264.109 140.467 264.177 140.535C264.244 140.602 264.283 140.694 264.283 140.79V144.405C264.283 144.452 264.273 144.499 264.255 144.543C264.237 144.587 264.21 144.627 264.177 144.66C264.143 144.694 264.104 144.72 264.06 144.739C264.016 144.757 263.969 144.766 263.922 144.766ZM263.922 137.536C263.874 137.536 263.827 137.527 263.783 137.509C263.74 137.49 263.7 137.464 263.666 137.43C263.633 137.397 263.606 137.357 263.588 137.313C263.57 137.269 263.561 137.222 263.561 137.175V133.56C263.561 133.464 263.599 133.373 263.666 133.305C263.734 133.237 263.826 133.199 263.922 133.199C264.017 133.199 264.109 133.237 264.177 133.305C264.244 133.373 264.283 133.464 264.283 133.56V137.175C264.283 137.222 264.273 137.269 264.255 137.313C264.237 137.357 264.21 137.397 264.177 137.43C264.143 137.464 264.104 137.49 264.06 137.509C264.016 137.527 263.969 137.536 263.922 137.536ZM263.922 130.306C263.874 130.306 263.827 130.297 263.783 130.279C263.74 130.26 263.7 130.234 263.666 130.2C263.633 130.167 263.606 130.127 263.588 130.083C263.57 130.039 263.561 129.992 263.561 129.945V126.33C263.561 126.235 263.599 126.143 263.666 126.075C263.734 126.007 263.826 125.969 263.922 125.969C264.017 125.969 264.109 126.007 264.177 126.075C264.244 126.143 264.283 126.235 264.283 126.33V129.945C264.283 129.992 264.273 130.039 264.255 130.083C264.237 130.127 264.21 130.167 264.177 130.2C264.143 130.234 264.104 130.261 264.06 130.279C264.016 130.297 263.969 130.306 263.922 130.306ZM263.922 123.076C263.874 123.076 263.827 123.067 263.783 123.049C263.74 123.031 263.7 123.004 263.666 122.971C263.633 122.937 263.606 122.897 263.588 122.854C263.57 122.81 263.561 122.763 263.561 122.715V119.101C263.561 119.005 263.599 118.913 263.666 118.845C263.734 118.778 263.826 118.74 263.922 118.74C264.017 118.74 264.109 118.778 264.177 118.845C264.244 118.913 264.283 119.005 264.283 119.101V122.715C264.283 122.763 264.273 122.81 264.255 122.854C264.237 122.897 264.21 122.937 264.177 122.971C264.143 123.004 264.104 123.031 264.06 123.049C264.016 123.067 263.969 123.076 263.922 123.076ZM263.922 115.846C263.874 115.847 263.827 115.837 263.783 115.819C263.74 115.801 263.7 115.774 263.666 115.741C263.633 115.707 263.606 115.667 263.588 115.624C263.57 115.58 263.561 115.533 263.561 115.486V111.871C263.561 111.775 263.599 111.683 263.666 111.615C263.734 111.548 263.826 111.51 263.922 111.51C264.017 111.51 264.109 111.548 264.177 111.615C264.244 111.683 264.283 111.775 264.283 111.871V115.486C264.283 115.533 264.273 115.58 264.255 115.624C264.237 115.667 264.21 115.707 264.177 115.741C264.143 115.774 264.104 115.801 264.06 115.819C264.016 115.837 263.969 115.847 263.922 115.846Z" fill="#F5F5F5"/>
<path d="M262.359 187.237C262.279 187.237 262.202 187.211 262.139 187.162C262.076 187.114 262.031 187.046 262.01 186.969C261.99 186.893 261.995 186.811 262.025 186.738C262.056 186.665 262.11 186.603 262.178 186.563L263.561 185.765V184.169C263.561 184.073 263.599 183.981 263.667 183.913C263.734 183.846 263.826 183.808 263.922 183.808C264.018 183.808 264.109 183.846 264.177 183.913C264.245 183.981 264.283 184.073 264.283 184.169V185.974C264.283 186.037 264.266 186.099 264.234 186.154C264.203 186.209 264.157 186.255 264.102 186.286L262.539 187.189C262.484 187.22 262.422 187.237 262.359 187.237Z" fill="#F5F5F5"/>
<path d="M160.313 242.278C160.218 242.278 160.127 242.241 160.06 242.174C159.992 242.108 159.953 242.018 159.952 241.923C159.95 241.828 159.986 241.737 160.051 241.668C160.116 241.599 160.206 241.559 160.3 241.556C161.5 241.514 162.695 241.404 163.882 241.226C163.929 241.219 163.977 241.222 164.023 241.233C164.069 241.244 164.112 241.265 164.15 241.293C164.188 241.321 164.221 241.356 164.245 241.397C164.269 241.438 164.286 241.483 164.293 241.53C164.3 241.576 164.297 241.624 164.286 241.67C164.275 241.716 164.254 241.76 164.226 241.798C164.198 241.836 164.162 241.868 164.122 241.892C164.081 241.917 164.036 241.933 163.989 241.94C162.775 242.122 161.552 242.235 160.326 242.278H160.313ZM156.676 242.206C156.667 242.206 156.657 242.206 156.648 242.205C155.424 242.113 154.206 241.951 153 241.718C152.906 241.699 152.824 241.644 152.771 241.565C152.717 241.485 152.698 241.388 152.716 241.294C152.734 241.201 152.789 241.118 152.868 241.064C152.947 241.011 153.045 240.991 153.138 241.009C154.316 241.237 155.506 241.396 156.702 241.484C156.795 241.491 156.882 241.534 156.944 241.604C157.007 241.673 157.039 241.764 157.036 241.858C157.033 241.951 156.993 242.039 156.926 242.104C156.859 242.169 156.769 242.206 156.676 242.206ZM167.492 241.182C167.405 241.182 167.32 241.151 167.255 241.093C167.189 241.036 167.146 240.957 167.134 240.871C167.122 240.784 167.141 240.697 167.189 240.623C167.237 240.55 167.309 240.497 167.393 240.473C168.544 240.15 169.669 239.74 170.757 239.246C170.8 239.226 170.847 239.215 170.894 239.213C170.941 239.212 170.988 239.219 171.033 239.236C171.077 239.252 171.118 239.277 171.153 239.31C171.187 239.342 171.215 239.381 171.235 239.424C171.255 239.467 171.266 239.513 171.268 239.561C171.269 239.608 171.262 239.655 171.245 239.699C171.229 239.744 171.204 239.785 171.171 239.819C171.139 239.854 171.1 239.882 171.057 239.902C169.936 240.412 168.777 240.835 167.591 241.169C167.558 241.177 167.525 241.182 167.492 241.182ZM149.552 240.798C149.513 240.798 149.473 240.791 149.436 240.779C148.266 240.386 147.13 239.897 146.041 239.316C146 239.293 145.963 239.263 145.933 239.226C145.903 239.189 145.88 239.147 145.867 239.101C145.853 239.056 145.849 239.008 145.853 238.961C145.858 238.914 145.872 238.868 145.895 238.826C145.917 238.785 145.948 238.748 145.985 238.718C146.021 238.688 146.064 238.665 146.109 238.652C146.154 238.638 146.202 238.634 146.249 238.638C146.297 238.643 146.342 238.657 146.384 238.68C147.437 239.242 148.535 239.715 149.667 240.095C149.749 240.122 149.817 240.177 149.861 240.251C149.905 240.324 149.922 240.411 149.908 240.495C149.894 240.58 149.851 240.657 149.786 240.712C149.72 240.767 149.637 240.798 149.552 240.798ZM174.101 238.193C174.022 238.193 173.944 238.166 173.881 238.118C173.818 238.07 173.773 238.002 173.753 237.925C173.732 237.848 173.737 237.767 173.768 237.694C173.798 237.62 173.852 237.559 173.921 237.519L177.072 235.699C177.155 235.652 177.253 235.639 177.345 235.664C177.437 235.689 177.516 235.749 177.564 235.832C177.611 235.915 177.624 236.013 177.6 236.105C177.576 236.197 177.515 236.276 177.433 236.324L174.281 238.144C174.227 238.176 174.164 238.193 174.101 238.193ZM180.405 234.553C180.325 234.553 180.248 234.527 180.185 234.478C180.122 234.43 180.077 234.362 180.057 234.286C180.036 234.209 180.041 234.128 180.072 234.054C180.102 233.981 180.156 233.92 180.224 233.88L183.377 232.06C183.418 232.036 183.463 232.021 183.51 232.014C183.557 232.008 183.605 232.011 183.651 232.023C183.697 232.035 183.74 232.056 183.778 232.085C183.815 232.114 183.847 232.15 183.871 232.191C183.894 232.232 183.91 232.278 183.916 232.325C183.922 232.372 183.919 232.42 183.907 232.466C183.894 232.511 183.873 232.554 183.844 232.592C183.815 232.63 183.779 232.661 183.738 232.685L180.585 234.504C180.531 234.536 180.468 234.553 180.405 234.553ZM186.709 230.914C186.629 230.914 186.552 230.887 186.489 230.839C186.426 230.791 186.381 230.723 186.36 230.646C186.34 230.569 186.345 230.488 186.375 230.415C186.406 230.341 186.46 230.28 186.528 230.24L189.681 228.42C189.763 228.372 189.862 228.36 189.954 228.385C190.046 228.409 190.124 228.47 190.172 228.552C190.22 228.635 190.233 228.733 190.208 228.825C190.184 228.918 190.124 228.996 190.041 229.045L186.889 230.865C186.834 230.897 186.772 230.914 186.709 230.914ZM193.013 227.273C192.934 227.273 192.857 227.247 192.794 227.199C192.731 227.15 192.685 227.083 192.665 227.006C192.644 226.929 192.65 226.848 192.68 226.775C192.71 226.701 192.764 226.64 192.833 226.6L195.984 224.78C196.025 224.756 196.071 224.741 196.118 224.735C196.165 224.728 196.213 224.731 196.259 224.743C196.305 224.755 196.348 224.777 196.385 224.805C196.423 224.834 196.455 224.87 196.478 224.912C196.502 224.953 196.518 224.998 196.524 225.045C196.53 225.092 196.527 225.14 196.514 225.186C196.502 225.232 196.481 225.275 196.452 225.312C196.423 225.35 196.387 225.381 196.345 225.405L193.194 227.225C193.139 227.257 193.077 227.273 193.013 227.273ZM199.317 223.634C199.238 223.634 199.161 223.608 199.098 223.559C199.035 223.511 198.989 223.443 198.969 223.367C198.948 223.29 198.953 223.208 198.984 223.135C199.014 223.062 199.068 223 199.137 222.961L202.289 221.141C202.33 221.117 202.375 221.102 202.422 221.096C202.469 221.089 202.517 221.093 202.563 221.105C202.608 221.117 202.651 221.138 202.689 221.167C202.727 221.196 202.758 221.232 202.782 221.273C202.805 221.314 202.821 221.359 202.827 221.406C202.833 221.453 202.83 221.501 202.818 221.546C202.806 221.592 202.785 221.635 202.756 221.673C202.727 221.71 202.691 221.742 202.65 221.766L199.498 223.585C199.443 223.617 199.381 223.634 199.317 223.634ZM205.621 219.994C205.542 219.994 205.464 219.968 205.401 219.92C205.338 219.872 205.293 219.804 205.273 219.727C205.252 219.65 205.257 219.569 205.288 219.496C205.318 219.422 205.372 219.361 205.441 219.321L208.593 217.501C208.676 217.454 208.774 217.441 208.866 217.465C208.959 217.49 209.038 217.55 209.086 217.633C209.133 217.716 209.146 217.815 209.122 217.907C209.097 217.999 209.037 218.078 208.954 218.126L205.801 219.946C205.747 219.978 205.684 219.995 205.621 219.994ZM211.926 216.354C211.846 216.354 211.769 216.328 211.706 216.28C211.643 216.231 211.598 216.164 211.577 216.087C211.557 216.01 211.562 215.929 211.592 215.855C211.623 215.782 211.676 215.721 211.745 215.681L214.897 213.861C214.938 213.838 214.984 213.822 215.031 213.816C215.078 213.81 215.125 213.813 215.171 213.825C215.217 213.837 215.26 213.859 215.297 213.887C215.335 213.916 215.366 213.952 215.39 213.993C215.414 214.034 215.429 214.079 215.435 214.126C215.442 214.173 215.439 214.221 215.426 214.267C215.414 214.313 215.393 214.355 215.364 214.393C215.335 214.431 215.299 214.462 215.258 214.486L212.106 216.306C212.051 216.338 211.989 216.354 211.926 216.354ZM218.229 212.715C218.15 212.715 218.073 212.689 218.01 212.64C217.947 212.592 217.902 212.524 217.881 212.447C217.86 212.371 217.866 212.289 217.896 212.216C217.926 212.143 217.98 212.081 218.049 212.042L221.201 210.221C221.284 210.174 221.382 210.161 221.475 210.186C221.567 210.211 221.646 210.271 221.694 210.354C221.741 210.437 221.754 210.535 221.73 210.627C221.705 210.72 221.645 210.798 221.562 210.846L218.41 212.666C218.355 212.698 218.293 212.715 218.229 212.715ZM224.534 209.075C224.455 209.075 224.377 209.049 224.314 209C224.251 208.952 224.206 208.884 224.186 208.807C224.165 208.731 224.17 208.649 224.201 208.576C224.231 208.502 224.285 208.441 224.353 208.401L227.505 206.582C227.588 206.534 227.686 206.522 227.778 206.547C227.871 206.571 227.949 206.632 227.997 206.715C228.045 206.797 228.058 206.896 228.033 206.988C228.009 207.08 227.949 207.159 227.866 207.207L224.714 209.027C224.66 209.058 224.597 209.075 224.534 209.075ZM230.838 205.436C230.758 205.435 230.681 205.409 230.618 205.361C230.555 205.312 230.51 205.245 230.489 205.168C230.469 205.091 230.474 205.01 230.504 204.936C230.535 204.863 230.589 204.802 230.657 204.762L233.81 202.942C233.892 202.894 233.991 202.882 234.083 202.907C234.175 202.932 234.254 202.992 234.301 203.075C234.349 203.157 234.362 203.256 234.338 203.348C234.313 203.44 234.253 203.519 234.171 203.567L231.018 205.387C230.963 205.419 230.901 205.436 230.838 205.436ZM237.142 201.796C237.062 201.796 236.985 201.769 236.922 201.721C236.859 201.673 236.814 201.605 236.793 201.528C236.773 201.451 236.778 201.37 236.808 201.297C236.839 201.223 236.892 201.162 236.961 201.122L240.113 199.302C240.196 199.255 240.295 199.242 240.387 199.267C240.479 199.292 240.558 199.353 240.605 199.435C240.653 199.518 240.666 199.616 240.642 199.709C240.617 199.801 240.557 199.88 240.474 199.928L237.322 201.747C237.267 201.779 237.205 201.796 237.142 201.796ZM243.446 198.156C243.367 198.156 243.29 198.13 243.227 198.082C243.164 198.033 243.118 197.965 243.098 197.889C243.077 197.812 243.083 197.731 243.113 197.657C243.143 197.584 243.197 197.522 243.266 197.483L246.417 195.663C246.5 195.615 246.599 195.603 246.691 195.627C246.783 195.652 246.861 195.713 246.909 195.795C246.957 195.878 246.97 195.976 246.945 196.069C246.921 196.161 246.861 196.24 246.778 196.288L243.627 198.108C243.572 198.14 243.51 198.156 243.446 198.156ZM249.75 194.516C249.671 194.516 249.593 194.49 249.53 194.442C249.467 194.393 249.422 194.326 249.402 194.249C249.381 194.172 249.386 194.091 249.417 194.017C249.447 193.944 249.501 193.883 249.57 193.843L252.722 192.023C252.805 191.975 252.903 191.963 252.996 191.987C253.088 192.012 253.167 192.073 253.215 192.156C253.262 192.238 253.275 192.337 253.251 192.429C253.226 192.522 253.166 192.6 253.083 192.648L249.931 194.468C249.876 194.5 249.813 194.516 249.75 194.516ZM256.054 190.877C255.975 190.877 255.897 190.85 255.834 190.802C255.771 190.754 255.726 190.686 255.706 190.609C255.685 190.532 255.69 190.451 255.721 190.377C255.751 190.304 255.805 190.243 255.873 190.203L259.026 188.383C259.109 188.336 259.207 188.323 259.299 188.348C259.392 188.372 259.471 188.433 259.518 188.516C259.566 188.599 259.579 188.697 259.554 188.789C259.53 188.882 259.469 188.961 259.387 189.009L256.234 190.828C256.18 190.86 256.117 190.877 256.054 190.877Z" fill="#F5F5F5"/>
<path d="M143.199 237.322C143.112 237.322 143.027 237.291 142.962 237.234C142.492 236.828 142.055 236.385 141.655 235.91C141.593 235.837 141.563 235.742 141.572 235.646C141.58 235.551 141.626 235.463 141.7 235.401C141.773 235.34 141.868 235.31 141.964 235.318C142.059 235.327 142.147 235.373 142.209 235.446C142.584 235.892 142.994 236.308 143.436 236.688C143.491 236.736 143.531 236.8 143.549 236.872C143.567 236.943 143.563 237.018 143.537 237.087C143.512 237.156 143.465 237.216 143.405 237.258C143.344 237.3 143.272 237.322 143.199 237.322Z" fill="#F5F5F5"/>
<path d="M281.884 128.683V149.931C281.86 150.374 281.731 150.804 281.51 151.188C281.288 151.572 280.98 151.899 280.609 152.142L241.843 174.525C241.82 174.54 241.795 174.553 241.769 174.562C238.84 176.236 236.181 176.452 234.236 175.447C233.645 175.142 231.373 173.82 230.819 173.462C229.063 172.326 227.994 170.087 227.994 166.949C227.994 160.478 232.549 152.562 238.275 148.929L238.283 148.921L274.618 127.946C274.684 127.905 274.748 127.861 274.809 127.813C275.318 127.408 275.251 126.84 274.618 126.472L269.908 123.752V120.296L280.609 126.472C280.944 126.692 281.229 126.981 281.445 127.319C281.661 127.656 281.803 128.036 281.862 128.432C281.877 128.515 281.884 128.599 281.884 128.683Z" fill="#27DEBF"/>
<path opacity="0.3" d="M281.884 128.683V149.931C281.86 150.374 281.731 150.804 281.51 151.188C281.288 151.572 280.98 151.899 280.609 152.142L241.843 174.525C241.82 174.54 241.795 174.553 241.769 174.562C238.84 176.236 236.181 176.452 234.236 175.447C233.645 175.142 231.373 173.82 230.819 173.462C229.063 172.326 227.994 170.087 227.994 166.949C227.994 160.478 232.549 152.562 238.275 148.929L238.283 148.921L274.618 127.946C274.684 127.905 274.748 127.861 274.809 127.813C275.318 127.408 275.251 126.84 274.618 126.472L269.908 123.752V120.296L280.609 126.472C280.944 126.692 281.229 126.981 281.445 127.319C281.661 127.656 281.803 128.036 281.862 128.432C281.877 128.515 281.884 128.599 281.884 128.683Z" fill="black"/>
<path d="M281.884 128.683V149.931C281.859 150.374 281.731 150.804 281.51 151.188C281.288 151.572 280.98 151.899 280.609 152.142L241.843 174.525C241.82 174.54 241.795 174.553 241.769 174.562C237.951 176.744 234.59 176.449 232.674 174.201C231.476 172.621 230.878 170.668 230.986 168.688C230.986 162.003 235.85 153.786 241.843 150.322L278.892 128.934L280.609 127.946C281.236 127.577 281.759 127.799 281.862 128.432C281.877 128.515 281.884 128.599 281.884 128.683Z" fill="#00CE99"/>
<path d="M239.971 163.504C239.971 166.368 241.981 167.528 244.462 166.096C245.769 165.244 246.857 164.096 247.637 162.744C248.417 161.393 248.868 159.876 248.952 158.318C248.952 155.454 246.941 154.294 244.461 155.725C243.154 156.578 242.066 157.726 241.286 159.078C240.506 160.429 240.055 161.945 239.971 163.504Z" fill="#37474F"/>
<path d="M249.107 156.26L247.776 155.5L241.283 166.409L242.808 167.288L249.107 156.26Z" fill="#37474F"/>
<path d="M241.468 164.368C241.468 167.232 243.478 168.393 245.959 166.961C247.266 166.108 248.354 164.96 249.134 163.608C249.914 162.257 250.365 160.741 250.449 159.182C250.449 156.319 248.438 155.158 245.958 156.59C244.651 157.442 243.563 158.59 242.783 159.942C242.003 161.293 241.552 162.81 241.468 164.368Z" fill="#455A64"/>
<path d="M106.026 321.819C105.582 321.517 105.215 321.114 104.955 320.644C104.695 320.174 104.549 319.649 104.53 319.112L104.529 232.917C104.559 232.363 104.719 231.825 104.997 231.344C105.274 230.864 105.66 230.456 106.125 230.153L216.697 166.314C217.159 166.025 217.691 165.866 218.236 165.856C218.781 165.846 219.318 165.985 219.79 166.257C220.262 166.53 220.651 166.926 220.915 167.403C221.178 167.88 221.307 168.419 221.287 168.964V255.159C221.257 255.713 221.097 256.252 220.82 256.732C220.543 257.212 220.156 257.62 219.692 257.923L109.119 321.762C108.644 322.014 108.117 322.15 107.579 322.16C107.042 322.17 106.51 322.053 106.026 321.819Z" fill="#0B0320"/>
<path d="M110.516 234.531L104.996 231.344C104.709 231.82 104.548 232.362 104.529 232.917L104.529 319.112C104.509 319.657 104.638 320.196 104.902 320.673C105.165 321.15 105.554 321.546 106.026 321.819C106.498 322.091 107.035 322.23 107.58 322.22C108.125 322.21 108.657 322.051 109.118 321.762L110.517 320.954L110.516 234.531Z" fill="#263238"/>
<path d="M107.522 234.645V320.841C107.522 321.858 108.237 322.271 109.118 321.762L219.691 257.923C220.155 257.62 220.542 257.212 220.819 256.732C221.096 256.252 221.257 255.713 221.287 255.159V168.964C221.287 167.946 220.572 167.534 219.691 168.043L109.118 231.882C108.654 232.184 108.267 232.592 107.99 233.073C107.713 233.553 107.552 234.092 107.522 234.645Z" fill="#06164B"/>
<path d="M116.504 257.116V270.715C116.504 271.733 117.218 272.145 118.1 271.636L135.865 261.379C136.33 261.077 136.716 260.669 136.994 260.188C137.271 259.708 137.431 259.169 137.461 258.616L137.46 245.017C137.46 243.999 136.746 243.587 135.865 244.095C131.967 246.346 121.997 252.102 118.099 254.352C117.635 254.655 117.248 255.063 116.971 255.543C116.694 256.023 116.534 256.562 116.504 257.116Z" fill="#00CE99"/>
<path d="M140.271 246.313L113.332 261.879L113.693 262.504L140.632 246.938L140.271 246.313Z" fill="#F5F5F5"/>
<path d="M122.852 257.002H122.13V263.93H122.852V257.002Z" fill="#F5F5F5"/>
<path d="M131.834 251.845H131.112V258.762H131.834V251.845Z" fill="#F5F5F5"/>
<path d="M140.271 253.256L113.332 268.822L113.693 269.447L140.632 253.881L140.271 253.256Z" fill="#F5F5F5"/>
<path d="M116.504 283.045V286.273C116.504 287.291 117.218 287.704 118.1 287.195L135.865 276.938C136.329 276.635 136.716 276.227 136.993 275.747C137.27 275.267 137.43 274.728 137.46 274.174V270.945C137.46 269.928 136.746 269.515 135.865 270.024L118.1 280.281C117.635 280.584 117.248 280.992 116.971 281.472C116.694 281.952 116.534 282.491 116.504 283.045Z" fill="#E0E0E0"/>
<path d="M141.452 268.639L141.452 271.868C141.452 272.886 142.167 273.298 143.048 272.789L160.813 262.532C161.278 262.23 161.664 261.822 161.941 261.341C162.219 260.861 162.379 260.322 162.409 259.769L162.409 256.54C162.409 255.522 161.694 255.11 160.813 255.619L143.048 265.875C142.583 266.178 142.197 266.586 141.92 267.067C141.642 267.547 141.482 268.086 141.452 268.639Z" fill="#E0E0E0"/>
<path d="M166.4 254.234V257.463C166.4 258.48 167.115 258.893 167.996 258.384L185.761 248.127C186.226 247.824 186.612 247.416 186.89 246.936C187.167 246.456 187.327 245.917 187.357 245.363V242.135C187.357 241.117 186.642 240.705 185.761 241.213L167.996 251.47C167.532 251.773 167.145 252.181 166.868 252.661C166.59 253.141 166.43 253.68 166.4 254.234Z" fill="#E0E0E0"/>
<path d="M191.348 239.829L191.348 243.057C191.348 244.075 192.062 244.487 192.943 243.979L210.709 233.722C211.173 233.419 211.56 233.011 211.837 232.531C212.114 232.05 212.274 231.512 212.304 230.958V227.729C212.304 226.712 211.59 226.299 210.709 226.808L192.943 237.065C192.479 237.368 192.092 237.776 191.815 238.256C191.538 238.736 191.378 239.275 191.348 239.829Z" fill="#E0E0E0"/>
<path d="M202.367 243.727L198.294 246.078C198.016 246.26 197.784 246.505 197.617 246.793C197.451 247.081 197.355 247.404 197.337 247.736V248.982C197.337 249.593 197.766 249.84 198.294 249.535L202.367 247.183C202.646 247.002 202.878 246.757 203.044 246.469C203.21 246.181 203.307 245.857 203.325 245.525V244.279C203.325 243.669 202.896 243.421 202.367 243.727Z" fill="#00CE99"/>
<path d="M211.348 238.541L207.275 240.892C206.996 241.074 206.764 241.319 206.598 241.607C206.431 241.895 206.335 242.219 206.317 242.551V243.797C206.317 244.407 206.746 244.655 207.275 244.349L211.348 241.998C211.626 241.816 211.858 241.571 212.025 241.283C212.191 240.995 212.287 240.672 212.305 240.34V239.094C212.305 238.483 211.876 238.236 211.348 238.541Z" fill="#00CE99"/>
<path d="M159.932 276.866L210.629 247.597C211.51 247.088 212.224 247.5 212.224 248.518V250.018C212.194 250.572 212.034 251.111 211.757 251.591C211.48 252.071 211.093 252.479 210.629 252.782L159.931 282.052C159.05 282.561 158.336 282.148 158.336 281.131L158.336 279.63C158.366 279.076 158.526 278.538 158.804 278.057C159.081 277.577 159.467 277.169 159.932 276.866Z" fill="#00CE99"/>
<circle cx="294" cy="88" r="5" fill="#5351FD"/>
<circle cx="350" cy="112" r="3" fill="#5351FD"/>
<circle cx="310" cy="159" r="3" fill="#5351FD"/>
<path d="M278.275 226.559C292.463 225.29 302.938 212.786 301.672 198.63C300.406 184.475 287.878 174.029 273.69 175.298C259.502 176.567 249.026 189.071 250.293 203.226C251.559 217.381 264.087 227.828 278.275 226.559Z" fill="#F5B403"/>
<g opacity="0.3">
<path opacity="0.3" d="M295.5 198.564C295.381 198.579 295.221 197.727 294.772 196.256C294.146 194.19 293.203 192.234 291.977 190.458C291.132 189.246 290.156 188.13 289.067 187.132C287.816 185.996 286.423 185.025 284.925 184.245C283.272 183.384 281.503 182.767 279.674 182.414C278.709 182.228 277.73 182.117 276.748 182.081C274.721 182.005 272.694 182.25 270.743 182.808C269.798 183.077 268.874 183.419 267.981 183.83C266.289 184.61 264.718 185.632 263.319 186.862C262.05 187.978 260.93 189.254 259.988 190.656C259.169 191.886 258.487 193.202 257.956 194.581C257.191 196.598 256.743 198.723 256.629 200.878C256.545 202.413 256.593 203.279 256.474 203.292C256.387 203.304 256.14 202.46 256.043 200.877C255.931 198.623 256.239 196.367 256.952 194.226C258.013 191.007 259.886 188.116 262.391 185.833C263.111 185.168 263.88 184.561 264.694 184.015C265.539 183.439 266.43 182.931 267.356 182.497C268.316 182.043 269.31 181.667 270.329 181.371C272.431 180.759 274.619 180.494 276.806 180.587C277.866 180.631 278.922 180.759 279.962 180.97C281.927 181.369 283.821 182.062 285.58 183.023C288.558 184.642 291.069 187.001 292.868 189.874C294.072 191.783 294.911 193.899 295.341 196.115C295.626 197.676 295.587 198.555 295.5 198.564Z" fill="black"/>
</g>
</g>
<defs>
<filter id="filter0_d" x="-4.49902" y="0" width="383.499" height="393" filterUnits="userSpaceOnUse" color-interpolation-filters="sRGB">
<feFlood flood-opacity="0" result="BackgroundImageFix"/>
<feColorMatrix in="SourceAlpha" type="matrix" values="0 0 0 0 0 0 0 0 0 0 0 0 0 0 0 0 0 0 127 0"/>
<feOffset dy="4"/>
<feGaussianBlur stdDeviation="2"/>
<feColorMatrix type="matrix" values="0 0 0 0 0 0 0 0 0 0 0 0 0 0 0 0 0 0 0.25 0"/>
<feBlend mode="normal" in2="BackgroundImageFix" result="effect1_dropShadow"/>
<feBlend mode="normal" in="SourceGraphic" in2="effect1_dropShadow" result="shape"/>
</filter>
</defs>
</svg>
