<svg width="375" height="365" viewBox="0 0 375 365" fill="none" xmlns="http://www.w3.org/2000/svg">
<path d="M202 63C128 -11.4 35.8333 -4.66666 -1 8V357.5C42 369 111.5 365.5 143 352C163.167 345.167 212 330.5 246 326.5C280 322.5 346.167 333.167 375 339V99C352.5 87.5 309.5 91.5 295.5 95C250 111 222.5 84.5 202 63Z" fill="#531EDC"/>
<path d="M279.067 275.235C266.422 266.4 263.553 250.002 264.053 235.262C264.136 232.802 263.866 230.208 265.036 228.049C266.207 225.89 268.938 224.415 271.141 225.451C272.968 226.312 273.764 228.437 274.787 230.195C276.152 232.539 278.153 234.45 280.557 235.706C282.124 236.519 284.063 237.017 285.609 236.164C287.732 234.993 287.982 232.061 287.967 229.613C287.938 225.052 287.909 220.491 287.881 215.93C287.866 213.483 287.859 210.985 288.62 208.662C289.381 206.34 291.063 204.182 293.39 203.53C295.719 202.878 298.597 204.22 299.089 206.615C299.181 207.628 299.204 208.646 299.159 209.662C299.226 210.678 299.7 211.802 300.665 212.085C301.641 212.372 302.621 211.678 303.352 210.962C305.878 208.491 307.592 205.308 309.194 202.143C310.796 198.977 312.35 195.737 314.642 193.042C316.934 190.347 320.104 188.211 323.609 188.013C327.114 187.814 330.848 189.977 331.733 193.418C332.621 196.868 330.609 200.368 328.418 203.161C325.17 207.304 321.339 210.955 317.045 214.002C316.21 214.465 315.543 215.181 315.143 216.048C314.611 217.679 316.157 219.3 317.768 219.836C319.592 220.443 321.571 220.254 323.479 220.479C325.387 220.703 327.454 221.545 328.176 223.348C329.179 225.85 327.087 228.471 325.028 230.188C320.905 233.628 316.22 236.332 311.179 238.183C309.379 238.842 307.485 239.419 306.033 240.684C304.581 241.95 303.705 244.149 304.582 245.872C305.46 247.598 307.711 248.149 309.597 247.799C311.481 247.45 313.17 246.426 314.967 245.748C318.33 244.479 322.673 244.71 324.827 247.617C326.243 249.527 326.367 252.188 325.651 254.465C324.832 256.709 323.57 258.766 321.941 260.513C316.612 266.915 309.678 271.788 301.849 274.633C294.048 277.338 286.82 278.07 279.067 275.235Z" fill="#5351FD"/>
<path d="M328.198 190.061C328.127 190.146 328.047 190.224 327.961 190.294C327.78 190.455 327.54 190.669 327.234 190.942C326.593 191.508 325.648 192.344 324.461 193.453C321.097 196.578 317.973 199.951 315.114 203.542C313.293 205.81 311.4 208.378 309.419 211.172C307.442 213.97 305.349 216.973 303.266 220.213C301.065 223.587 299.049 227.079 297.229 230.672C296.285 232.543 295.444 234.5 294.586 236.496C293.732 238.491 292.867 240.514 291.99 242.565C288.646 250.246 285.734 258.108 283.269 266.114C281.283 272.665 279.918 279.388 279.19 286.194C278.715 290.786 278.639 295.411 278.961 300.016C279.089 301.645 279.213 302.91 279.329 303.762C279.376 304.172 279.413 304.494 279.441 304.735C279.459 304.846 279.467 304.958 279.465 305.07C279.432 304.963 279.409 304.854 279.396 304.743C279.357 304.503 279.305 304.182 279.238 303.775C279.094 302.925 278.941 301.662 278.786 300.03C278.395 295.415 278.425 290.773 278.874 286.163C279.559 279.328 280.898 272.574 282.872 265.994C285.319 257.965 288.225 250.082 291.576 242.386C292.454 240.336 293.32 238.313 294.176 236.315C295.034 234.324 295.884 232.35 296.835 230.471C298.668 226.865 300.7 223.364 302.92 219.984C305.017 216.742 307.125 213.742 309.116 210.951C311.114 208.163 313.026 205.6 314.867 203.338C317.756 199.754 320.925 196.405 324.344 193.322C325.551 192.231 326.515 191.416 327.176 190.872C327.494 190.614 327.743 190.411 327.931 190.258C328.014 190.185 328.104 190.119 328.198 190.061Z" fill="#263238"/>
<path d="M296.964 230.453C296.847 230.115 296.767 229.765 296.725 229.409C296.596 228.733 296.443 227.749 296.271 226.53C295.925 224.093 295.562 220.712 295.176 216.983C294.79 213.252 294.38 209.885 293.998 207.461C293.81 206.248 293.648 205.268 293.528 204.592C293.443 204.244 293.397 203.888 293.391 203.53C293.531 203.859 293.634 204.203 293.699 204.555C293.872 205.222 294.082 206.196 294.31 207.406C294.774 209.825 295.237 213.2 295.623 216.934C295.994 220.615 296.33 223.945 296.587 226.49C296.71 227.639 296.815 228.607 296.898 229.384C296.959 229.737 296.981 230.095 296.964 230.453Z" fill="#263238"/>
<path d="M328.427 224.573C328.014 224.662 327.594 224.712 327.172 224.723C326.364 224.795 325.196 224.893 323.756 225.06C320.874 225.371 316.909 225.94 312.561 226.759C308.213 227.587 304.311 228.503 301.508 229.247C300.102 229.609 298.974 229.933 298.192 230.152C297.793 230.29 297.382 230.391 296.964 230.453C297.34 230.259 297.734 230.102 298.14 229.982C298.907 229.711 300.025 229.34 301.424 228.936C304.213 228.11 308.118 227.141 312.479 226.311C316.198 225.595 319.952 225.071 323.726 224.739C325.174 224.613 326.35 224.563 327.163 224.547C327.584 224.515 328.007 224.524 328.427 224.573Z" fill="#263238"/>
<path d="M283.259 265.416C283.17 265.298 283.097 265.169 283.043 265.032C282.897 264.724 282.72 264.348 282.505 263.894C282.042 262.903 281.41 261.452 280.652 259.65C279.134 256.045 277.194 251.001 275.129 245.405C273.061 239.807 271.171 234.751 269.73 231.121C269.025 229.356 268.443 227.904 268.012 226.825C267.827 226.356 267.675 225.97 267.551 225.653C267.487 225.519 267.443 225.377 267.418 225.232C267.507 225.35 267.579 225.479 267.634 225.616C267.779 225.924 267.957 226.299 268.172 226.754C268.634 227.744 269.267 229.195 270.025 230.997C271.543 234.602 273.483 239.647 275.549 245.245C277.615 250.841 279.506 255.896 280.946 259.527C281.653 261.292 282.233 262.744 282.665 263.822C282.85 264.291 283.001 264.678 283.126 264.994C283.189 265.128 283.234 265.27 283.259 265.416Z" fill="#263238"/>
<path d="M325.068 251.941C324.938 252.016 324.799 252.073 324.653 252.112C324.327 252.221 323.925 252.356 323.439 252.519C322.318 252.882 320.804 253.373 318.962 253.969C315.182 255.196 309.98 256.949 304.235 258.894C298.489 260.84 293.266 262.547 289.459 263.694C287.556 264.269 286.012 264.719 284.938 265.007C284.442 265.137 284.032 265.244 283.7 265.332C283.557 265.38 283.409 265.408 283.259 265.416C283.389 265.34 283.529 265.282 283.674 265.244C284 265.135 284.402 265.001 284.889 264.838C286.01 264.474 287.523 263.984 289.365 263.387C293.145 262.161 298.347 260.408 304.094 258.462C309.839 256.516 315.061 254.81 318.868 253.662C320.771 253.087 322.315 252.638 323.39 252.349C323.886 252.219 324.295 252.111 324.628 252.024C324.77 251.976 324.918 251.948 325.068 251.941Z" fill="#263238"/>
<rect x="37" y="304" width="310" height="1" fill="#5337ED"/>
<path opacity="0.1" d="M213.021 189.267H184.754C183.596 189.267 182.656 190.207 182.656 191.365V199.343C182.656 200.502 183.596 201.441 184.754 201.441H213.021C214.18 201.441 215.119 200.502 215.119 199.343V191.365C215.119 190.207 214.18 189.267 213.021 189.267Z" fill="#6C63FF"/>
<path d="M271.118 93.1371L260.531 97.5561L248.231 54.6687L251.117 51.2438L256.404 50.4242L271.118 93.1371Z" fill="#BD8A00"/>
<path d="M251.116 51.2439L232.742 53.6015L242.16 98.9844L260.53 97.5561L251.116 51.2439Z" fill="#F5B403"/>
<path d="M246.341 52.2664L246.048 52.2299C246.048 52.1203 247.266 41.4076 240.542 40.0563L240.599 39.7682C247.611 41.1763 246.365 52.1569 246.341 52.2664Z" fill="#535461"/>
<path d="M198.612 83.5362H178.371V113.163H198.612V83.5362Z" fill="#071544"/>
<path d="M251.847 100.693L240.408 101.573L242.169 56.9898L245.98 54.6443L251.259 55.5249L251.847 100.693Z" fill="#00A67B"/>
<path d="M245.979 54.6444L227.796 51.1221L222.517 97.1747L240.408 101.573L245.979 54.6444Z" fill="#00CE99"/>
<path d="M138.921 32.6467H136.279L131 78.6952L142.731 78.1109L138.921 32.6467Z" fill="#6C63FF"/>
<path opacity="0.2" d="M138.921 32.6467H136.279L131 78.6952L142.731 78.1109L138.921 32.6467Z" fill="black"/>
<path d="M138.04 32.0583L134.814 78.403L162.972 81.3368L166.198 36.1649L138.04 32.0583Z" fill="#5351FD"/>
<path d="M172.066 272.579C172.066 272.579 168.547 272.287 167.959 282.553C167.959 282.553 168.547 288.125 167.078 290.766C165.61 293.408 166.49 301.033 170.893 301.913C173.71 302.433 176.598 302.433 179.414 301.913C179.414 301.913 181.468 301.913 180.003 294.581L177.069 273.168L172.066 272.579Z" fill="white"/>
<path d="M190.508 103.201C190.257 107.567 191.129 110.099 191.129 110.099L183.505 112.152C183.505 112.152 170.893 113.913 175.88 108.906C177.604 107.181 178.452 104.223 178.822 101.099C179.053 98.9643 179.125 96.8158 179.037 94.6709C178.969 92.6613 178.796 90.6567 178.517 88.6653C178.517 88.6653 196.997 82.2133 192.89 92.7719C192.142 94.6816 191.552 96.6495 191.125 98.6557C190.808 100.153 190.602 101.672 190.508 103.201Z" fill="#EA908B"/>
<path opacity="0.1" d="M192.89 92.7759C192.142 94.6857 191.552 96.6536 191.125 98.6598C188.938 99.1246 186.667 99.0006 184.543 98.3006C182.419 97.6005 180.519 96.3494 179.037 94.675C178.969 92.6654 178.796 90.6607 178.518 88.6694C178.518 88.6694 196.997 82.2174 192.89 92.7759Z" fill="black"/>
<path d="M188.492 98.3474C195.457 98.3474 201.103 92.7009 201.103 85.7356C201.103 78.7703 195.457 73.1238 188.492 73.1238C181.526 73.1238 175.88 78.7703 175.88 85.7356C175.88 92.7009 181.526 98.3474 188.492 98.3474Z" fill="#EA908B"/>
<path d="M166.198 91.8954V95.7098L159.746 112.428L157.985 110.667C157.888 110.563 157.798 110.451 157.717 110.334C153.456 104.28 150.356 64.0301 150.356 64.0301L146.254 29.997C146.254 29.997 141.855 19.4466 151.529 20.0228C161.203 20.599 153.582 29.7007 153.582 29.7007C153.582 29.7007 160.034 61.9647 159.154 63.1374C158.273 64.3101 159.154 67.8323 159.154 67.8323C159.154 67.8323 161.795 74.5805 161.499 79.5636C161.203 84.5466 166.198 91.8954 166.198 91.8954Z" fill="#F8BDC5"/>
<path d="M238.939 47.3118L223.686 79.5758L221.34 83.9664C221.34 83.9664 214.036 109.742 205.6 115.914C205.115 116.276 204.589 116.58 204.034 116.819L202.272 102.738L203.896 98.6476L204.017 98.3352C205.899 96.4996 207.395 94.3058 208.416 91.8832C210.177 87.7767 215.164 79.5636 215.164 79.5636C215.164 79.5636 216.045 77.2181 216.045 75.457C216.045 73.6959 232.763 44.658 232.763 44.658C232.763 44.658 234.228 31.4578 241.285 37.9098C248.341 44.3618 238.939 47.3118 238.939 47.3118Z" fill="#F8BDC5"/>
<path d="M179.982 281.377C179.982 281.377 170.008 285.483 171.181 281.669C171.895 279.356 171.631 274.985 171.315 271.93C171.112 269.938 170.885 268.485 170.885 268.485L179.406 269.365C179.108 270.109 178.942 270.898 178.915 271.699C178.635 275.59 179.982 281.377 179.982 281.377Z" fill="#F8BDC5"/>
<path d="M195.491 269.966C193.953 275.306 194.355 284.607 194.355 284.607C194.355 284.607 185.262 285.779 186.142 283.434C186.755 281.811 187.652 273.768 188.139 269.041C188.354 266.975 188.488 265.543 188.488 265.543L196.701 267.304C196.141 268.112 195.732 269.013 195.491 269.966Z" fill="#F8BDC5"/>
<path opacity="0.1" d="M170.889 268.473L179.41 269.353C179.112 270.097 178.946 270.886 178.919 271.686C177.754 272.296 176.466 272.634 175.152 272.674C173.837 272.714 172.531 272.455 171.331 271.918C171.116 269.921 170.889 268.473 170.889 268.473Z" fill="black"/>
<path opacity="0.1" d="M196.705 267.3C196.142 268.108 195.73 269.011 195.487 269.966C192.716 270.412 189.806 269.629 188.139 269.041C188.354 266.975 188.488 265.543 188.488 265.543L196.705 267.3Z" fill="black"/>
<path d="M206.09 198.954L204.362 211.07C203.66 215.67 202.594 220.206 201.172 224.636C199.931 228.633 200.811 233.563 200.811 233.563C200.811 233.563 201.984 252.335 199.931 257.03C197.877 261.724 198.169 268.469 198.169 268.469C193.475 271.11 186.73 267.88 186.73 267.88L186.142 236.789C186.142 236.789 184.677 228.576 185.261 220.963C185.846 213.351 184.381 197.793 184.381 197.793C181.135 198.674 181.447 241.496 181.447 241.496V269.361C174.407 275.521 168.247 269.361 168.247 269.361C165.901 262.321 166.782 240.908 166.782 240.908L165.902 228.296C165.902 228.296 162.655 212.75 160.626 191.045C159.999 184.947 159.915 178.804 160.375 172.691C160.432 172.026 160.494 171.386 160.561 170.772C160.843 167.996 161.35 165.248 162.079 162.555C162.312 161.667 162.61 160.797 162.972 159.954L194.489 161.419L196.348 161.504L200.811 161.711C201.298 162.445 201.757 163.192 202.183 163.938C202.8 165.022 203.355 166.113 203.85 167.185C204.135 167.81 204.402 168.439 204.662 169.063C210.655 184.195 206.09 198.954 206.09 198.954Z" fill="#06164B"/>
<path opacity="0.1" d="M171.477 162.879C171.477 162.879 170.098 176.676 160.371 172.683C160.428 172.018 160.49 171.378 160.558 170.764C162.846 171.385 169.181 172.241 169.42 162.875L171.477 162.879Z" fill="black"/>
<path opacity="0.1" d="M204.646 169.068C197.91 171.474 195.369 165.066 194.501 161.41L196.359 161.496C197.37 167.246 201.403 167.582 203.858 167.177C204.134 167.818 204.398 168.447 204.646 169.068Z" fill="black"/>
<path d="M174.679 279.818C173.181 279.583 170.893 278.759 171.611 275.882C171.611 275.882 168.84 274.925 169.132 286.364C169.132 286.364 168.84 291.935 168.251 293.112C167.663 294.289 168.251 301.325 174.411 300.737C174.411 300.737 178.81 302.201 179.982 299.856C179.982 299.856 179.102 286.364 180.571 284.03C182.04 281.697 179.982 279.336 179.982 279.336C179.982 279.336 177.905 280.488 176.411 280.147C175.843 279.989 175.259 279.912 174.679 279.818Z" fill="#FAECE3"/>
<path d="M182.036 298.975C182.036 298.975 179.102 303.963 185.85 304.547C192.599 305.131 195.528 301.613 195.528 301.613C195.528 301.613 196.409 300.148 195.528 297.507C194.648 294.865 195.821 290.174 195.821 290.174C195.821 290.174 196.701 284.603 194.648 285.775C192.595 286.948 182.036 298.975 182.036 298.975Z" fill="white"/>
<path d="M189.664 281.084C189.664 281.084 186.146 279.62 185.266 282.549C184.385 285.479 184.973 292.816 183.212 294.869C181.451 296.922 179.106 302.494 186.146 302.201C193.187 301.909 194.668 299.56 194.668 299.56C194.668 299.56 194.376 292.227 195.256 290.174C196.137 288.121 195.256 284.899 195.256 284.899C195.256 284.899 195.528 280.772 189.664 281.084Z" fill="#FAECE3"/>
<path opacity="0.2" d="M145.666 36.7533C145.99 36.7533 146.254 36.4898 146.254 36.1649C146.254 35.8399 145.99 35.5765 145.666 35.5765C145.341 35.5765 145.077 35.8399 145.077 36.1649C145.077 36.4898 145.341 36.7533 145.666 36.7533Z" fill="black"/>
<path opacity="0.2" d="M157.985 38.2182C158.31 38.2182 158.573 37.9547 158.573 37.6298C158.573 37.3048 158.31 37.0414 157.985 37.0414C157.66 37.0414 157.396 37.3048 157.396 37.6298C157.396 37.9547 157.66 38.2182 157.985 38.2182Z" fill="black"/>
<path d="M158.13 37.6338H157.838C157.838 37.508 158.045 25.1356 150.94 23.9954C149.54 23.7722 148.396 24.0887 147.539 24.9368C144.606 27.8463 145.819 36.0634 145.831 36.1446L145.543 36.1892C145.49 35.8443 144.297 27.7408 147.337 24.7299C148.262 23.8087 149.495 23.4638 150.989 23.7032C158.341 24.88 158.134 37.508 158.13 37.6338Z" fill="#535461"/>
<path d="M241.126 54.1209L240.862 53.9951C240.907 53.8977 245.427 44.1061 239.454 40.6934L239.6 40.4378C245.805 43.9843 241.175 54.0194 241.126 54.1209Z" fill="#535461"/>
<path opacity="0.1" d="M191.129 110.083L183.505 112.136C183.505 112.136 170.893 113.897 175.88 108.89C177.604 107.165 178.452 104.207 178.822 101.082C180.814 104.207 183.212 103.318 183.212 103.318L190.484 103.176H190.512C190.257 107.567 191.129 110.083 191.129 110.083Z" fill="black"/>
<path opacity="0.1" d="M205.604 115.922C205.119 116.284 204.593 116.588 204.037 116.827L202.276 102.746L203.9 98.6557L204.305 98.3433C207.97 99.3861 206.079 112.874 205.604 115.922Z" fill="black"/>
<path opacity="0.1" d="M166.198 91.8954V95.7098L159.746 112.428L157.985 110.667C157.887 110.563 157.798 110.451 157.717 110.334C158.48 101.618 166.198 91.8954 166.198 91.8954Z" fill="black"/>
<path opacity="0.1" d="M202.179 163.93C198.076 164.957 176.659 169.989 170.304 165.225C167.797 163.346 164.842 162.656 162.079 162.547C162.312 161.659 162.61 160.789 162.972 159.945L194.489 161.41L196.348 161.496L200.811 161.703C201.298 162.441 201.753 163.184 202.179 163.93Z" fill="black"/>
<path d="M146.988 22.5264C146.988 22.5264 151.387 29.859 154.321 22.5264H146.988Z" fill="#F8BDC5"/>
<path d="M237.474 37.6298C237.474 37.6298 235.713 46.4313 242.75 42.3247L237.474 37.6298Z" fill="#F8BDC5"/>
<g opacity="0.1">
<path opacity="0.1" d="M183.018 200.686C182.876 198.901 182.771 197.785 182.771 197.785C179.524 198.665 179.837 241.488 179.837 241.488V269.353C177.775 271.155 175.779 271.902 174.014 272.06C176.132 272.246 178.656 271.654 181.318 269.353V241.488C181.318 241.488 181.091 210.458 183.018 200.686Z" fill="black"/>
<path opacity="0.1" d="M204.5 169.068C204.252 168.443 203.989 167.814 203.688 167.189C203.193 166.101 202.637 165.01 202.021 163.942C201.615 163.196 201.136 162.453 200.649 161.715L196.185 161.508L194.327 161.423L162.81 159.958L162.781 160.023L192.862 161.423L194.721 161.508L199.184 161.715C199.671 162.449 200.13 163.196 200.556 163.942C201.173 165.026 201.728 166.117 202.224 167.189C202.508 167.814 202.775 168.443 203.035 169.068C209.033 184.203 204.48 198.954 204.48 198.954L202.751 211.07C202.05 215.67 200.983 220.206 199.562 224.636C198.32 228.633 199.2 233.563 199.2 233.563C199.2 233.563 200.373 252.335 198.32 257.03C196.267 261.724 196.559 268.469 196.559 268.469C195.426 269.08 194.169 269.427 192.882 269.483C194.658 269.643 196.442 269.291 198.024 268.469C198.024 268.469 197.731 261.72 199.785 257.03C201.838 252.339 200.665 233.563 200.665 233.563C200.665 233.563 199.785 228.629 201.026 224.636C202.448 220.206 203.515 215.67 204.216 211.07L205.945 198.954C205.945 198.954 210.497 184.195 204.5 169.068Z" fill="black"/>
</g>
<path d="M190.483 103.777C194.541 105.688 204.037 98.3473 204.037 98.3473C208.143 99.5201 205.209 116.535 205.209 116.535L205.051 117.241C204.158 121.254 203.619 125.332 203.12 129.414C202.742 132.494 199.93 135.31 199.93 135.31C194.943 144.696 202.864 163.176 202.864 163.176C202.864 163.176 177.344 169.924 170.308 164.64C163.272 159.357 152.709 163.468 152.709 163.468C157.696 159.069 157.984 131.788 157.984 131.788V110.687C158.573 101.886 166.506 91.9156 166.506 91.9156C169.752 101.009 178.773 101.61 178.773 101.61C180.773 104.856 183.236 103.943 183.236 103.943L190.483 103.777Z" fill="#FE5218"/>
<path opacity="0.1" d="M185.209 67.9622C184.203 67.7434 183.161 67.7434 182.154 67.9622C178.964 68.8427 177.962 72.8641 175.499 75.0715C174.614 75.8831 173.523 76.4269 172.719 77.3074C171.291 78.8737 171.003 81.1948 171.307 83.2927C171.612 85.3906 172.423 87.379 172.93 89.4363C173.431 91.4957 173.621 93.6185 173.494 95.7341C173.506 96.4364 173.317 97.1273 172.951 97.7265C172.362 98.5381 171.279 98.7937 170.516 99.443C168.187 101.448 170.11 105.607 168.402 108.167C167.667 109.275 166.292 110.006 166.012 111.304C165.813 112.225 166.235 113.154 166.649 114.003C167.736 116.234 168.864 118.527 170.707 120.191C172.549 121.854 174.825 122.69 177.09 123.538C177.775 123.794 178.636 124.017 179.159 123.51C179.804 122.877 179.317 121.806 178.871 121.023C178.165 119.805 177.613 118.336 178.027 116.965C178.441 115.593 179.768 114.684 180.661 113.54C182.961 110.578 182.207 106.325 181.066 102.754C180.583 101.249 180.04 99.6459 180.449 98.1161C180.624 97.4587 180.969 96.8622 181.188 96.217C182.162 93.344 180.527 90.1911 181.005 87.1964C181.254 86.027 181.664 84.8976 182.223 83.8406L184.8 78.3016C185.059 77.635 185.446 77.0256 185.94 76.508C186.74 75.8642 187.756 75.548 188.78 75.6234C189.825 75.6468 190.854 75.8822 191.804 76.3154C192.755 76.7486 193.608 77.3705 194.311 78.1433C197.07 81.2111 196.896 85.8532 196.563 89.9436L196.324 92.8977C196.149 95.024 195.918 97.2923 194.579 98.9479C193.536 100.23 191.852 101.103 191.422 102.701C191.049 104.077 191.751 105.57 191.381 106.946C190.829 109.003 188.289 109.746 186.946 111.41C186.381 112.133 186.047 113.009 185.988 113.925C185.929 114.841 186.147 115.753 186.613 116.543C187.125 117.354 187.94 118.166 187.831 119.119C187.737 119.886 187.048 120.507 187.052 121.278C187.085 121.623 187.221 121.95 187.444 122.216C187.666 122.482 187.964 122.674 188.297 122.767C188.969 122.941 189.67 122.975 190.355 122.865L197.63 122.207C198.086 122.206 198.533 122.082 198.925 121.85C199.432 121.485 199.598 120.812 199.667 120.191C199.96 117.602 199.262 114.774 200.556 112.509C200.962 111.783 201.558 111.178 202.009 110.48C204.492 106.585 201.989 101.301 203.34 96.8825C203.981 94.7846 205.474 92.9829 205.872 90.8282C206.399 87.9552 204.902 85.1472 204.322 82.3067C203.725 79.3729 204.046 76.1428 202.48 73.5904C201.282 71.6427 199.14 70.4294 196.924 69.8734C194.895 69.3621 192.866 69.5447 190.838 69.3256C188.898 69.1024 187.096 68.2665 185.209 67.9622Z" fill="black"/>
<path d="M185.209 67.3738C184.203 67.155 183.161 67.155 182.154 67.3738C178.964 68.2544 177.962 72.2757 175.499 74.4832C174.614 75.2947 173.523 75.8385 172.719 76.719C171.291 78.2854 171.003 80.6065 171.307 82.7044C171.612 84.8023 172.423 86.7906 172.93 88.8479C173.431 90.9074 173.621 93.0301 173.494 95.1457C173.506 95.848 173.317 96.539 172.951 97.1381C172.362 97.9497 171.279 98.2053 170.516 98.8546C168.187 100.859 170.11 105.018 168.402 107.579C167.667 108.687 166.292 109.417 166.012 110.716C165.813 111.637 166.235 112.566 166.649 113.414C167.736 115.646 168.864 117.939 170.707 119.602C172.549 121.266 174.825 122.102 177.09 122.95C177.775 123.206 178.636 123.429 179.159 122.922C179.804 122.289 179.317 121.217 178.871 120.434C178.165 119.217 177.613 117.748 178.027 116.376C178.441 115.005 179.768 114.096 180.661 112.952C182.961 109.989 182.207 105.737 181.066 102.166C180.583 100.66 180.04 99.0575 180.449 97.5277C180.624 96.8703 180.969 96.2738 181.188 95.6286C182.162 92.7557 180.527 89.6027 181.005 86.608C181.254 85.4386 181.664 84.3093 182.223 83.2522L184.8 77.7132C185.059 77.0466 185.446 76.4373 185.94 75.9196C186.74 75.2758 187.756 74.9597 188.78 75.035C189.825 75.0584 190.854 75.2938 191.804 75.727C192.755 76.1602 193.608 76.7821 194.311 77.555C197.07 80.6227 196.896 85.2649 196.563 89.3552L196.324 92.3093C196.149 94.4356 195.918 96.7039 194.579 98.3595C193.536 99.6418 191.852 100.514 191.422 102.113C191.049 103.489 191.751 104.982 191.381 106.358C190.829 108.415 188.289 109.157 186.946 110.821C186.381 111.544 186.047 112.421 185.988 113.336C185.929 114.252 186.147 115.164 186.613 115.954C187.125 116.766 187.94 117.578 187.831 118.531C187.737 119.298 187.048 119.919 187.052 120.69C187.085 121.035 187.221 121.362 187.444 121.628C187.666 121.893 187.964 122.086 188.297 122.179C188.969 122.353 189.67 122.386 190.355 122.277L197.63 121.619C198.086 121.617 198.533 121.494 198.925 121.262C199.432 120.897 199.598 120.223 199.667 119.602C199.96 117.013 199.262 114.185 200.556 111.921C200.962 111.195 201.558 110.59 202.009 109.892C204.492 105.996 201.989 100.713 203.34 96.2941C203.981 94.1962 205.474 92.3945 205.872 90.2398C206.399 87.3668 204.902 84.5588 204.322 81.7183C203.725 78.7845 204.046 75.5544 202.48 73.002C201.282 71.0543 199.14 69.841 196.924 69.2851C194.895 68.7738 192.866 68.9564 190.838 68.7373C188.898 68.5181 187.096 67.6822 185.209 67.3738Z" fill="#06164B"/>
<path opacity="0.1" d="M169.57 134.572C169.57 134.572 175.438 136.333 183.943 132.519H188.338C188.338 132.519 188.63 136.625 200.069 134.864" fill="black"/>
<circle cx="33" cy="130" r="5" fill="#5351FD"/>
<circle cx="89" cy="154" r="3" fill="#5351FD"/>
<circle cx="49" cy="201" r="3" fill="#5351FD"/>
<path d="M59.0746 274.666C57.9881 278.682 54.2669 281.169 54.2669 281.169C54.2669 281.169 52.3071 277.145 53.3935 273.129C54.4799 269.113 58.2012 266.625 58.2012 266.625C58.2012 266.625 60.161 270.649 59.0746 274.666Z" fill="#5351FD"/>
<path d="M50.6415 295.668C52.7131 299.276 51.8405 303.667 51.8405 303.667C51.8405 303.667 47.6093 302.207 45.5377 298.599C43.4661 294.991 44.3387 290.601 44.3387 290.601C44.3387 290.601 48.5699 292.06 50.6415 295.668Z" fill="#5351FD"/>
<path d="M48.4852 248.956C50.5568 252.564 49.6843 256.954 49.6843 256.954C49.6843 256.954 45.453 255.494 43.3814 251.886C41.3099 248.278 42.1824 243.888 42.1824 243.888C42.1824 243.888 46.4137 245.348 48.4852 248.956Z" fill="#5351FD"/>
<path d="M51.8162 304.026L51.7072 303.56L51.7617 303.793L51.7063 303.56C51.723 303.556 53.3867 303.132 54.6354 300.862C56.2781 297.876 57.3013 291.569 52.8478 278.478C48.7471 266.424 49.2284 257.118 50.3542 251.434C51.5772 245.26 53.7424 241.991 53.834 241.855L54.2316 242.122C54.2096 242.155 52.0199 245.467 50.8186 251.556C49.7095 257.178 49.2399 266.385 53.3013 278.323C57.8211 291.609 56.7416 298.053 55.0401 301.12C53.6834 303.565 51.8919 304.009 51.8162 304.026Z" fill="#5351FD"/>
<path d="M54.0327 247.978C57.3403 247.978 60.0215 245.296 60.0215 241.989C60.0215 238.681 57.3403 236 54.0327 236C50.7252 236 48.0439 238.681 48.0439 241.989C48.0439 245.296 50.7252 247.978 54.0327 247.978Z" fill="#5351FD"/>
</svg>
