<svg width="371" height="348" viewBox="0 0 371 348" fill="none" xmlns="http://www.w3.org/2000/svg">
<path d="M58 102.5C40.8 89.3 11.8333 81.6667 -0.5 79.5V315.5C41 326.333 133.3 347.9 170.5 347.5C251 344 318 318.5 357.5 224.5C399 110.5 336.5 69 274 50.5C196.5 28 146 66.5 117 93.5C88 120.5 74 113.5 58 102.5Z" fill="#531EDC"/>
<path d="M196.743 244.761L189.385 238.975L200.134 225.123L210.988 233.473L210.378 234.375C207.623 238.363 196.093 254.454 193.335 256.409C190.26 258.588 196.743 244.761 196.743 244.761Z" fill="white"/>
<path d="M201.695 244.876C206.695 238.517 210.643 233.278 210.513 233.176C210.383 233.073 206.224 238.146 201.223 244.505C196.223 250.865 192.274 256.103 192.405 256.206C192.535 256.308 196.694 251.235 201.695 244.876Z" fill="#263238"/>
<path d="M198.053 246.184C198.027 246.35 197.55 246.41 196.982 246.405C196.415 246.399 195.939 246.329 195.916 246.164C195.892 246.002 196.37 245.799 196.988 245.806C197.606 245.811 198.081 246.023 198.053 246.184Z" fill="#263238"/>
<path d="M197.847 247.445C197.8 247.606 197.271 247.591 196.648 247.509C196.026 247.423 195.512 247.298 195.509 247.131C195.504 246.967 196.055 246.823 196.729 246.914C197.402 247.004 197.895 247.289 197.847 247.445Z" fill="#263238"/>
<path d="M207.199 237.289C207.12 237.311 206.946 236.997 206.749 236.454C206.478 235.732 206.346 234.965 206.359 234.194C206.373 233.391 206.66 232.616 207.173 231.997C207.587 231.535 207.971 231.427 208.004 231.491C208.055 231.568 207.784 231.794 207.512 232.25C207.168 232.85 206.977 233.526 206.958 234.217C206.956 234.933 207.023 235.646 207.159 236.348C207.249 236.906 207.28 237.267 207.199 237.289Z" fill="#263238"/>
<path d="M196.638 245.139C196.576 244.983 196.879 244.719 197.271 244.467C197.666 244.219 198.034 244.056 198.149 244.178C198.261 244.296 198.04 244.69 197.592 244.973C197.146 245.258 196.697 245.291 196.638 245.139Z" fill="#263238"/>
<path d="M196.097 244.363C195.976 244.249 196.166 243.8 196.522 243.36C196.877 242.92 197.276 242.64 197.414 242.734C197.549 242.828 197.36 243.277 196.988 243.737C196.616 244.198 196.217 244.478 196.097 244.363Z" fill="#263238"/>
<path d="M147.985 125.731C147.985 125.731 126.028 184.073 128.986 194.973C131.944 205.873 191.163 249.152 191.163 249.152L207.24 226.014C207.24 226.014 161.052 189.46 160.907 187.441C160.761 185.423 179.243 136.953 179.243 136.953L147.985 125.731Z" fill="#1B2F71"/>
<path d="M190.149 231.358C190.075 231.331 190.004 231.292 189.941 231.244C189.784 231.14 189.593 231.015 189.361 230.863C188.82 230.492 188.087 229.989 187.161 229.355C185.265 228.025 182.53 226.088 179.202 223.622C172.539 218.703 163.492 211.682 153.89 203.461C151.485 201.41 149.162 199.378 146.931 197.402C145.82 196.409 144.73 195.434 143.66 194.478C142.54 193.583 141.585 192.499 140.837 191.276C140.221 190.018 140.074 188.58 140.423 187.223C140.679 185.934 141.005 184.722 141.314 183.54C141.945 181.186 142.576 179.007 143.152 177.018C144.297 173.079 145.227 169.874 145.887 167.604C146.189 166.524 146.427 165.669 146.604 165.038C146.679 164.77 146.741 164.551 146.792 164.37C146.807 164.292 146.835 164.217 146.873 164.147C146.876 164.226 146.866 164.306 146.845 164.382C146.808 164.567 146.763 164.791 146.709 165.063C146.58 165.659 146.373 166.535 146.088 167.658C145.519 169.903 144.627 173.134 143.516 177.122C142.964 179.116 142.355 181.3 141.743 183.653C141.446 184.828 141.128 186.052 140.886 187.309C140.564 188.56 140.702 189.886 141.273 191.045C142.001 192.212 142.924 193.244 144.002 194.097C145.073 195.049 146.165 196.019 147.279 197.009C149.512 198.978 151.836 201.005 154.238 203.054C163.83 211.266 172.829 218.326 179.429 223.319C182.716 225.774 185.389 227.771 187.283 229.186C188.183 229.854 188.897 230.384 189.424 230.775C189.644 230.944 189.824 231.084 189.973 231.199C190.095 231.297 190.155 231.351 190.149 231.358Z" fill="#455A64"/>
<path d="M192.028 229.331C195.91 224.228 198.961 220.019 198.843 219.929C198.725 219.84 195.483 223.904 191.601 229.006C187.72 234.109 184.669 238.318 184.786 238.407C184.904 238.497 188.146 234.433 192.028 229.331Z" fill="#455A64"/>
<path d="M186.764 14.7841C188.722 18.7088 189.757 22.1058 193.648 24.129C195.401 25.0405 197.54 25.5606 198.597 27.2298C199.748 29.0472 199.205 31.6799 200.66 33.2652C202.774 35.5703 207.097 33.7028 209.471 35.7394C211.591 37.5572 210.908 41.4569 213.195 43.0598C214.48 43.9612 216.233 43.7603 217.697 44.3274C220.096 45.2567 221.233 48.025 221.549 50.5787C221.877 52.6259 221.615 54.7239 220.794 56.6276C220.373 57.5714 219.722 58.3946 218.901 59.022C218.08 59.6494 217.115 60.0611 216.094 60.2193C213.371 60.5057 210.288 58.6269 208.084 60.2503C207.374 60.9132 206.757 61.6679 206.248 62.4944C205.56 63.369 204.669 64.0632 203.653 64.5175C202.637 64.9718 201.526 65.1724 200.415 65.1022C199.305 65.0321 198.228 64.6931 197.277 64.1146C196.326 63.5361 195.53 62.7353 194.957 61.781C193.437 59.2478 193.536 55.7534 191.309 53.8121C190.039 52.9282 188.621 52.2782 187.123 51.8927C185.676 51.3513 184.18 50.4543 183.745 48.9718C183.248 47.6644 182.54 46.4468 181.651 45.3669C180.537 43.7019 179.054 45.7361 177.581 44.9158C176.109 44.0955 176.668 42.4915 176.544 40.8103" fill="#263238"/>
<path d="M160.902 71.4615L141.924 65.1151C141.924 65.1151 133.537 89.2775 130.966 89.5115C116.724 90.8105 101.487 86.0886 96.1437 84.2219C95.6012 83.6131 94.9823 82.8818 94.2921 81.9865C93.7031 81.216 93.2499 80.3507 92.9519 79.4277C92.5361 78.2959 92.2795 77.1119 92.1893 75.9094C92.212 75.6781 92.162 75.4453 92.0462 75.2437C91.9304 75.0421 91.7545 74.8817 91.5432 74.7848C91.3318 74.6879 91.0955 74.6593 90.8672 74.7031C90.6388 74.7469 90.4299 74.8609 90.2694 75.0291C89.6526 75.8259 89.4958 78.8781 90.9014 82.1613C92.3068 85.4436 87.3317 82.8324 85.5012 81.9132C83.6707 80.994 77.8747 78.4159 77.1464 78.7546C76.0783 79.2518 76.4139 80.4876 78.2636 81.3626C80.1353 82.2488 85.4732 85.2538 84.9407 86.1972C84.4172 87.1265 75.1632 82.3201 75.1632 82.3201C75.1632 82.3201 73.3516 80.9728 72.7006 82.0418C71.5261 83.9707 81.7397 88.3562 82.7223 88.749C83.4044 89.0222 82.863 90.0681 82.1456 89.7356C81.4072 89.393 73.0271 84.7263 71.8125 86.6794C70.8813 88.1774 80.1804 90.3645 81.381 92.2975C82.5816 94.2315 74.497 89.9224 73.6661 91.3903C73.3567 91.9369 73.201 92.3869 78.2012 94.1914C81.8618 95.34 85.5818 96.2898 89.345 97.0366L89.3271 97.0879C89.3271 97.0879 139.272 119.423 150.044 97.8926C161.475 75.0462 160.902 71.4615 160.902 71.4615Z" fill="#E5BAAB"/>
<path d="M179.666 51.4569L187.957 51.6063L194.541 70.4739L189.179 92.0937C187.612 98.41 194.724 111.045 194.541 118.015L148.041 125.546L147.061 94.4948L147.038 93.454L130.946 85.4245L136.256 72.4159C144.426 53.2769 158.693 52.112 158.693 52.112L179.666 51.4569Z" fill="#3EC9DC"/>
<path d="M188.3 51.6601C188.216 51.71 188.126 51.7469 188.031 51.7696C187.85 51.8299 187.577 51.9112 187.213 51.9933C186.152 52.1905 185.076 52.2978 183.996 52.3141L184.093 52.1247C184.956 53.5229 186.026 55.2557 187.271 57.271L187.484 57.6168L187.081 57.5468C185.242 57.2292 183.369 57.1686 181.513 57.3669L181.708 57.1266C181.777 59.2398 182.077 61.3391 182.602 63.3871L182.743 63.81L182.312 63.7002C180.196 63.2562 178.156 62.5095 176.253 61.4832L176.647 61.3149C176.272 63.1758 175.879 65.1252 175.477 67.1196L175.391 67.5477L175.049 67.2754C173.387 65.9502 171.883 64.4375 170.567 62.7671L170.943 62.8113C169.116 64.252 167.342 65.6505 165.623 67.0066L165.293 67.267L165.209 66.856C164.831 65.0007 164.465 63.2055 164.114 61.4832L164.435 61.6644C162.426 62.3687 160.531 63.0328 158.751 63.6565L158.356 63.7952L158.464 63.3925C159.07 61.128 159.621 59.0684 160.113 57.2308L160.26 57.4559C158.35 57.1273 156.708 56.8449 155.32 56.6059L155.114 56.5706L155.23 56.4011C156.146 55.0621 156.867 54.0089 157.392 53.2413C157.625 52.9141 157.814 52.6486 157.967 52.4328C157.938 52.4028 157.921 52.3629 157.919 52.3209C157.917 52.2788 157.931 52.2376 157.957 52.2051C157.984 52.1726 158.022 52.1512 158.064 52.1449C158.105 52.1386 158.148 52.148 158.183 52.1712C158.218 52.1944 158.243 52.2297 158.254 52.2705C158.265 52.3112 158.26 52.3544 158.24 52.3918C158.221 52.4292 158.189 52.4581 158.149 52.4729C158.11 52.4878 158.066 52.4875 158.027 52.4722C157.889 52.698 157.719 52.9759 157.509 53.3185C157.01 54.1022 156.325 55.1787 155.452 56.5478L155.363 56.343C156.755 56.555 158.402 56.8057 160.318 57.0974L160.514 57.1273L160.465 57.3226C159.995 59.1661 159.469 61.2324 158.891 63.5041L158.604 63.2401C160.376 62.6032 162.265 61.9242 164.272 61.2029L164.536 61.108L164.593 61.3842C164.953 63.1047 165.328 64.898 165.716 66.7514L165.302 66.6008C167.013 65.2444 168.783 63.8416 170.611 62.3924L170.821 62.2264L170.987 62.4367C172.279 64.0732 173.753 65.5566 175.382 66.858L174.954 67.0136C175.36 65.0201 175.758 63.0716 176.137 61.2116L176.21 60.8526L176.53 61.0431C178.383 62.0452 180.369 62.7799 182.428 63.2255L182.138 63.5383C181.613 61.4555 181.323 59.3205 181.274 57.1732L181.251 56.9537L181.468 56.9326C183.364 56.7483 185.275 56.8335 187.147 57.1855L186.957 57.4611C185.752 55.4227 184.717 53.6699 183.881 52.2556L183.773 52.0722L183.978 52.066C185.051 52.0751 186.124 52.008 187.188 51.8654C187.915 51.7414 188.292 51.6329 188.3 51.6601Z" fill="#455A64"/>
<path d="M197.478 59.5888C197.467 59.6115 197.156 59.4339 196.504 59.2465C195.546 58.9776 194.535 58.9613 193.569 59.1993L193.644 59.0869C193.839 60.1875 194.137 61.5082 194.547 63.0198C194.95 64.5329 195.462 66.2392 195.908 68.1614L195.975 68.4469L195.691 68.3648C193.319 67.6794 190.529 67.1541 187.593 66.1608L187.87 65.9418C188.173 68.7961 188.157 71.9877 188.328 75.3405L188.343 75.6322L188.05 75.589C185.379 75.1182 182.752 74.4256 180.196 73.5185C179.881 73.4257 179.502 73.3 179.417 73.4379C179.212 73.6745 179.062 73.9526 178.975 74.253C178.702 74.9157 178.426 75.5839 178.148 76.2576C177.592 77.605 177.028 78.9724 176.455 80.3598L176.284 80.7729L176.004 80.4246C174.297 78.3056 172.507 76.0843 170.686 73.823L170.291 73.332L170.651 73.3847C167.725 75.3961 164.864 77.3621 162.098 79.2634L161.814 79.4586L161.701 79.1334C160.736 76.36 159.803 73.6755 158.9 71.0798L159.275 71.2074C156.287 73.1463 153.097 74.7526 149.76 75.9974L149.403 76.1304L149.456 75.7548C150.067 71.4216 150.614 67.5379 151.089 64.1724L151.333 64.3627C148.904 65.3269 146.294 65.7485 143.685 65.5978L143.513 65.5879L143.572 65.4285C144.347 63.3523 144.949 61.7409 145.371 60.6094C145.573 60.0912 145.731 59.6838 145.851 59.3745C145.898 59.2319 145.96 59.0943 146.035 58.9639C146.009 59.1121 145.969 59.2573 145.914 59.3974C145.81 59.7122 145.672 60.1269 145.496 60.6543C145.1 61.7954 144.537 63.4204 143.81 65.5143L143.698 65.3451C146.263 65.4491 148.821 65.0008 151.199 64.0306L151.484 63.9143L151.444 64.221C150.996 67.5903 150.48 71.4783 149.904 75.8162L149.601 75.5737C152.897 74.3214 156.049 72.7163 159 70.7863L159.268 70.6106L159.375 70.914C160.283 73.5021 161.223 76.1842 162.197 78.9602L161.8 78.8304C164.564 76.9265 167.423 74.9576 170.348 72.9434L170.552 72.8024L170.708 72.9962L171.103 73.4871C172.923 75.7496 174.711 77.9723 176.416 80.0925L175.965 80.1572C176.54 78.7718 177.107 77.4055 177.666 76.0581C177.946 75.3851 178.223 74.7176 178.498 74.0555C178.613 73.6695 178.821 73.3176 179.103 73.0311C179.208 72.9464 179.334 72.8908 179.467 72.8698C179.581 72.8604 179.695 72.8666 179.807 72.8884C179.992 72.9247 180.174 72.9729 180.353 73.0329C182.883 73.9402 185.484 74.6372 188.128 75.1167L187.85 75.365C187.694 71.9861 187.73 68.8163 187.451 65.9804L187.418 65.6539L187.728 65.7613C190.628 66.7667 193.397 67.314 195.789 68.0337L195.571 68.237C195.149 66.3248 194.66 64.6132 194.28 63.0891C193.893 61.5667 193.618 60.2309 193.448 59.1191L193.434 59.0261L193.523 59.0065C194.521 58.781 195.561 58.83 196.534 59.1485C196.868 59.2502 197.186 59.3984 197.478 59.5888Z" fill="#455A64"/>
<path d="M147.316 93.2238C146.952 93.1172 146.612 92.9382 146.318 92.6974C145.465 92.1045 144.734 91.3519 144.168 90.4811C143.322 89.1628 142.936 87.6011 143.073 86.0404C143.148 84.1347 143.775 82.2919 144.879 80.7366C145.737 79.5136 146.865 78.5049 148.176 77.789L148.035 77.9829C148.42 75.1317 148.768 72.6813 149.036 70.9461C149.134 70.0184 149.306 69.0999 149.55 68.1994C149.557 69.1335 149.491 70.0668 149.352 70.9904C149.172 72.7374 148.89 75.197 148.54 78.0542L148.525 78.1778L148.399 78.2482C147.004 79.0445 145.831 80.1775 144.986 81.544C144.142 82.9104 143.653 84.4666 143.565 86.0705C143.412 87.537 143.736 89.0135 144.489 90.2811C145.008 91.1366 145.669 91.8973 146.443 92.5306C146.995 92.9817 147.334 93.1896 147.316 93.2238Z" fill="#455A64"/>
<path d="M149.07 72.2773C149.203 72.2123 148.961 71.4435 148.528 70.5602C148.096 69.6768 147.638 69.0135 147.505 69.0785C147.372 69.1435 147.615 69.9123 148.047 70.7956C148.479 71.6789 148.938 72.3423 149.07 72.2773Z" fill="#455A64"/>
<path d="M179.107 51.7294L180.537 19.0512L167.561 9.22094L155.765 14.9878C155.765 14.9878 155.371 29.7987 155.765 36.2211C156.158 42.6434 162.634 43.3291 162.634 43.3291C162.634 43.3291 162.483 47.0931 162.334 51.0482C162.292 52.1828 162.48 53.3142 162.887 54.374C163.295 55.4338 163.913 56.3999 164.704 57.2139C165.496 58.0279 166.444 58.6729 167.492 59.1097C168.54 59.5466 169.666 59.7664 170.801 59.7556C172.95 59.7353 175.009 58.8917 176.554 57.3985C178.1 55.9053 179.013 53.8763 179.107 51.7294Z" fill="#E5BAAB"/>
<path d="M157.871 26.6056C158.325 26.6056 158.693 26.2375 158.693 25.7834C158.693 25.3293 158.325 24.9612 157.871 24.9612C157.417 24.9612 157.049 25.3293 157.049 25.7834C157.049 26.2375 157.417 26.6056 157.871 26.6056Z" fill="#263238"/>
<path d="M156.253 24.8873C156.36 24.9938 156.967 24.4774 157.852 24.4302C158.736 24.3694 159.401 24.8085 159.493 24.6899C159.539 24.6371 159.429 24.4412 159.138 24.2418C158.746 23.9886 158.284 23.8672 157.819 23.8956C157.354 23.924 156.909 24.1006 156.552 24.3996C156.288 24.6327 156.202 24.8406 156.253 24.8873Z" fill="#263238"/>
<path d="M167.397 26.6053C167.851 26.6053 168.219 26.2373 168.219 25.7834C168.219 25.3294 167.851 24.9614 167.397 24.9614C166.943 24.9614 166.575 25.3294 166.575 25.7834C166.575 26.2373 166.943 26.6053 167.397 26.6053Z" fill="#263238"/>
<path d="M166.064 24.8873C166.17 24.9938 166.777 24.4774 167.662 24.4302C168.547 24.3694 169.212 24.8085 169.304 24.6899C169.349 24.6371 169.24 24.4412 168.948 24.2418C168.557 23.9886 168.095 23.8672 167.629 23.8956C167.164 23.924 166.72 24.1006 166.362 24.3996C166.098 24.6327 166.013 24.8406 166.064 24.8873Z" fill="#263238"/>
<path d="M165.795 33.2C164.444 33.8883 163.004 34.3843 161.516 34.6734C161.843 35.1177 162.309 35.4405 162.84 35.5911C163.371 35.7418 163.937 35.7118 164.449 35.5058C164.693 35.4502 164.923 35.3451 165.125 35.197C165.327 35.0488 165.496 34.8609 165.622 34.6447C165.748 34.4285 165.829 34.1888 165.858 33.9403C165.888 33.6918 165.866 33.4398 165.795 33.2Z" fill="white"/>
<path d="M162.63 43.3291C165.682 43.2014 168.635 42.2044 171.139 40.4553C171.139 40.4553 169.21 45.1707 162.77 44.9049L162.63 43.3291Z" fill="#D78776"/>
<path d="M199.222 37.5145C198.413 37.546 197.61 37.3645 196.894 36.9881C195.836 36.4193 194.957 35.5672 194.356 34.5271C193.61 33.2268 192.975 31.8657 192.458 30.4583C191.258 27.4729 190.353 24.7019 189.741 22.6831C189.644 22.3636 189.557 22.0712 189.473 21.7919C189.419 21.4478 189.364 21.1414 189.305 20.9164C185.8 7.52254 174.028 5.02554 171.7 5.02554C169.202 5.02554 164.833 3.65204 158.464 10.2698C157.503 11.2601 156.689 12.3832 156.048 13.6048C154.639 15.37 153.667 17.4423 153.21 19.6535C152.924 20.6919 152.874 21.7806 153.061 22.841C153.181 22.8458 153.202 21.6277 153.701 19.7695C153.994 18.6736 154.407 17.6131 154.933 16.6073C154.376 19.0811 154.605 21.6667 155.586 24.0047L157.87 23.3758L166.049 20.5928C165.306 18.0591 166.4 14.914 167.019 13.4476L167.08 13.3914C167.537 16.0617 168.831 18.5177 170.774 20.405C172.718 22.2923 175.211 23.5132 177.893 23.8916L179.405 44.9261C190.278 42.6024 190.031 28.0526 189.961 25.0968C190.454 26.7635 191.096 28.6764 191.901 30.6813C192.431 32.1231 193.097 33.511 193.891 34.8261C194.563 35.9311 195.544 36.8155 196.712 37.3709C197.502 37.743 198.384 37.8735 199.248 37.7462C199.566 37.7206 199.87 37.6036 200.124 37.4091C200.107 37.3609 199.794 37.4755 199.222 37.5145Z" fill="#263238"/>
<path d="M162.872 32.3626C162.399 32.2435 161.912 32.1826 161.424 32.1813C161.199 32.1702 160.976 32.1371 160.929 31.9709C160.9 31.7256 160.944 31.4772 161.055 31.2565C161.247 30.6753 161.449 30.0638 161.662 29.4219C162.083 28.1169 162.444 26.9299 162.689 26.0653C162.856 25.6064 162.966 25.1286 163.015 24.6427C162.772 25.0664 162.583 25.5182 162.449 25.9879C162.143 26.8328 161.743 28.0078 161.322 29.3125C161.119 29.9569 160.926 30.5713 160.741 31.1555C160.61 31.4455 160.58 31.7709 160.654 32.0802C160.688 32.159 160.739 32.2287 160.805 32.284C160.87 32.3394 160.948 32.3787 161.031 32.3988C161.157 32.4272 161.286 32.4388 161.415 32.4335C161.902 32.4699 162.391 32.4461 162.872 32.3626Z" fill="#263238"/>
<path d="M181.219 32.0949C181.119 31.0255 181.236 29.9469 181.564 28.9237C181.734 28.4145 182.039 27.9606 182.445 27.6096C182.851 27.2586 183.345 27.0235 183.873 26.9289C184.49 26.9017 185.096 27.1009 185.577 27.4893C186.057 27.8776 186.379 28.4281 186.482 29.0372C186.553 29.6515 186.44 30.2731 186.157 30.823C185.874 31.3729 185.434 31.8263 184.893 32.1255C184.345 32.4108 183.739 32.568 183.121 32.5853C182.503 32.6027 181.889 32.4797 181.326 32.2255" fill="#E5BAAB"/>
<path d="M183.092 31.1596C183.132 31.0886 183.44 31.2464 183.893 31.1083C184.175 31.0089 184.42 30.824 184.592 30.5793C184.765 30.3346 184.857 30.0423 184.855 29.7429C184.879 29.5923 184.871 29.4382 184.832 29.2909C184.792 29.1435 184.722 29.006 184.627 28.8874C184.429 28.7288 184.178 28.6537 183.926 28.6785C183.445 28.7207 183.106 28.8488 183.078 28.7669C183.058 28.7132 183.295 28.4675 183.87 28.3042C184.054 28.2558 184.246 28.2494 184.433 28.2855C184.619 28.3216 184.795 28.3993 184.948 28.5127C185.116 28.6738 185.244 28.8724 185.321 29.0925C185.398 29.3126 185.422 29.5477 185.39 29.7786C185.367 30.2206 185.199 30.6426 184.911 30.9787C184.669 31.2574 184.332 31.4361 183.965 31.4799C183.331 31.5423 183.04 31.1987 183.092 31.1596Z" fill="#D78776"/>
<path d="M173.252 286.545V277.184L190.786 277.072L190.93 290.765L189.844 290.843C185.007 291.142 165.231 292.025 161.99 291.065C158.376 289.995 173.252 286.545 173.252 286.545Z" fill="white"/>
<path d="M176.222 290.508C184.312 290.508 190.871 290.374 190.871 290.208C190.871 290.043 184.312 289.909 176.222 289.909C168.132 289.909 161.574 290.043 161.574 290.208C161.574 290.374 168.132 290.508 176.222 290.508Z" fill="#263238"/>
<path d="M172.943 288.454C172.796 288.536 172.455 288.198 172.107 287.749C171.761 287.299 171.522 286.882 171.638 286.762C171.75 286.643 172.205 286.893 172.582 287.384C172.96 287.872 173.086 288.376 172.943 288.454Z" fill="#263238"/>
<path d="M171.824 289.071C171.669 289.134 171.354 288.709 171.034 288.168C170.716 287.626 170.497 287.144 170.627 287.039C170.752 286.934 171.206 287.278 171.551 287.864C171.897 288.449 171.977 289.012 171.824 289.071Z" fill="#263238"/>
<path d="M185.589 290.145C185.523 290.097 185.663 289.767 185.967 289.275C186.368 288.617 186.889 288.039 187.503 287.572C188.143 287.087 188.93 286.834 189.733 286.854C190.353 286.894 190.675 287.129 190.645 287.195C190.616 287.282 190.27 287.209 189.744 287.277C189.059 287.377 188.41 287.646 187.855 288.058C187.292 288.498 186.772 288.992 186.304 289.533C185.921 289.949 185.657 290.196 185.589 290.145Z" fill="#263238"/>
<path d="M172.89 286.695C172.974 286.551 173.369 286.625 173.809 286.778C174.248 286.934 174.604 287.123 174.579 287.289C174.556 287.451 174.109 287.52 173.61 287.343C173.111 287.168 172.806 286.836 172.89 286.695Z" fill="#263238"/>
<path d="M173.165 285.79C173.18 285.625 173.651 285.497 174.216 285.505C174.782 285.512 175.249 285.652 175.26 285.818C175.27 285.983 174.8 286.112 174.208 286.104C173.616 286.096 173.149 285.956 173.165 285.79Z" fill="#263238"/>
<path d="M157.592 124.127L147.985 125.731L153.515 132.534C155.104 164.564 154.72 195.587 156.186 211.058C156.409 213.406 166.327 287.095 165.342 285.37L194.545 286.588L185.829 212.584L189.961 146.858C194.44 139.092 195.75 129.897 193.617 121.19L192.892 118.234" fill="#1E3582"/>
<path d="M65.1709 137.751L88.4125 57.9989C88.9882 56.0233 90.3252 54.3573 92.1292 53.3674C93.9333 52.3776 96.0567 52.1449 98.0323 52.7207L228.689 90.797C230.665 91.3728 232.331 92.7098 233.321 94.514C234.311 96.3181 234.544 98.4416 233.968 100.417L210.726 180.17C210.151 182.146 208.814 183.811 207.01 184.801C205.206 185.791 203.083 186.024 201.107 185.448L70.4494 147.372C69.4711 147.086 68.5586 146.611 67.7639 145.974C66.9692 145.336 66.3079 144.548 65.8177 143.655C65.3276 142.761 65.0182 141.78 64.9072 140.767C64.7962 139.754 64.8858 138.729 65.1709 137.751Z" fill="#06164B"/>
<path d="M208.279 108.737C209.896 103.189 206.709 97.3797 201.16 95.7626C195.612 94.1456 189.803 97.3328 188.186 102.881C186.569 108.43 189.756 114.239 195.304 115.856C200.853 117.473 206.662 114.286 208.279 108.737Z" fill="#FE5218"/>
<path d="M210.355 120.321C209.309 120.32 208.27 120.171 207.266 119.878C204.617 119.099 202.362 117.347 200.953 114.972C199.544 112.598 199.088 109.778 199.674 107.08C200.261 104.382 201.848 102.007 204.115 100.432C206.383 98.8565 209.163 98.1989 211.896 98.5909C214.629 98.9829 217.112 100.395 218.845 102.544C220.578 104.693 221.433 107.419 221.238 110.173C221.043 112.927 219.812 115.505 217.792 117.387C215.773 119.27 213.116 120.318 210.355 120.321ZM210.324 99.3823C207.803 99.3805 205.375 100.334 203.529 102.051C201.683 103.767 200.556 106.12 200.375 108.634C200.194 111.148 200.973 113.638 202.554 115.601C204.135 117.565 206.401 118.856 208.896 119.215C211.391 119.575 213.93 118.975 216.001 117.538C218.072 116.1 219.521 113.931 220.057 111.468C220.592 109.005 220.175 106.43 218.888 104.262C217.601 102.094 215.541 100.495 213.122 99.7852C212.213 99.5176 211.271 99.3819 210.324 99.3823Z" fill="white"/>
<path d="M85.843 114.825L83.488 122.905L82.6572 122.664L84.7972 115.322L82.8923 114.767L83.1072 114.028L85.843 114.825Z" fill="white"/>
<path d="M92.0132 124.589L91.7982 125.327L86.1309 123.675L86.3018 123.088L90.6199 120.777C91.7943 120.141 92.1259 119.649 92.2866 119.095C92.5598 118.16 92.0705 117.391 90.8347 117.03C90.4306 116.885 89.9987 116.833 89.5715 116.877C89.1442 116.922 88.7326 117.063 88.3672 117.289L87.9263 116.609C88.4034 116.324 88.9374 116.148 89.4904 116.093C90.0435 116.037 90.6019 116.104 91.1261 116.289C92.7648 116.766 93.5615 117.901 93.1677 119.252C92.9426 120.025 92.4986 120.647 91.104 121.393L87.5686 123.294L92.0132 124.589Z" fill="white"/>
<path d="M100.923 125.682L99.307 125.212L98.6882 127.335L97.8563 127.092L98.4751 124.968L93.916 123.64L94.0908 123.039L99.9339 118.931L100.858 119.201L95.204 123.214L98.7133 124.237L99.2588 122.366L100.067 122.601L99.5221 124.472L101.139 124.944L100.923 125.682Z" fill="white"/>
<path d="M113.306 129.291L111.69 128.819L111.071 130.943L110.239 130.701L110.858 128.577L106.299 127.249L106.474 126.648L112.318 122.54L113.241 122.809L107.588 126.823L111.096 127.846L111.642 125.975L112.449 126.21L111.905 128.081L113.521 128.552L113.306 129.291Z" fill="white"/>
<path d="M120.442 131.095C120.041 132.469 118.77 133.264 116.795 132.688C115.722 132.414 114.795 131.74 114.201 130.806L114.797 130.264C115.288 131.085 116.081 131.681 117.006 131.923C118.381 132.323 119.303 131.865 119.589 130.884C119.892 129.845 119.434 129.01 117.379 128.411L115.659 127.91L117.255 123.979L121.677 125.268L121.462 126.007L117.768 124.93L116.739 127.424L117.779 127.726C120.214 128.437 120.859 129.663 120.442 131.095Z" fill="white"/>
<path d="M128.438 133.388C128.333 133.736 128.157 134.058 127.921 134.334C127.685 134.611 127.394 134.835 127.066 134.993C126.739 135.15 126.382 135.239 126.019 135.251C125.656 135.264 125.294 135.201 124.956 135.066C122.808 134.44 122.077 132.611 122.82 130.06C123.621 127.312 125.539 126.318 127.732 126.957C128.407 127.122 129.025 127.467 129.52 127.954L128.991 128.526C128.596 128.111 128.089 127.82 127.532 127.687C125.789 127.18 124.342 127.972 123.703 130.167C123.649 130.351 123.594 130.585 123.547 130.834C123.909 130.455 124.374 130.191 124.885 130.073C125.395 129.955 125.929 129.988 126.421 130.17C126.774 130.23 127.111 130.365 127.409 130.564C127.706 130.764 127.959 131.024 128.149 131.327C128.339 131.631 128.464 131.972 128.514 132.327C128.563 132.682 128.538 133.043 128.438 133.388ZM127.612 133.171C127.684 132.916 127.701 132.65 127.661 132.389C127.622 132.127 127.526 131.878 127.382 131.657C127.237 131.435 127.047 131.248 126.824 131.106C126.601 130.965 126.35 130.873 126.088 130.837C125.843 130.718 125.575 130.654 125.303 130.65C125.03 130.647 124.76 130.703 124.512 130.816C124.264 130.928 124.044 131.094 123.867 131.301C123.691 131.509 123.562 131.752 123.49 132.015C123.418 132.278 123.405 132.553 123.452 132.822C123.498 133.09 123.603 133.345 123.76 133.568C123.916 133.791 124.119 133.977 124.356 134.113C124.592 134.248 124.855 134.33 125.127 134.352C125.366 134.453 125.624 134.502 125.884 134.497C126.144 134.491 126.4 134.43 126.635 134.319C126.869 134.207 127.078 134.047 127.246 133.849C127.415 133.651 127.54 133.42 127.612 133.171Z" fill="white"/>
<path d="M139.468 136.702C139.074 138.053 137.79 138.807 135.839 138.238C134.762 137.962 133.831 137.288 133.232 136.351L133.828 135.81C134.326 136.635 135.127 137.233 136.061 137.475C137.399 137.865 138.32 137.457 138.613 136.453C138.895 135.483 138.4 134.649 136.899 134.212L136.322 134.045L136.501 133.432L139.557 131.28L135.424 130.076L135.64 129.337L140.835 130.85L140.663 131.439L137.539 133.649C139.243 134.245 139.844 135.409 139.468 136.702Z" fill="white"/>
<path d="M147.595 138.971C147.49 139.319 147.314 139.641 147.078 139.917C146.841 140.194 146.55 140.418 146.223 140.576C145.895 140.733 145.539 140.821 145.175 140.834C144.812 140.847 144.45 140.784 144.112 140.649C141.965 140.022 141.233 138.193 141.976 135.642C142.777 132.894 144.696 131.901 146.889 132.54C147.564 132.705 148.182 133.05 148.677 133.537L148.148 134.109C147.753 133.694 147.246 133.403 146.689 133.27C144.946 132.763 143.499 133.555 142.86 135.75C142.806 135.934 142.751 136.168 142.704 136.417C143.066 136.038 143.531 135.774 144.041 135.656C144.552 135.538 145.085 135.571 145.577 135.753C145.93 135.813 146.267 135.947 146.565 136.147C146.863 136.346 147.115 136.606 147.306 136.91C147.496 137.214 147.621 137.554 147.671 137.909C147.72 138.265 147.695 138.626 147.595 138.971ZM146.769 138.753C146.841 138.499 146.857 138.233 146.818 137.972C146.778 137.711 146.683 137.461 146.538 137.24C146.394 137.019 146.204 136.831 145.981 136.69C145.758 136.548 145.507 136.456 145.245 136.42C145.001 136.301 144.732 136.237 144.46 136.233C144.188 136.23 143.918 136.286 143.67 136.398C143.422 136.511 143.202 136.677 143.025 136.884C142.848 137.091 142.719 137.334 142.647 137.597C142.575 137.86 142.562 138.135 142.609 138.403C142.655 138.672 142.76 138.926 142.917 139.149C143.073 139.373 143.276 139.559 143.512 139.694C143.748 139.83 144.012 139.912 144.283 139.934C144.522 140.035 144.78 140.085 145.04 140.079C145.3 140.074 145.556 140.013 145.791 139.902C146.025 139.79 146.234 139.63 146.403 139.432C146.571 139.234 146.696 139.003 146.769 138.753Z" fill="white"/>
<path d="M156.68 135.468L156.508 136.057L150.942 142.563L150.042 142.301L155.506 135.928L151.35 134.718L150.91 136.229L150.089 135.99L150.745 133.739L156.68 135.468Z" fill="white"/>
<path d="M168.231 138.835L168.059 139.424L162.493 145.929L161.594 145.667L167.058 139.295L162.902 138.083L162.461 139.595L161.641 139.356L162.297 137.105L168.231 138.835Z" fill="white"/>
<path d="M174.484 146.982C174.067 148.412 172.595 148.949 170.667 148.387C168.727 147.822 167.81 146.589 168.227 145.158C168.356 144.698 168.638 144.295 169.026 144.017C169.415 143.738 169.887 143.6 170.364 143.626C170.023 143.398 169.766 143.065 169.631 142.678C169.495 142.291 169.489 141.87 169.612 141.479C169.995 140.163 171.354 139.669 173.062 140.167C174.77 140.666 175.675 141.818 175.292 143.134C175.182 143.532 174.947 143.884 174.62 144.136C174.294 144.389 173.894 144.529 173.481 144.534C173.901 144.769 174.228 145.138 174.411 145.583C174.593 146.027 174.619 146.521 174.484 146.982ZM173.633 146.721C173.922 145.728 173.249 144.856 171.818 144.439C170.386 144.022 169.361 144.399 169.072 145.391C168.779 146.396 169.441 147.266 170.872 147.683C172.304 148.1 173.341 147.725 173.633 146.721ZM172.009 143.78C173.268 144.147 174.184 143.801 174.44 142.923C174.705 142.012 174.069 141.225 172.857 140.871C171.633 140.515 170.698 140.844 170.436 141.744C170.177 142.633 170.751 143.413 172.009 143.78Z" fill="white"/>
<path d="M182.873 147.41C182.072 150.158 180.154 151.152 177.961 150.513C177.286 150.348 176.668 150.003 176.173 149.516L176.702 148.943C177.096 149.359 177.603 149.65 178.161 149.782C179.904 150.29 181.351 149.497 181.99 147.303C182.044 147.118 182.099 146.883 182.147 146.635C181.784 147.014 181.319 147.278 180.809 147.397C180.298 147.515 179.764 147.481 179.272 147.3C178.919 147.24 178.582 147.105 178.284 146.905C177.987 146.706 177.734 146.446 177.544 146.142C177.354 145.838 177.229 145.497 177.18 145.142C177.13 144.787 177.155 144.426 177.255 144.081C177.36 143.733 177.536 143.411 177.772 143.135C178.009 142.859 178.3 142.635 178.627 142.477C178.954 142.319 179.311 142.231 179.674 142.218C180.038 142.206 180.399 142.269 180.737 142.403C182.884 143.029 183.616 144.858 182.873 147.41ZM182.198 145.472C182.457 144.584 181.964 143.525 180.565 143.118C180.324 143.015 180.063 142.966 179.801 142.972C179.539 142.979 179.281 143.041 179.045 143.156C178.809 143.27 178.6 143.434 178.432 143.636C178.265 143.837 178.142 144.073 178.073 144.326C178.004 144.579 177.99 144.844 178.032 145.103C178.073 145.362 178.17 145.609 178.315 145.827C178.46 146.046 178.65 146.231 178.873 146.37C179.095 146.509 179.345 146.599 179.605 146.633C179.85 146.736 180.114 146.787 180.381 146.784C180.647 146.781 180.91 146.723 181.153 146.614C181.396 146.505 181.614 146.347 181.794 146.151C181.973 145.955 182.111 145.723 182.198 145.472Z" fill="white"/>
<path d="M192.223 145.825L189.868 153.907L189.037 153.664L191.177 146.324L189.272 145.768L189.487 145.029L192.223 145.825Z" fill="white"/>
<path d="M198.392 155.59L198.177 156.328L192.51 154.677L192.681 154.089L196.999 151.777C198.173 151.142 198.505 150.65 198.666 150.096C198.939 149.161 198.449 148.391 197.214 148.032C196.809 147.886 196.378 147.834 195.95 147.878C195.523 147.923 195.111 148.064 194.746 148.29L194.305 147.61C194.782 147.325 195.316 147.149 195.869 147.093C196.422 147.038 196.981 147.105 197.505 147.29C199.144 147.767 199.94 148.902 199.546 150.252C199.321 151.026 198.877 151.648 197.483 152.394L193.947 154.295L198.392 155.59Z" fill="white"/>
<path d="M206.102 156.12C205.708 157.472 204.424 158.225 202.473 157.656C201.397 157.381 200.465 156.707 199.867 155.77L200.463 155.228C200.96 156.054 201.762 156.652 202.695 156.894C204.034 157.284 204.955 156.877 205.247 155.872C205.53 154.902 205.033 154.069 203.532 153.632L202.956 153.463L203.134 152.85L206.192 150.699L202.058 149.495L202.274 148.755L207.469 150.269L207.297 150.858L204.173 153.067C205.878 153.663 206.479 154.827 206.102 156.12Z" fill="white"/>
<path d="M141.616 146.379L140.594 149.887L205.316 168.743L206.338 165.234L141.616 146.379Z" fill="#00CE99"/>
<path d="M171.102 162.57L170.079 166.08L203.274 175.751L204.296 172.242L171.102 162.57Z" fill="#00CE99"/>
<path d="M93.608 87.5652L111.233 92.7017C112.497 93.07 113.563 93.9252 114.196 95.0793C114.829 96.2334 114.978 97.5917 114.61 98.8555L111.475 109.612C111.107 110.876 110.251 111.941 109.097 112.575C107.943 113.208 106.585 113.357 105.321 112.988L87.695 107.852C86.4311 107.483 85.3654 106.628 84.7321 105.474C84.0989 104.32 83.9501 102.961 84.3184 101.698L87.4528 90.9424C87.8212 89.6783 88.6766 88.6123 89.8309 87.979C90.9853 87.3456 92.3439 87.1968 93.608 87.5652Z" fill="#00CE99"/>
<path d="M84.5654 100.846L84.9458 99.5452L98.9273 103.62C99.3118 103.733 99.7146 103.769 100.113 103.725C100.511 103.682 100.897 103.561 101.248 103.368C101.6 103.176 101.909 102.916 102.16 102.603C102.411 102.291 102.598 101.932 102.71 101.548C102.822 101.163 102.857 100.76 102.813 100.362C102.77 99.9639 102.648 99.5782 102.455 99.2271C102.262 98.876 102.002 98.5664 101.689 98.3159C101.377 98.0655 101.018 97.8791 100.633 97.7674L86.6502 93.6919L87.0306 92.3908L101.012 96.4659C101.568 96.6273 102.086 96.8966 102.538 97.2585C102.99 97.6203 103.365 98.0676 103.644 98.5748C103.923 99.082 104.098 99.6391 104.162 100.214C104.225 100.79 104.174 101.372 104.012 101.927C103.85 102.483 103.58 103.001 103.218 103.452C102.856 103.903 102.408 104.279 101.901 104.557C101.393 104.835 100.836 105.01 100.261 105.073C99.6856 105.136 99.1036 105.084 98.5482 104.922L84.5654 100.846Z" fill="white"/>
<path d="M103.549 101.081L103.169 102.382L112.763 105.188L113.144 103.887L103.549 101.081Z" fill="white"/>
<path d="M166.752 90.7741L96.9131 70.4174L95.166 76.4111L165.005 96.7679L166.752 90.7741Z" fill="#00CE99"/>
<path d="M177.717 8.46415C176.989 8.18569 176.336 7.73774 175.815 7.15734C175.294 6.57694 174.918 5.88074 174.719 5.12633C174.537 4.36739 174.564 3.5733 174.797 2.82848C175.03 2.08367 175.461 1.41599 176.043 0.896445C176.642 0.396039 177.379 0.0892656 178.156 0.0166991C178.934 -0.0558674 179.715 0.109189 180.396 0.490042C181.447 1.22076 182.212 2.29407 182.559 3.52634C182.884 4.31275 182.975 5.17647 182.821 6.01334C182.621 6.61697 182.268 7.15827 181.796 7.5839C181.324 8.00953 180.749 8.30481 180.128 8.44063C178.884 8.69683 177.604 8.73117 176.348 8.54204" fill="#263238"/>
<path d="M203.491 26.2862C203.603 25.8592 203.623 25.4134 203.551 24.9778C203.438 24.4796 203.198 24.0191 202.854 23.6409C202.387 23.1531 201.79 22.8093 201.134 22.65C200.326 22.453 199.491 22.3935 198.664 22.4738C197.76 22.5319 196.787 22.6931 195.728 22.7173C194.591 22.7867 193.459 22.5183 192.474 21.9459C191.491 21.2049 190.802 20.1398 190.529 18.9392C189.871 16.8234 188.781 14.8673 187.327 13.195C186.14 11.8294 184.741 10.6623 183.185 9.73765C181.717 8.9303 180.168 8.28102 178.562 7.80074C178.566 7.78254 178.687 7.79225 178.916 7.82745C179.251 7.87418 179.582 7.9416 179.908 8.02934C181.118 8.33699 182.283 8.80064 183.373 9.40864C184.999 10.3109 186.461 11.4809 187.698 12.8693C189.219 14.575 190.357 16.5859 191.036 18.7674C191.272 19.8538 191.882 20.8228 192.759 21.5056C193.656 22.0273 194.685 22.2768 195.722 22.2238C196.732 22.2149 197.707 22.0715 198.638 22.0303C199.513 21.9645 200.393 22.0511 201.239 22.2863C201.953 22.4838 202.594 22.8868 203.081 23.4452C203.438 23.8736 203.671 24.391 203.757 24.942C203.809 25.2877 203.777 25.6409 203.664 25.9716C203.584 26.1948 203.502 26.2922 203.491 26.2862Z" fill="#263238"/>
<path d="M185.018 32.0345C185.051 31.9846 185.501 32.3663 185.493 33.2299C185.487 33.4823 185.43 33.7308 185.326 33.9609C185.222 34.1911 185.073 34.3981 184.888 34.57C184.662 34.7878 184.387 34.9497 184.087 35.0429C183.786 35.1362 183.468 35.1581 183.158 35.1072C182.848 35.0562 182.553 34.9337 182.298 34.7493C182.044 34.5649 181.835 34.3237 181.69 34.0448C181.57 33.8228 181.495 33.579 181.47 33.3278C181.445 33.0765 181.471 32.8228 181.545 32.5815C181.814 31.761 182.363 31.5432 182.378 31.601C182.438 31.6624 182.039 31.977 181.914 32.6705C181.841 33.0597 181.914 33.4619 182.119 33.8007C182.237 34.0056 182.4 34.1816 182.595 34.3161C182.789 34.4505 183.011 34.5402 183.245 34.5785C183.478 34.6169 183.717 34.6029 183.945 34.5377C184.172 34.4726 184.382 34.3577 184.56 34.2015C184.862 33.946 185.06 33.5883 185.116 33.1965C185.133 32.8066 185.1 32.4162 185.018 32.0345Z" fill="#E0E0E0"/>
<path d="M182.428 9.72365C180.283 7.59311 177.552 6.14874 174.584 5.57425C176.141 5.51195 177.687 5.86305 179.065 6.59186C180.443 7.32066 181.603 8.40119 182.428 9.72365Z" fill="#E8505B"/>
<path d="M186.16 30.8094C186.159 30.7397 186.442 30.7161 186.622 31.0466C186.672 31.1442 186.699 31.2519 186.701 31.3616C186.703 31.4712 186.679 31.5798 186.632 31.6788C186.566 31.8028 186.469 31.9069 186.349 31.9801C186.23 32.0534 186.093 32.0931 185.953 32.095C185.834 32.1023 185.715 32.0834 185.604 32.0396C185.493 31.9959 185.394 31.9283 185.312 31.8417C185.23 31.7552 185.168 31.6517 185.131 31.5386C185.094 31.4256 185.081 31.3057 185.096 31.1875C185.141 30.85 185.337 30.7307 185.388 30.7726C185.454 30.8131 185.418 30.9748 185.474 31.1756C185.491 31.2841 185.547 31.3827 185.632 31.4533C185.716 31.5239 185.823 31.5616 185.933 31.5596C185.982 31.5617 186.031 31.5527 186.076 31.5332C186.121 31.5137 186.161 31.4842 186.193 31.4471C186.225 31.4099 186.248 31.3659 186.26 31.3185C186.273 31.2711 186.274 31.2215 186.265 31.1734C186.255 30.9846 186.139 30.8823 186.16 30.8094Z" fill="#E0E0E0"/>
<path d="M179.317 50.7238C179.419 51.074 179.457 51.44 179.428 51.8037C179.409 52.8004 179.211 53.7856 178.845 54.7128C178.299 56.1023 177.413 57.3325 176.268 58.2908C174.834 59.4455 173.075 60.1253 171.237 60.2362C169.399 60.3471 167.572 59.8835 166.009 58.9097C164.757 58.0959 163.729 56.981 163.02 55.6671C162.545 54.7907 162.231 53.8364 162.092 52.8493C162.019 52.4918 162.013 52.1239 162.073 51.764C162.288 53.0659 162.72 54.3224 163.35 55.4813C164.07 56.7038 165.072 57.7362 166.272 58.4921C167.756 59.3841 169.476 59.8057 171.205 59.7014C172.933 59.5971 174.59 58.9719 175.957 57.908C177.057 57.0134 177.928 55.868 178.495 54.5679C178.982 53.3416 179.26 52.0422 179.317 50.7238Z" fill="#455A64"/>
<path d="M177.219 279.893C177.188 279.807 177.169 279.716 177.161 279.624C177.13 279.414 177.091 279.151 177.043 278.827C176.945 278.084 176.81 277.057 176.64 275.755C176.298 273.087 175.842 269.221 175.313 264.44C174.25 254.879 172.94 241.652 171.762 227.021C170.588 212.385 169.769 199.118 169.293 189.51C169.052 184.706 168.884 180.817 168.796 178.128C168.756 176.816 168.725 175.781 168.703 175.032C168.699 174.704 168.695 174.439 168.692 174.227C168.658 174.221 168.628 174.203 168.606 174.177C168.584 174.15 168.573 174.116 168.575 174.082C168.577 174.048 168.592 174.015 168.616 173.991C168.641 173.967 168.673 173.953 168.708 173.951C168.742 173.95 168.776 173.961 168.802 173.983C168.829 174.005 168.846 174.036 168.851 174.07C168.856 174.104 168.848 174.138 168.829 174.167C168.81 174.196 168.781 174.216 168.747 174.224C168.764 174.436 168.785 174.7 168.811 175.027C168.857 175.775 168.922 176.809 169.004 178.118C169.164 180.846 169.391 184.72 169.671 189.489C170.244 199.089 171.123 212.347 172.296 226.978C173.474 241.604 174.723 254.831 175.69 264.4C176.175 269.153 176.569 273.013 176.847 275.732C176.975 277.038 177.077 278.068 177.15 278.814C177.177 279.141 177.198 279.406 177.215 279.618C177.229 279.709 177.23 279.802 177.219 279.893Z" fill="#263238"/>
<path d="M193.539 279.965C193.174 280.063 192.798 280.115 192.42 280.121C191.699 280.188 190.652 280.256 189.358 280.318C186.77 280.444 183.189 280.503 179.238 280.442C175.285 280.385 171.712 280.261 169.125 280.162C167.925 280.105 166.904 280.057 166.063 280.018C165.686 280.023 165.309 279.981 164.941 279.893C165.312 279.819 165.69 279.791 166.067 279.809C166.791 279.789 167.839 279.781 169.133 279.783C171.722 279.785 175.298 279.85 179.245 279.907C183.191 279.967 186.762 279.968 189.347 279.939C190.549 279.929 191.57 279.92 192.411 279.913C192.788 279.884 193.166 279.901 193.539 279.965Z" fill="#263238"/>
<path d="M199.231 84.6365L182.078 73.355C182.078 73.355 173.691 97.5173 171.12 97.7515C156.879 99.0505 141.641 94.3285 136.298 92.4619C135.756 91.8529 135.137 91.1216 134.446 90.2265C133.857 89.456 133.404 88.5906 133.106 87.6675C132.69 86.5358 132.434 85.3517 132.344 84.1492C132.366 83.9178 132.316 83.6851 132.201 83.4835C132.085 83.2819 131.909 83.1215 131.698 83.0246C131.486 82.9277 131.25 82.8992 131.022 82.943C130.793 82.9869 130.584 83.1009 130.424 83.2691C129.807 84.0657 129.65 87.1179 131.056 90.4013C132.461 93.6836 127.486 91.0724 125.656 90.1531C123.825 89.2338 118.029 86.6559 117.301 86.9944C116.233 87.4918 116.568 88.7274 118.418 89.6025C120.29 90.4887 125.627 93.4938 125.095 94.4372C124.571 95.3665 115.317 90.56 115.317 90.56C115.317 90.56 113.506 89.2127 112.855 90.2817C111.68 92.2107 121.894 96.5961 122.876 96.9889C123.559 97.2621 123.017 98.308 122.3 97.9755C121.561 97.6329 113.181 92.9663 111.967 94.9193C111.035 96.4173 120.335 98.6044 121.535 100.537C122.736 102.471 114.651 98.1623 113.82 99.6302C113.511 100.177 113.355 100.627 118.355 102.431C122.016 103.58 125.736 104.53 129.499 105.277L129.481 105.328C129.481 105.328 180.541 128.185 190.199 106.132C200.484 82.6482 199.231 84.6365 199.231 84.6365Z" fill="#E5BAAB"/>
<path d="M187.957 51.6063C187.957 51.6063 203.562 53.4472 201.912 72.0023C200.864 83.4778 197.638 94.6483 192.406 104.915L171.951 94.1743C176.551 84.9814 180.015 75.2632 182.267 65.2337L187.957 51.6063Z" fill="#3EC9DC"/>
<path d="M188.299 51.6601C188.335 51.7847 186.602 52.2473 183.999 52.4277L184.189 52.0648C184.782 53.0284 185.428 54.0789 186.113 55.1925C186.538 55.9033 186.947 56.5886 187.332 57.2337L187.625 57.724L187.068 57.6177C185.22 57.3421 183.357 57.1858 181.49 57.1497C182 56.9702 182.537 56.8825 183.077 56.8907C184.441 56.8062 185.812 56.8813 187.159 57.1144L186.895 57.4984C186.503 56.8579 186.087 56.1775 185.656 55.4716C184.99 54.348 184.361 53.2878 183.784 52.3154L183.579 51.9689L183.974 51.9524C185.26 51.8991 186.343 51.8172 187.097 51.7468C187.494 51.6761 187.897 51.647 188.299 51.6601Z" fill="#455A64"/>
<path d="M197.478 59.5888C197.464 59.6758 196.027 59.3228 193.539 59.2628L193.703 59.0708C194.294 61.4188 195.08 64.5398 195.985 68.1374L196.091 68.5577L195.678 68.4442C193.704 67.9023 191.557 67.313 189.319 66.6984C188.734 66.5358 188.156 66.3753 187.585 66.2167L187.927 65.9499C188.068 69.3988 188.199 72.5954 188.311 75.3448L188.323 75.6479L188.043 75.5694C185.578 74.8788 183.503 74.2977 181.938 73.8593C181.27 73.6581 180.712 73.49 180.249 73.3506C180.045 73.3041 179.849 73.229 179.666 73.1275C179.876 73.1301 180.084 73.1619 180.285 73.222C180.755 73.3292 181.323 73.4586 182.002 73.6132C183.575 74.0037 185.659 74.5214 188.136 75.1363L187.868 75.3607C187.73 72.6131 187.568 69.4188 187.394 65.9724L187.376 65.6055L187.737 65.7053C188.306 65.8625 188.882 66.022 189.468 66.1836C191.698 66.8069 193.836 67.4048 195.802 67.9543L195.495 68.2609C194.66 64.6397 193.935 61.4983 193.389 59.1352L193.342 58.9308L193.553 58.943C194.531 58.9933 195.505 59.1174 196.464 59.3142C196.812 59.3644 197.153 59.4567 197.478 59.5888Z" fill="#455A64"/>
<path d="M198.742 84.9404C198.452 84.7436 198.205 84.4905 198.016 84.1961C197.593 83.662 197.141 82.7812 196.473 81.7623L196.749 81.752C195.13 84.91 193.235 87.9195 191.089 90.746L190.884 91.016L190.677 90.7468C189.717 89.4962 188.692 88.1608 187.634 86.7823C186.847 85.7511 186.079 84.7438 185.336 83.7704L185.719 83.8077C184.422 84.9394 183.187 86.0173 182.034 87.0235C181.461 87.5206 180.909 87.9989 180.379 88.4583C180.115 88.6857 179.858 88.908 179.606 89.1251L179.235 89.4449L179.144 89.5235L179.097 89.5639L179.05 89.5997C179.031 89.6129 179.009 89.6228 178.986 89.629C178.953 89.7125 178.656 89.5041 178.73 89.4102C178.74 89.3487 178.735 89.3869 178.738 89.3704L178.746 89.349L178.76 89.32C178.766 89.3099 178.76 89.3087 178.757 89.345C178.74 89.392 178.827 89.5123 178.861 89.5028C178.915 89.5131 178.867 89.506 178.85 89.5117L178.679 89.5672L178.621 89.3758C178.022 87.4066 177.597 85.793 177.363 84.6588C177.189 84.0796 177.124 83.4731 177.171 82.8701C177.208 82.872 177.268 83.4989 177.581 84.6071C177.879 85.7154 178.361 87.3088 179.003 89.2526L178.775 89.1168C178.848 89.099 178.924 89.1006 178.997 89.1214C179.047 89.1397 179.09 89.1732 179.119 89.2173C179.149 89.2614 179.165 89.3137 179.163 89.3669C179.159 89.4148 179.146 89.4613 179.123 89.5037C179.102 89.4921 179.162 89.5484 179.074 89.481C179.028 89.4602 178.981 89.442 178.933 89.4265C178.921 89.389 178.902 89.3546 178.875 89.3259C178.857 89.3019 178.856 89.3189 178.818 89.2646L178.819 89.2633L178.822 89.2605L178.83 89.254L178.873 89.2155L178.962 89.1351L179.326 88.8072C179.573 88.5851 179.826 88.3578 180.085 88.1251C180.607 87.6578 181.151 87.1707 181.717 86.6638C182.86 85.6467 184.085 84.5574 185.371 83.4136L185.582 83.2264L185.754 83.4511C186.499 84.4225 187.27 85.4277 188.059 86.4568C189.112 87.8391 190.133 89.1784 191.088 90.4324L190.676 90.4331C192.822 87.6357 194.758 84.6831 196.467 81.5997L196.603 81.3565L196.744 81.5893C197.389 82.6576 197.788 83.5469 198.157 84.0978C198.514 84.6556 198.768 84.915 198.742 84.9404Z" fill="#455A64"/>
<path d="M181.069 70.6813C181.057 71.0118 180.999 71.339 180.895 71.6532C180.752 72.2703 180.516 73.1554 180.2 74.2424C179.569 76.4168 178.591 79.3915 177.326 82.6081C176.058 85.8249 174.747 88.6689 173.726 90.6894C173.216 91.7002 172.786 92.5091 172.47 93.0581C172.332 93.3584 172.151 93.6375 171.935 93.8872C172.349 92.7384 172.833 91.616 173.384 90.5264C174.314 88.4698 175.565 85.6147 176.828 82.4119C178.087 79.2091 179.117 76.2677 179.838 74.1288C180.177 72.9556 180.588 71.8043 181.069 70.6813Z" fill="#455A64"/>
<path d="M188.299 51.6601C188.335 51.7847 186.602 52.2473 183.999 52.4277L184.189 52.0648C184.782 53.0284 185.428 54.0789 186.113 55.1925C186.538 55.9033 186.947 56.5886 187.332 57.2337L187.625 57.724L187.068 57.6177C185.22 57.3421 183.357 57.1858 181.49 57.1497C182 56.9702 182.537 56.8825 183.077 56.8907C184.441 56.8062 185.812 56.8813 187.159 57.1144L186.895 57.4984C186.503 56.8579 186.087 56.1775 185.656 55.4716C184.99 54.348 184.361 53.2878 183.784 52.3154L183.579 51.9689L183.974 51.9524C185.26 51.8991 186.343 51.8172 187.097 51.7468C187.494 51.6761 187.897 51.647 188.299 51.6601Z" fill="#455A64"/>
<path d="M197.478 59.5888C197.464 59.6758 196.027 59.3228 193.539 59.2628L193.703 59.0708C194.294 61.4188 195.08 64.5398 195.985 68.1374L196.091 68.5577L195.678 68.4442C193.704 67.9023 191.557 67.313 189.319 66.6984C188.734 66.5358 188.156 66.3753 187.585 66.2167L187.927 65.9499C188.068 69.3988 188.199 72.5954 188.311 75.3448L188.323 75.6479L188.043 75.5694C185.578 74.8788 183.503 74.2977 181.938 73.8593C181.27 73.6581 180.712 73.49 180.249 73.3506C180.045 73.3041 179.849 73.229 179.666 73.1275C179.876 73.1301 180.084 73.1619 180.285 73.222C180.755 73.3292 181.323 73.4586 182.002 73.6132C183.575 74.0037 185.659 74.5214 188.136 75.1363L187.868 75.3607C187.73 72.6131 187.568 69.4188 187.394 65.9724L187.376 65.6055L187.737 65.7053C188.306 65.8625 188.882 66.022 189.468 66.1836C191.698 66.8069 193.836 67.4048 195.802 67.9543L195.495 68.2609C194.66 64.6397 193.935 61.4983 193.389 59.1352L193.342 58.9308L193.553 58.943C194.531 58.9933 195.505 59.1174 196.464 59.3142C196.812 59.3644 197.153 59.4567 197.478 59.5888Z" fill="#455A64"/>
<path d="M198.742 84.9404C198.452 84.7436 198.205 84.4905 198.016 84.1961C197.593 83.662 197.141 82.7812 196.473 81.7623L196.749 81.752C195.13 84.91 193.235 87.9195 191.089 90.746L190.884 91.016L190.677 90.7468C189.717 89.4962 188.692 88.1608 187.634 86.7823C186.847 85.7511 186.079 84.7438 185.336 83.7704L185.719 83.8077C184.422 84.9394 183.187 86.0173 182.034 87.0235C181.461 87.5206 180.909 87.9989 180.379 88.4583C180.115 88.6857 179.858 88.908 179.606 89.1251L179.235 89.4449L179.144 89.5235L179.097 89.5639L179.05 89.5997C179.031 89.6129 179.009 89.6228 178.986 89.629C178.953 89.7125 178.656 89.5041 178.73 89.4102C178.74 89.3487 178.735 89.3869 178.738 89.3704L178.746 89.349L178.76 89.32C178.766 89.3099 178.76 89.3087 178.757 89.345C178.74 89.392 178.827 89.5123 178.861 89.5028C178.915 89.5131 178.867 89.506 178.85 89.5117L178.679 89.5672L178.621 89.3758C178.022 87.4066 177.597 85.793 177.363 84.6588C177.189 84.0796 177.124 83.4731 177.171 82.8701C177.208 82.872 177.268 83.4989 177.581 84.6071C177.879 85.7154 178.361 87.3088 179.003 89.2526L178.775 89.1168C178.848 89.099 178.924 89.1006 178.997 89.1214C179.047 89.1397 179.09 89.1732 179.119 89.2173C179.149 89.2614 179.165 89.3137 179.163 89.3669C179.159 89.4148 179.146 89.4613 179.123 89.5037C179.102 89.4921 179.162 89.5484 179.074 89.481C179.028 89.4602 178.981 89.442 178.933 89.4265C178.921 89.389 178.902 89.3546 178.875 89.3259C178.857 89.3019 178.856 89.3189 178.818 89.2646L178.819 89.2633L178.822 89.2605L178.83 89.254L178.873 89.2155L178.962 89.1351L179.326 88.8072C179.573 88.5851 179.826 88.3578 180.085 88.1251C180.607 87.6578 181.151 87.1707 181.717 86.6638C182.86 85.6467 184.085 84.5574 185.371 83.4136L185.582 83.2264L185.754 83.4511C186.499 84.4225 187.27 85.4277 188.059 86.4568C189.112 87.8391 190.133 89.1784 191.088 90.4324L190.676 90.4331C192.822 87.6357 194.758 84.6831 196.467 81.5997L196.603 81.3565L196.744 81.5893C197.389 82.6576 197.788 83.5469 198.157 84.0978C198.514 84.6556 198.768 84.915 198.742 84.9404Z" fill="#455A64"/>
<path d="M181.069 70.6813C181.057 71.0118 180.999 71.339 180.895 71.6532C180.752 72.2703 180.516 73.1554 180.2 74.2424C179.569 76.4168 178.591 79.3915 177.326 82.6081C176.058 85.8249 174.747 88.6689 173.726 90.6894C173.216 91.7002 172.786 92.5091 172.47 93.0581C172.332 93.3584 172.151 93.6375 171.935 93.8872C172.349 92.7384 172.833 91.616 173.384 90.5264C174.314 88.4698 175.565 85.6147 176.828 82.4119C178.087 79.2091 179.117 76.2677 179.838 74.1288C180.177 72.9556 180.588 71.8043 181.069 70.6813Z" fill="#455A64"/>
<path d="M101.986 270.769C111.229 264.311 113.327 252.324 112.961 241.549C112.9 239.75 113.098 237.854 112.242 236.276C111.386 234.698 109.39 233.619 107.78 234.377C106.444 235.006 105.862 236.56 105.114 237.845C104.116 239.558 102.654 240.955 100.896 241.874C99.7508 242.468 98.3337 242.831 97.203 242.208C95.6516 241.352 95.4688 239.209 95.4798 237.419C95.5009 234.085 95.5217 230.751 95.5423 227.417C95.5535 225.629 95.5588 223.802 95.0025 222.104C94.4461 220.406 93.2167 218.829 91.5151 218.352C89.8129 217.876 87.7087 218.857 87.3494 220.608C87.2824 221.348 87.2654 222.093 87.2985 222.835C87.2489 223.578 86.9029 224.4 86.1976 224.607C85.4836 224.816 84.7678 224.309 84.2331 223.786C82.3866 221.979 81.1337 219.653 79.9628 217.339C78.7918 215.025 77.6552 212.656 75.9799 210.686C74.3045 208.716 71.9871 207.154 69.4254 207.009C66.8631 206.864 64.1337 208.445 63.4862 210.96C62.837 213.482 64.3084 216.041 65.9095 218.083C68.2844 221.111 71.0847 223.781 74.2234 226.008C74.834 226.346 75.3211 226.87 75.6141 227.503C76.0027 228.696 74.8726 229.88 73.6952 230.272C72.3617 230.716 70.9149 230.578 69.5201 230.742C68.1253 230.906 66.6141 231.522 66.0865 232.84C65.3538 234.668 66.8829 236.585 68.3877 237.84C71.4019 240.354 74.8264 242.331 78.5112 243.684C79.8272 244.165 81.2121 244.588 82.2732 245.512C83.3344 246.437 83.9748 248.045 83.3338 249.305C82.6922 250.566 81.0467 250.969 79.6682 250.713C78.2904 250.458 77.0563 249.71 75.7427 249.214C73.2844 248.286 70.1096 248.456 68.5349 250.58C67.5 251.977 67.4088 253.922 67.9324 255.586C68.5315 257.227 69.4536 258.73 70.6443 260.007C74.5402 264.687 79.6085 268.249 85.3317 270.329C91.0342 272.307 96.3184 272.842 101.986 270.769Z" fill="#5351FD"/>
<path d="M66.0703 208.507C66.1225 208.569 66.1807 208.626 66.2439 208.677C66.3758 208.795 66.5518 208.951 66.775 209.151C67.2436 209.564 67.9343 210.176 68.8026 210.986C71.2612 213.271 73.5452 215.736 75.6353 218.361C76.9665 220.019 78.3496 221.897 79.7982 223.939C81.2432 225.984 82.7736 228.18 84.2958 230.548C85.9049 233.014 87.3783 235.567 88.7093 238.193C89.3988 239.561 90.0135 240.992 90.6411 242.451C91.2652 243.909 91.8978 245.388 92.539 246.887C94.9832 252.502 97.1116 258.249 98.9141 264.102C100.365 268.891 101.363 273.805 101.895 278.78C102.243 282.137 102.299 285.518 102.063 288.884C101.97 290.075 101.879 290.999 101.794 291.623C101.76 291.922 101.732 292.158 101.712 292.334C101.699 292.415 101.693 292.497 101.694 292.579C101.719 292.501 101.736 292.421 101.745 292.339C101.773 292.164 101.812 291.93 101.86 291.632C101.966 291.011 102.078 290.087 102.191 288.895C102.477 285.521 102.455 282.128 102.127 278.758C101.626 273.761 100.647 268.824 99.204 264.014C97.4152 258.145 95.2907 252.382 92.8411 246.756C92.1996 245.258 91.5662 243.779 90.9409 242.318C90.3138 240.863 89.6921 239.42 88.9967 238.046C87.6568 235.411 86.1719 232.852 84.5488 230.38C83.0161 228.01 81.4751 225.817 80.0196 223.777C78.5588 221.739 77.1616 219.866 75.8153 218.212C73.7038 215.592 71.3874 213.144 68.888 210.891C68.0056 210.093 67.3009 209.497 66.8177 209.099C66.5851 208.911 66.4028 208.762 66.2655 208.651C66.2049 208.597 66.1396 208.549 66.0703 208.507Z" fill="#263238"/>
<path d="M88.9026 238.033C88.9883 237.786 89.0469 237.53 89.0774 237.27C89.1714 236.776 89.2837 236.057 89.4093 235.166C89.6623 233.384 89.9276 230.913 90.2098 228.187C90.4921 225.459 90.7918 222.998 91.0711 221.226C91.2084 220.34 91.3265 219.623 91.4147 219.129C91.4763 218.874 91.5098 218.614 91.5147 218.352C91.4123 218.593 91.3369 218.845 91.2897 219.102C91.1629 219.589 91.0092 220.301 90.8426 221.186C90.5032 222.954 90.1654 225.421 89.8832 228.151C89.6115 230.842 89.366 233.276 89.1784 235.136C89.0885 235.976 89.0119 236.684 88.9506 237.252C88.906 237.51 88.8899 237.772 88.9026 238.033Z" fill="#263238"/>
<path d="M65.9033 233.735C66.205 233.8 66.5122 233.837 66.8207 233.845C67.4109 233.897 68.2652 233.969 69.3176 234.091C71.4242 234.318 74.3231 234.734 77.5013 235.333C80.6794 235.938 83.5322 236.608 85.5814 237.152C86.6087 237.416 87.4338 237.653 88.0053 237.813C88.2969 237.914 88.5974 237.988 88.9028 238.033C88.6278 237.892 88.34 237.777 88.0433 237.689C87.4823 237.491 86.6648 237.219 85.6428 236.924C83.6035 236.321 80.749 235.612 77.5615 235.005C74.8423 234.482 72.0982 234.099 69.3398 233.857C68.2809 233.764 67.4214 233.728 66.8272 233.716C66.5193 233.693 66.21 233.699 65.9033 233.735Z" fill="#263238"/>
<path d="M98.9209 263.591C98.986 263.505 99.0391 263.411 99.0786 263.311C99.185 263.086 99.3147 262.811 99.4719 262.479C99.8102 261.755 100.273 260.694 100.826 259.376C101.936 256.742 103.354 253.054 104.864 248.963C106.375 244.871 107.757 241.175 108.81 238.521C109.326 237.231 109.751 236.17 110.066 235.381C110.201 235.039 110.313 234.757 110.404 234.524C110.45 234.427 110.483 234.323 110.501 234.217C110.436 234.303 110.383 234.397 110.343 234.498C110.237 234.723 110.107 234.997 109.95 235.329C109.611 236.053 109.149 237.114 108.595 238.431C107.485 241.066 106.067 244.754 104.557 248.846C103.046 252.937 101.664 256.632 100.611 259.287C100.095 260.577 99.6706 261.638 99.3551 262.427C99.2201 262.769 99.109 263.052 99.0179 263.283C98.9717 263.381 98.9391 263.485 98.9209 263.591Z" fill="#263238"/>
<path d="M68.3584 253.741C68.4535 253.796 68.5555 253.838 68.6617 253.866C68.9007 253.946 69.1941 254.044 69.5493 254.163C70.3692 254.429 71.4759 254.788 72.8222 255.224C75.5855 256.12 79.3878 257.402 83.5874 258.824C87.7882 260.246 91.6063 261.494 94.389 262.333C95.7802 262.753 96.9092 263.082 97.6939 263.293C98.0568 263.388 98.356 263.466 98.599 263.53C98.7031 263.565 98.8114 263.586 98.921 263.591C98.8259 263.536 98.7239 263.494 98.6177 263.466C98.3793 263.386 98.086 263.288 97.7301 263.169C96.9103 262.903 95.8042 262.545 94.4578 262.108C91.6945 261.212 87.8917 259.93 83.6908 258.508C79.4912 257.086 75.6737 255.838 72.8911 254.999C71.4998 254.579 70.3709 254.251 69.5855 254.04C69.2227 253.944 68.9241 253.865 68.6803 253.802C68.5763 253.767 68.468 253.746 68.3584 253.741Z" fill="#263238"/>
<circle cx="278" cy="108" r="5" fill="#5351FD"/>
<circle cx="334" cy="132" r="3" fill="#5351FD"/>
<circle cx="294" cy="179" r="3" fill="#5351FD"/>
<rect x="33" y="292" width="310" height="1" fill="#5337ED"/>
</svg>
