<svg width="188" height="174" viewBox="0 0 188 174" fill="none" xmlns="http://www.w3.org/2000/svg">
<path d="M182.225 79.2852C160.225 69.6852 144.058 35.9518 138.725 20.2852C124.225 -4.71483 86.725 -3.71483 68.225 7.78517C33.725 31.2852 7.225 76.2852 12.725 113.785C25.225 159.785 90.725 188.285 143.225 165.285C195.725 142.285 190.225 99.7852 182.225 79.2852Z" fill="#F5F3FD"/>
<circle cx="26" cy="154" r="4" fill="#FCE9AD"/>
<circle cx="37" cy="20" r="2" fill="#FFC8B5"/>
<circle cx="165.5" cy="114.5" r="2.5" fill="#A5E7DC"/>
<g filter="url(#filter0_d_2_2094)">
<circle cx="21" cy="129" r="11" fill="#00CACE"/>
</g>
<g clip-path="url(#clip0_2_2094)">
<path d="M19.8335 129.583C20.084 129.918 20.4036 130.195 20.7707 130.396C21.1377 130.596 21.5435 130.716 21.9607 130.746C22.3779 130.775 22.7966 130.715 23.1884 130.569C23.5803 130.423 23.9361 130.194 24.2318 129.898L25.9818 128.148C26.5131 127.598 26.8071 126.861 26.8005 126.097C26.7938 125.332 26.4871 124.6 25.9463 124.06C25.4055 123.519 24.674 123.212 23.9092 123.206C23.1445 123.199 22.4078 123.493 21.8577 124.024L20.8543 125.022" stroke="white" stroke-linecap="round" stroke-linejoin="round"/>
<path d="M22.1668 128.417C21.9163 128.082 21.5967 127.805 21.2296 127.604C20.8626 127.404 20.4567 127.284 20.0396 127.254C19.6224 127.225 19.2037 127.285 18.8118 127.431C18.42 127.577 18.0641 127.806 17.7684 128.102L16.0184 129.852C15.4872 130.402 15.1932 131.139 15.1998 131.903C15.2065 132.668 15.5132 133.4 16.054 133.94C16.5948 134.481 17.3263 134.788 18.091 134.794C18.8558 134.801 19.5925 134.507 20.1426 133.976L21.1401 132.978" stroke="white" stroke-linecap="round" stroke-linejoin="round"/>
</g>
<g filter="url(#filter1_d_2_2094)">
<circle cx="148.5" cy="35.5" r="17.5" fill="#00CACE"/>
</g>
<g clip-path="url(#clip1_2_2094)">
<path d="M147.5 36.75C147.822 37.1806 148.233 37.5369 148.705 37.7947C149.177 38.0525 149.699 38.2058 150.235 38.2443C150.771 38.2827 151.31 38.2053 151.814 38.0173C152.317 37.8294 152.775 37.5353 153.155 37.155L155.405 34.905C156.088 34.1977 156.466 33.2505 156.458 32.2672C156.449 31.284 156.055 30.3435 155.359 29.6482C154.664 28.9529 153.723 28.5585 152.74 28.55C151.757 28.5414 150.81 28.9194 150.103 29.6025L148.813 30.885" stroke="white" stroke-width="2" stroke-linecap="round" stroke-linejoin="round"/>
<path d="M150.5 35.25C150.178 34.8194 149.767 34.4631 149.295 34.2053C148.823 33.9475 148.302 33.7942 147.765 33.7558C147.229 33.7173 146.69 33.7947 146.187 33.9827C145.683 34.1706 145.225 34.4647 144.845 34.845L142.595 37.095C141.912 37.8023 141.534 38.7495 141.543 39.7328C141.551 40.716 141.946 41.6565 142.641 42.3518C143.336 43.0471 144.277 43.4415 145.26 43.45C146.243 43.4586 147.19 43.0806 147.898 42.3975L149.18 41.115" stroke="white" stroke-width="2" stroke-linecap="round" stroke-linejoin="round"/>
</g>
<path d="M145.567 78.7482L71.9947 36.2709C71.7789 36.1176 71.5256 36.0255 71.2617 36.0046C70.9977 35.9837 70.7331 36.0346 70.4958 36.1521L70.4961 36.1486L69.4023 36.7869C69.4023 36.7869 69.6547 36.8231 69.9087 36.858C69.763 37.2225 69.6923 37.6127 69.7007 38.0052V88.696C69.7007 90.3853 70.7277 92.3476 71.9947 93.0791L145.567 135.556C145.696 135.631 145.832 135.692 145.974 135.74V136.315L147.073 135.675L147.067 135.675C147.349 135.462 147.571 135.179 147.711 134.854C147.85 134.529 147.902 134.173 147.861 133.822V83.1312C147.861 81.442 146.834 79.4796 145.567 78.7482Z" fill="white"/>
<path d="M144.501 136.178L70.9282 93.701C69.6613 92.9696 68.6343 91.0072 68.6343 89.3179V38.6271C68.6343 36.9378 69.6613 36.1614 70.9282 36.8928L144.501 79.3701C145.768 80.1015 146.795 82.0639 146.795 83.7531V134.444C146.795 136.133 145.768 136.91 144.501 136.178Z" fill="url(#paint0_linear_2_2094)"/>
<path d="M122.563 82.0017V74.7662L124.097 75.6522C124.366 75.804 124.619 75.9802 124.855 76.1787C125.071 76.3638 125.265 76.5749 125.43 76.8071C125.6 77.0483 125.728 77.3166 125.809 77.6005C125.897 77.912 125.939 78.2346 125.934 78.5581C125.932 79.4505 125.624 79.772 125.012 79.5227C125.367 79.7988 125.651 80.1554 125.842 80.5631C126.033 81.0019 126.128 81.477 126.119 81.9557C126.122 82.6439 125.973 83.0797 125.674 83.2631C125.373 83.446 124.936 83.3717 124.362 83.0403L122.563 82.0017ZM123.704 78.3752L124.06 78.5806C124.395 78.7734 124.626 78.8236 124.751 78.7311C124.877 78.6378 124.94 78.3947 124.94 78.0019C124.943 77.8228 124.922 77.644 124.878 77.4705C124.837 77.3216 124.766 77.183 124.668 77.0635C124.572 76.9456 124.463 76.8399 124.341 76.7486C124.188 76.6374 124.028 76.5348 123.863 76.4413L123.704 76.3504V78.3752ZM123.704 81.7311L124.124 81.9731C124.464 82.1698 124.7 82.2141 124.83 82.1063C124.962 81.9992 125.027 81.7346 125.027 81.3123C125.041 80.9407 124.965 80.5712 124.806 80.2352C124.633 79.9281 124.375 79.6772 124.063 79.5121L123.704 79.3049V81.7311Z" fill="white"/>
<path d="M126.527 84.2904L127.801 77.7903L128.991 78.4773L130.261 86.4465L129.199 85.8336L128.946 84.0067L127.861 83.3807L127.604 84.9127L126.527 84.2904ZM127.982 82.5904L128.821 83.0752L128.402 79.8612L127.982 82.5904Z" fill="white"/>
<path d="M130.878 86.8025V79.5668L131.664 80.0205L133.198 85.0048V80.9066L134.143 81.4516V88.6873L133.395 88.2555L131.845 83.0534V87.3607L130.878 86.8025Z" fill="white"/>
<path d="M135.081 89.2286V81.9931L136.222 82.6526V85.7944L137.454 83.3632L138.542 83.9917L137.344 86.5386L138.667 91.2995L137.529 90.6424L136.449 86.6152L136.222 86.955V89.8883L135.081 89.2286Z" fill="white"/>
<path d="M88.9486 93.5912L74.9819 85.5275V83.6612L88.9486 91.7248V93.5912Z" fill="white"/>
<path d="M106.115 103.502L92.1484 95.439V93.5727L106.115 101.636V103.502Z" fill="white"/>
<path d="M123.281 113.414L109.315 105.35V103.484L123.281 111.547V113.414Z" fill="white"/>
<path d="M140.448 123.324L126.482 115.261V113.395L140.448 121.458V123.324Z" fill="white"/>
<path d="M85.1818 56.837L68.6343 55.4982V89.3179C68.6343 91.0072 69.6613 92.9696 70.9282 93.7011L102.765 112.082C110.993 100.422 109.134 82.5567 109.134 82.5567L85.1818 56.837Z" fill="#8A65E7"/>
<path d="M103.474 86.503L79.5217 60.7834L55.5697 58.8457C55.5697 58.8457 51.7203 91.3152 79.5217 125.754C107.323 123.418 103.474 86.503 103.474 86.503Z" fill="white"/>
<path d="M55.5705 58.8457L50.1812 61.9571L74.1332 63.8948L79.5226 60.7834L55.5705 58.8457Z" fill="#8A65E7"/>
<path d="M98.085 89.6144L74.1331 63.8947L64.2845 62.8994L50.181 61.9569C50.181 61.9569 46.3316 94.4266 74.1331 128.866C101.934 126.529 98.085 89.6144 98.085 89.6144Z" fill="#8A65E7"/>
<path d="M98.0851 89.6143L74.1331 63.8947L50.1812 61.9569L50.8582 61.5661L75.1288 63.5296L99.0808 89.2492C99.0808 89.2492 102.294 120.108 81.5907 127.18C101.194 119.473 98.0851 89.6143 98.0851 89.6143Z" fill="white"/>
<path d="M95.1767 90.0137L73.6416 66.8894L64.7869 65.9946L52.1066 65.1472C52.1066 65.1472 48.6456 94.3403 73.6416 125.304C98.6377 123.203 95.1767 90.0137 95.1767 90.0137Z" fill="url(#paint1_linear_2_2094)"/>
<path d="M58.399 73.9025L57.5522 73.0557L56.7054 73.9025L57.5522 74.7493L58.399 73.9025Z" fill="white"/>
<path d="M61.4581 73.8919L60.6113 73.0451L59.7645 73.8919L60.6113 74.7387L61.4581 73.8919Z" fill="white"/>
<path d="M59.9342 72.3676L59.0874 71.5208L58.2406 72.3676L59.0874 73.2144L59.9342 72.3676Z" fill="white"/>
<path d="M59.9229 75.4267L59.0762 74.5799L58.2293 75.4267L59.0761 76.2735L59.9229 75.4267Z" fill="white"/>
<defs>
<filter id="filter0_d_2_2094" x="0" y="108" width="42" height="42" filterUnits="userSpaceOnUse" color-interpolation-filters="sRGB">
<feFlood flood-opacity="0" result="BackgroundImageFix"/>
<feColorMatrix in="SourceAlpha" type="matrix" values="0 0 0 0 0 0 0 0 0 0 0 0 0 0 0 0 0 0 127 0" result="hardAlpha"/>
<feOffset/>
<feGaussianBlur stdDeviation="5"/>
<feColorMatrix type="matrix" values="0 0 0 0 0.12549 0 0 0 0 0.12549 0 0 0 0 0.137255 0 0 0 0.1 0"/>
<feBlend mode="normal" in2="BackgroundImageFix" result="effect1_dropShadow_2_2094"/>
<feBlend mode="normal" in="SourceGraphic" in2="effect1_dropShadow_2_2094" result="shape"/>
</filter>
<filter id="filter1_d_2_2094" x="116" y="3" width="65" height="65" filterUnits="userSpaceOnUse" color-interpolation-filters="sRGB">
<feFlood flood-opacity="0" result="BackgroundImageFix"/>
<feColorMatrix in="SourceAlpha" type="matrix" values="0 0 0 0 0 0 0 0 0 0 0 0 0 0 0 0 0 0 127 0" result="hardAlpha"/>
<feOffset/>
<feGaussianBlur stdDeviation="7.5"/>
<feColorMatrix type="matrix" values="0 0 0 0 0.12549 0 0 0 0 0.12549 0 0 0 0 0.137255 0 0 0 0.1 0"/>
<feBlend mode="normal" in2="BackgroundImageFix" result="effect1_dropShadow_2_2094"/>
<feBlend mode="normal" in="SourceGraphic" in2="effect1_dropShadow_2_2094" result="shape"/>
</filter>
<linearGradient id="paint0_linear_2_2094" x1="146.478" y1="136.674" x2="68.7407" y2="36.6344" gradientUnits="userSpaceOnUse">
<stop stop-color="#8A66E8"/>
<stop offset="1" stop-color="#C6B0FC"/>
</linearGradient>
<linearGradient id="paint1_linear_2_2094" x1="68" y1="36.5" x2="73.6417" y2="125.304" gradientUnits="userSpaceOnUse">
<stop stop-color="white"/>
<stop offset="1" stop-color="white" stop-opacity="0"/>
</linearGradient>
<clipPath id="clip0_2_2094">
<rect width="14" height="14" fill="white" transform="translate(14 122)"/>
</clipPath>
<clipPath id="clip1_2_2094">
<rect width="18" height="18" fill="white" transform="translate(140 27)"/>
</clipPath>
</defs>
</svg>
