<svg width="251" height="296" viewBox="0 0 251 296" fill="none" xmlns="http://www.w3.org/2000/svg">
<g filter="url(#filter0_d_2_1956)">
<path d="M161.937 92.2368H160.614V55.9828C160.614 53.2273 160.071 50.4988 159.016 47.953C157.962 45.4073 156.416 43.0941 154.468 41.1457C152.519 39.1973 150.206 37.6517 147.66 36.5972C145.115 35.5427 142.386 35 139.631 35H62.8217C60.0662 35 57.3377 35.5427 54.7919 36.5972C52.2462 37.6517 49.933 39.1973 47.9846 41.1457C46.0362 43.0942 44.4906 45.4073 43.4361 47.9531C42.3816 50.4988 41.8389 53.2273 41.8389 55.9828V254.875C41.8389 257.631 42.3816 260.359 43.4361 262.905C44.4906 265.451 46.0362 267.764 47.9846 269.712C49.933 271.661 52.2462 273.206 54.7919 274.261C57.3377 275.315 60.0662 275.858 62.8217 275.858H139.631C142.386 275.858 145.115 275.315 147.66 274.261C150.206 273.206 152.519 271.661 154.468 269.712C156.416 267.764 157.962 265.451 159.016 262.905C160.071 260.359 160.614 257.631 160.614 254.875V118.043H161.937V92.2368Z" fill="#531EDC"/>
</g>
<path d="M140.478 40.459H130.451C130.912 41.5894 131.088 42.8159 130.964 44.0303C130.839 45.2448 130.418 46.41 129.737 47.4232C129.056 48.4365 128.136 49.2667 127.059 49.8408C125.982 50.4149 124.78 50.7152 123.559 50.7153H79.5558C78.335 50.7152 77.1329 50.4149 76.0555 49.8408C74.9781 49.2667 74.0584 48.4365 73.3774 47.4232C72.6965 46.41 72.2751 45.2448 72.1506 44.0303C72.026 42.8159 72.202 41.5894 72.6631 40.459H63.2987C61.2409 40.459 59.2033 40.8643 57.3021 41.6518C55.401 42.4393 53.6736 43.5935 52.2185 45.0486C50.7634 46.5036 49.6092 48.2311 48.8217 50.1322C48.0342 52.0333 47.6289 54.071 47.6289 56.1287V254.729C47.6289 256.787 48.0342 258.825 48.8217 260.726C49.6092 262.627 50.7634 264.354 52.2185 265.809C53.6735 267.264 55.401 268.419 57.3021 269.206C59.2033 269.994 61.2409 270.399 63.2987 270.399H140.478C142.535 270.399 144.573 269.994 146.474 269.206C148.375 268.419 150.103 267.264 151.558 265.809C153.013 264.354 154.167 262.627 154.955 260.726C155.742 258.825 156.147 256.787 156.147 254.729V56.1287C156.147 51.9729 154.496 47.9872 151.558 45.0486C148.619 42.1099 144.633 40.459 140.478 40.459Z" fill="#FAFBFF"/>
<path d="M219.559 239.476L213.742 234.903L222.239 223.953L230.819 230.554L230.336 231.266C228.158 234.418 219.045 247.138 216.864 248.683C214.434 250.406 219.559 239.476 219.559 239.476Z" fill="white"/>
<path d="M223.473 239.567C227.426 234.54 230.547 230.399 230.444 230.318C230.341 230.237 227.053 234.247 223.1 239.274C219.148 244.301 216.027 248.442 216.13 248.523C216.233 248.603 219.52 244.594 223.473 239.567Z" fill="#263238"/>
<path d="M220.595 240.601C220.573 240.732 220.197 240.779 219.748 240.776C219.299 240.771 218.923 240.716 218.905 240.585C218.886 240.457 219.264 240.297 219.753 240.302C220.241 240.306 220.616 240.474 220.595 240.601Z" fill="#263238"/>
<path d="M220.431 241.598C220.394 241.725 219.976 241.713 219.483 241.648C218.991 241.58 218.585 241.481 218.583 241.349C218.579 241.22 219.015 241.106 219.547 241.178C220.079 241.249 220.469 241.474 220.431 241.598Z" fill="#263238"/>
<path d="M227.824 233.569C227.762 233.587 227.624 233.339 227.468 232.91C227.254 232.339 227.15 231.733 227.16 231.123C227.171 230.488 227.398 229.876 227.803 229.387C228.131 229.021 228.435 228.936 228.461 228.986C228.501 229.047 228.286 229.226 228.072 229.587C227.799 230.061 227.649 230.595 227.634 231.142C227.632 231.707 227.685 232.271 227.792 232.826C227.864 233.267 227.888 233.552 227.824 233.569Z" fill="#263238"/>
<path d="M219.476 239.775C219.427 239.651 219.666 239.443 219.976 239.244C220.288 239.047 220.579 238.919 220.67 239.015C220.759 239.109 220.584 239.42 220.23 239.644C219.878 239.869 219.522 239.895 219.476 239.775Z" fill="#263238"/>
<path d="M219.047 239.161C218.952 239.072 219.102 238.716 219.383 238.369C219.664 238.021 219.98 237.799 220.088 237.873C220.195 237.948 220.046 238.303 219.752 238.667C219.458 239.031 219.142 239.252 219.047 239.161Z" fill="#263238"/>
<path d="M181.017 145.386C181.017 145.386 163.66 191.504 165.999 200.12C168.337 208.737 215.148 242.947 215.148 242.947L227.856 224.657C227.856 224.657 191.346 195.763 191.231 194.167C191.116 192.571 205.726 154.257 205.726 154.257L181.017 145.386Z" fill="#1B2F71"/>
<path d="M214.346 228.882C214.287 228.86 214.232 228.829 214.182 228.791C214.057 228.709 213.907 228.61 213.723 228.49C213.296 228.197 212.716 227.8 211.984 227.298C210.485 226.247 208.323 224.716 205.693 222.766C200.426 218.878 193.275 213.328 185.684 206.83C183.783 205.208 181.947 203.602 180.184 202.04C179.306 201.255 178.444 200.485 177.598 199.729C176.713 199.021 175.958 198.165 175.366 197.198C174.879 196.203 174.763 195.067 175.039 193.994C175.242 192.975 175.5 192.017 175.743 191.083C176.242 189.222 176.741 187.499 177.196 185.928C178.101 182.813 178.837 180.281 179.358 178.486C179.597 177.632 179.785 176.956 179.925 176.457C179.984 176.246 180.033 176.073 180.073 175.929C180.086 175.868 180.108 175.808 180.138 175.753C180.14 175.816 180.132 175.879 180.115 175.939C180.086 176.085 180.051 176.262 180.008 176.477C179.906 176.949 179.742 177.641 179.517 178.528C179.067 180.303 178.362 182.857 177.484 186.009C177.047 187.586 176.566 189.312 176.083 191.172C175.848 192.101 175.596 193.068 175.405 194.062C175.151 195.051 175.26 196.099 175.711 197.015C176.286 197.937 177.016 198.754 177.868 199.428C178.715 200.18 179.578 200.947 180.459 201.73C182.224 203.286 184.06 204.888 185.96 206.508C193.542 212.999 200.655 218.58 205.872 222.527C208.47 224.467 210.583 226.046 212.08 227.164C212.792 227.693 213.356 228.111 213.773 228.42C213.946 228.554 214.089 228.665 214.207 228.756C214.303 228.833 214.351 228.876 214.346 228.882Z" fill="#455A64"/>
<path d="M215.832 227.279C218.9 223.245 221.312 219.918 221.219 219.847C221.126 219.777 218.563 222.989 215.495 227.022C212.426 231.056 210.014 234.383 210.108 234.454C210.201 234.525 212.763 231.312 215.832 227.279Z" fill="#455A64"/>
<path d="M211.67 57.6864C213.218 60.7888 214.036 63.474 217.112 65.0733C218.498 65.7938 220.188 66.2049 221.024 67.5244C221.933 68.961 221.505 71.042 222.654 72.2952C224.326 74.1173 227.743 72.6411 229.619 74.251C231.295 75.6879 230.756 78.7705 232.563 80.0375C233.579 80.75 234.964 80.5912 236.122 81.0395C238.018 81.7741 238.917 83.9623 239.167 85.981C239.426 87.5991 239.219 89.2576 238.57 90.7624C238.237 91.5084 237.723 92.1591 237.074 92.6551C236.424 93.1511 235.662 93.4765 234.854 93.6016C232.702 93.8279 230.265 92.3428 228.523 93.6261C227.962 94.15 227.474 94.7466 227.072 95.4C226.527 96.0913 225.824 96.64 225.021 96.9991C224.217 97.3582 223.339 97.5168 222.461 97.4613C221.583 97.4059 220.732 97.138 219.98 96.6806C219.229 96.2233 218.6 95.5903 218.147 94.836C216.945 92.8336 217.023 90.0714 215.263 88.5369C214.259 87.8381 213.138 87.3243 211.954 87.0196C210.81 86.5917 209.628 85.8826 209.284 84.7108C208.891 83.6772 208.331 82.7148 207.628 81.8612C206.748 80.5451 205.576 82.153 204.411 81.5046C203.247 80.8562 203.689 79.5883 203.591 78.2593" fill="#0B0320"/>
<path d="M191.227 102.488L176.225 97.4715C176.225 97.4715 169.595 116.571 167.563 116.756C156.306 117.783 144.261 114.05 140.037 112.575C139.609 112.094 139.119 111.515 138.574 110.808C138.108 110.199 137.75 109.515 137.514 108.785C137.186 107.891 136.983 106.955 136.912 106.004C136.93 105.821 136.89 105.637 136.799 105.478C136.707 105.318 136.568 105.192 136.401 105.115C136.234 105.038 136.047 105.016 135.867 105.051C135.686 105.085 135.521 105.175 135.394 105.308C134.906 105.938 134.782 108.351 135.894 110.946C137.005 113.541 133.072 111.476 131.625 110.75C130.178 110.023 125.596 107.985 125.021 108.253C124.176 108.646 124.442 109.623 125.904 110.315C127.383 111.015 131.603 113.391 131.182 114.136C130.768 114.871 123.453 111.072 123.453 111.072C123.453 111.072 122.021 110.007 121.506 110.852C120.578 112.376 128.652 115.843 129.428 116.153C129.967 116.369 129.539 117.196 128.972 116.933C128.389 116.662 121.764 112.974 120.804 114.517C120.068 115.702 127.419 117.43 128.368 118.958C129.317 120.487 122.926 117.081 122.27 118.241C122.025 118.673 121.902 119.029 125.854 120.455C128.748 121.363 131.689 122.114 134.663 122.704L134.649 122.745C134.649 122.745 174.129 140.4 182.644 123.381C191.68 105.322 191.227 102.488 191.227 102.488Z" fill="#EA908B"/>
<path d="M206.06 86.6751L212.613 86.7932L217.818 101.707L213.58 118.797C212.341 123.79 217.963 133.778 217.818 139.287L181.061 145.24L180.287 120.695L180.268 119.873L167.548 113.525L171.746 103.243C178.203 88.1138 189.482 87.193 189.482 87.193L206.06 86.6751Z" fill="#3EC9DC"/>
<path d="M212.884 86.8358C212.818 86.8752 212.747 86.9044 212.672 86.9223C212.528 86.97 212.313 87.0342 212.025 87.0991C211.186 87.255 210.336 87.3398 209.482 87.3527L209.559 87.203C210.241 88.3082 211.087 89.678 212.071 91.271L212.24 91.5443L211.921 91.489C210.467 91.2379 208.986 91.19 207.52 91.3468L207.673 91.1569C207.728 92.8273 207.966 94.4867 208.381 96.1056L208.491 96.4399L208.151 96.3531C206.479 96.0021 204.866 95.4118 203.362 94.6006L203.673 94.4676C203.376 95.9386 203.066 97.4795 202.748 99.056L202.68 99.3944L202.41 99.1792C201.096 98.1317 199.907 96.9358 198.867 95.6155L199.164 95.6504C197.72 96.7893 196.318 97.8947 194.959 98.9667L194.698 99.1725L194.632 98.8477C194.333 97.3811 194.043 95.962 193.766 94.6006L194.02 94.7438C192.432 95.3006 190.934 95.8255 189.527 96.3185L189.214 96.4282L189.3 96.1099C189.779 94.3198 190.215 92.6918 190.604 91.2392L190.719 91.4172C189.21 91.1574 187.912 90.9342 186.815 90.7453L186.652 90.7174L186.744 90.5834C187.468 89.5249 188.038 88.6924 188.453 88.0856C188.637 87.827 188.786 87.6171 188.907 87.4466C188.884 87.4228 188.87 87.3913 188.869 87.358C188.868 87.3248 188.878 87.2922 188.9 87.2665C188.921 87.2408 188.951 87.2239 188.984 87.2189C189.016 87.214 189.05 87.2214 189.078 87.2397C189.106 87.2581 189.126 87.286 189.134 87.3182C189.142 87.3504 189.139 87.3846 189.123 87.4141C189.108 87.4437 189.082 87.4665 189.051 87.4782C189.02 87.49 188.986 87.4898 188.955 87.4777C188.845 87.6562 188.711 87.8759 188.545 88.1467C188.151 88.7662 187.609 89.6171 186.919 90.6993L186.848 90.5374C187.949 90.705 189.251 90.9032 190.765 91.1338L190.921 91.1574L190.881 91.3118C190.511 92.769 190.095 94.4024 189.638 96.1981L189.41 95.9894C190.811 95.4859 192.305 94.9492 193.891 94.3791L194.099 94.304L194.145 94.5224C194.429 95.8824 194.726 97.2999 195.032 98.765L194.705 98.6459C196.058 97.5737 197.457 96.4649 198.902 95.3193L199.068 95.1881L199.199 95.3543C200.22 96.6479 201.386 97.8205 202.673 98.8492L202.335 98.9722C202.656 97.3964 202.97 95.8562 203.27 94.3859L203.328 94.1021L203.581 94.2527C205.046 95.0448 206.615 95.6256 208.243 95.9779L208.013 96.2251C207.599 94.5787 207.37 92.8911 207.33 91.1937L207.313 91.0202L207.484 91.0035C208.982 90.8578 210.494 90.9251 211.973 91.2034L211.823 91.4213C210.871 89.81 210.052 88.4244 209.391 87.3065L209.306 87.1615L209.468 87.1566C210.317 87.1637 211.165 87.1107 212.006 86.998C212.58 86.9 212.878 86.8143 212.884 86.8358Z" fill="#455A64"/>
<path d="M220.14 93.1031C220.132 93.1211 219.885 92.9807 219.37 92.8326C218.613 92.62 217.813 92.6071 217.05 92.7953L217.109 92.7064C217.263 93.5764 217.499 94.6204 217.823 95.8152C218.141 97.0113 218.546 98.3601 218.899 99.8795L218.952 100.105L218.727 100.04C216.852 99.4985 214.647 99.0833 212.326 98.2981L212.545 98.125C212.785 100.381 212.772 102.904 212.907 105.554L212.919 105.785L212.688 105.751C210.576 105.379 208.499 104.831 206.479 104.114C206.23 104.041 205.93 103.941 205.863 104.05C205.701 104.237 205.582 104.457 205.514 104.695C205.298 105.219 205.08 105.747 204.86 106.279C204.421 107.344 203.974 108.425 203.522 109.522L203.387 109.849L203.165 109.573C201.816 107.898 200.401 106.142 198.962 104.355L198.649 103.967L198.934 104.008C196.621 105.598 194.36 107.152 192.173 108.655L191.948 108.81L191.859 108.553C191.097 106.36 190.359 104.238 189.645 102.186L189.941 102.287C187.58 103.82 185.058 105.09 182.42 106.074L182.138 106.179L182.18 105.882C182.663 102.457 183.096 99.3867 183.471 96.7263L183.664 96.8768C181.744 97.6389 179.68 97.9721 177.618 97.8531L177.482 97.8452L177.529 97.7192C178.142 96.0781 178.617 94.8043 178.951 93.9099C179.11 93.5003 179.235 93.1782 179.33 92.9337C179.368 92.8209 179.416 92.7122 179.475 92.6092C179.455 92.7263 179.423 92.8411 179.38 92.9518C179.298 93.2007 179.189 93.5285 179.05 93.9454C178.737 94.8474 178.291 96.1319 177.717 97.7871L177.628 97.6533C179.656 97.7355 181.678 97.3811 183.558 96.6142L183.783 96.5223L183.751 96.7648C183.398 99.4281 182.99 102.501 182.534 105.93L182.294 105.739C184.9 104.749 187.391 103.48 189.724 101.954L189.936 101.816L190.021 102.055C190.738 104.101 191.482 106.221 192.251 108.416L191.937 108.313C194.123 106.808 196.382 105.252 198.694 103.66L198.856 103.548L198.979 103.701L199.292 104.089C200.73 105.878 202.143 107.635 203.491 109.311L203.135 109.362C203.589 108.267 204.038 107.187 204.479 106.122C204.7 105.59 204.92 105.062 205.137 104.539C205.227 104.233 205.392 103.955 205.615 103.729C205.698 103.662 205.798 103.618 205.903 103.601C205.993 103.594 206.083 103.599 206.172 103.616C206.318 103.645 206.462 103.683 206.603 103.73C208.603 104.447 210.659 104.998 212.749 105.377L212.53 105.574C212.406 102.903 212.434 100.397 212.213 98.1555L212.188 97.8974L212.433 97.9823C214.725 98.777 216.914 99.2097 218.805 99.7786L218.633 99.9393C218.299 98.4277 217.913 97.0748 217.612 95.87C217.306 94.6666 217.089 93.6107 216.954 92.7319L216.943 92.6583L217.013 92.6428C217.802 92.4645 218.625 92.5033 219.394 92.7551C219.657 92.8354 219.909 92.9526 220.14 93.1031Z" fill="#455A64"/>
<path d="M180.488 119.691C180.2 119.606 179.931 119.465 179.699 119.274C179.024 118.806 178.447 118.211 177.999 117.523C177.33 116.48 177.026 115.246 177.134 114.012C177.193 112.506 177.689 111.049 178.562 109.82C179.24 108.853 180.132 108.056 181.168 107.49L181.056 107.643C181.36 105.389 181.636 103.452 181.848 102.081C181.925 101.347 182.061 100.621 182.254 99.9096C182.26 100.648 182.207 101.386 182.097 102.116C181.955 103.497 181.732 105.441 181.456 107.699L181.444 107.797L181.344 107.853C180.242 108.482 179.314 109.378 178.647 110.458C177.979 111.538 177.593 112.768 177.523 114.036C177.402 115.195 177.658 116.362 178.253 117.364C178.664 118.041 179.186 118.642 179.798 119.143C180.234 119.499 180.503 119.664 180.488 119.691Z" fill="#455A64"/>
<path d="M181.875 103.133C181.98 103.082 181.788 102.474 181.446 101.776C181.105 101.077 180.743 100.553 180.638 100.604C180.533 100.656 180.724 101.264 181.066 101.962C181.408 102.66 181.77 103.184 181.875 103.133Z" fill="#455A64"/>
<path d="M205.618 86.8906L206.748 61.0594L196.491 53.2889L187.167 57.8475C187.167 57.8475 186.855 69.555 187.167 74.6317C187.477 79.7084 192.596 80.2504 192.596 80.2504C192.596 80.2504 192.477 83.2257 192.36 86.3521C192.326 87.2489 192.475 88.1433 192.797 88.981C193.119 89.8187 193.607 90.5824 194.233 91.2259C194.859 91.8693 195.608 92.3791 196.437 92.7245C197.265 93.0698 198.155 93.2435 199.052 93.235C200.751 93.219 202.379 92.5521 203.6 91.3718C204.822 90.1914 205.544 88.5876 205.618 86.8906Z" fill="#EA908B"/>
<path d="M188.832 67.0309C189.191 67.0309 189.482 66.7399 189.482 66.381C189.482 66.022 189.191 65.731 188.832 65.731C188.473 65.731 188.182 66.022 188.182 66.381C188.182 66.7399 188.473 67.0309 188.832 67.0309Z" fill="#263238"/>
<path d="M187.553 65.6727C187.637 65.7569 188.117 65.3487 188.816 65.3114C189.515 65.2633 190.041 65.6104 190.114 65.5166C190.15 65.4749 190.063 65.3201 189.833 65.1624C189.524 64.9622 189.158 64.8663 188.79 64.8888C188.423 64.9112 188.072 65.0508 187.789 65.2872C187.58 65.4714 187.512 65.6358 187.553 65.6727Z" fill="#263238"/>
<path d="M196.361 67.0307C196.72 67.0307 197.011 66.7398 197.011 66.381C197.011 66.0221 196.72 65.7312 196.361 65.7312C196.003 65.7312 195.712 66.0221 195.712 66.381C195.712 66.7398 196.003 67.0307 196.361 67.0307Z" fill="#263238"/>
<path d="M195.308 65.6727C195.392 65.7569 195.871 65.3487 196.571 65.3114C197.27 65.2633 197.796 65.6104 197.869 65.5166C197.905 65.4749 197.818 65.3201 197.588 65.1624C197.278 64.9622 196.913 64.8663 196.545 64.8888C196.177 64.9112 195.826 65.0508 195.543 65.2872C195.335 65.4714 195.267 65.6358 195.308 65.6727Z" fill="#263238"/>
<path d="M195.094 72.2436C194.027 72.7877 192.888 73.1797 191.712 73.4083C191.971 73.7594 192.339 74.0146 192.759 74.1337C193.179 74.2528 193.626 74.2291 194.031 74.0663C194.224 74.0223 194.406 73.9392 194.565 73.8221C194.725 73.705 194.858 73.5565 194.958 73.3856C195.058 73.2147 195.121 73.0252 195.145 72.8288C195.168 72.6323 195.151 72.4332 195.094 72.2436Z" fill="white"/>
<path d="M192.594 80.2504C195.006 80.1494 197.34 79.3613 199.32 77.9787C199.32 77.9787 197.795 81.7061 192.705 81.496L192.594 80.2504Z" fill="#D78776"/>
<path d="M221.518 75.6541C220.879 75.679 220.245 75.5355 219.678 75.238C218.842 74.7883 218.147 74.1147 217.672 73.2926C217.082 72.2648 216.58 71.1889 216.172 70.0764C215.224 67.7165 214.508 65.5261 214.024 63.9303C213.948 63.6778 213.878 63.4466 213.812 63.2258C213.77 62.9538 213.726 62.7116 213.679 62.5338C210.909 51.9463 201.604 49.9725 199.763 49.9725C197.789 49.9725 194.335 48.8868 189.301 54.118C188.541 54.9007 187.898 55.7885 187.391 56.7542C186.277 58.1495 185.509 59.7876 185.147 61.5355C184.922 62.3563 184.882 63.2169 185.03 64.0551C185.125 64.0589 185.141 63.0961 185.535 61.6272C185.768 60.7609 186.094 59.9226 186.509 59.1276C186.069 61.083 186.25 63.1268 187.025 64.975L188.831 64.4779L195.297 62.278C194.709 60.2752 195.574 57.7891 196.063 56.6299L196.111 56.5855C196.473 58.6963 197.495 60.6377 199.031 62.1295C200.568 63.6213 202.538 64.5865 204.659 64.8856L205.854 81.5127C214.449 79.6759 214.253 68.1747 214.198 65.8383C214.588 67.1557 215.095 68.6678 215.732 70.2527C216.151 71.3923 216.677 72.4894 217.304 73.529C217.836 74.4024 218.611 75.1015 219.534 75.5406C220.159 75.8347 220.856 75.9379 221.539 75.8372C221.791 75.817 222.031 75.7245 222.231 75.5708C222.218 75.5327 221.971 75.6233 221.518 75.6541Z" fill="#0B0320"/>
<path d="M192.784 71.5817C192.41 71.4875 192.025 71.4394 191.639 71.4384C191.461 71.4296 191.286 71.4034 191.249 71.272C191.225 71.0781 191.26 70.8817 191.348 70.7073C191.5 70.2479 191.659 69.7645 191.827 69.2571C192.16 68.2256 192.446 67.2873 192.64 66.6039C192.772 66.2411 192.858 65.8634 192.897 65.4793C192.706 65.8143 192.555 66.1713 192.45 66.5427C192.208 67.2105 191.892 68.1393 191.559 69.1707C191.399 69.68 191.246 70.1657 191.1 70.6275C190.996 70.8567 190.972 71.1139 191.031 71.3584C191.058 71.4207 191.098 71.4758 191.15 71.5195C191.202 71.5633 191.263 71.5943 191.329 71.6103C191.428 71.6327 191.53 71.6419 191.632 71.6377C192.017 71.6664 192.404 71.6476 192.784 71.5817Z" fill="#263238"/>
<path d="M207.288 71.3701C207.209 70.5247 207.302 69.6721 207.56 68.8633C207.695 68.4608 207.936 68.102 208.257 67.8246C208.578 67.5471 208.968 67.3613 209.386 67.2865C209.874 67.2649 210.353 67.4225 210.733 67.7294C211.112 68.0364 211.367 68.4716 211.448 68.953C211.504 69.4386 211.415 69.9299 211.191 70.3646C210.968 70.7993 210.62 71.1577 210.192 71.3943C209.759 71.6198 209.28 71.744 208.791 71.7577C208.303 71.7714 207.818 71.6742 207.372 71.4733" fill="#EA908B"/>
<path d="M208.768 70.6307C208.799 70.5746 209.043 70.6994 209.401 70.5902C209.624 70.5116 209.818 70.3654 209.954 70.172C210.09 69.9786 210.163 69.7475 210.162 69.5109C210.181 69.3918 210.175 69.27 210.143 69.1535C210.112 69.037 210.057 68.9284 209.981 68.8346C209.825 68.7092 209.626 68.6499 209.427 68.6695C209.047 68.7029 208.779 68.8041 208.757 68.7394C208.741 68.6969 208.929 68.5027 209.383 68.3736C209.528 68.3353 209.68 68.3303 209.828 68.3588C209.975 68.3874 210.115 68.4488 210.235 68.5384C210.368 68.6657 210.469 68.8228 210.53 68.9967C210.591 69.1707 210.61 69.3566 210.585 69.5391C210.567 69.8885 210.433 70.2221 210.206 70.4877C210.014 70.7081 209.748 70.8493 209.458 70.8839C208.957 70.9332 208.727 70.6616 208.768 70.6307Z" fill="#D78776"/>
<path d="M200.989 272.505V265.105L214.849 265.017L214.963 275.841L214.105 275.902C210.281 276.139 194.649 276.837 192.087 276.078C189.23 275.232 200.989 272.505 200.989 272.505Z" fill="white"/>
<path d="M203.338 275.638C209.733 275.638 214.917 275.532 214.917 275.401C214.917 275.27 209.733 275.164 203.338 275.164C196.943 275.164 191.759 275.27 191.759 275.401C191.759 275.532 196.943 275.638 203.338 275.638Z" fill="#263238"/>
<path d="M200.746 274.014C200.63 274.079 200.36 273.812 200.085 273.457C199.812 273.101 199.623 272.772 199.714 272.676C199.803 272.583 200.163 272.78 200.461 273.168C200.759 273.554 200.859 273.953 200.746 274.014Z" fill="#263238"/>
<path d="M199.861 274.502C199.738 274.551 199.489 274.215 199.236 273.788C198.985 273.359 198.812 272.979 198.914 272.895C199.013 272.813 199.372 273.085 199.645 273.547C199.918 274.01 199.981 274.455 199.861 274.502Z" fill="#263238"/>
<path d="M210.742 275.351C210.689 275.313 210.8 275.052 211.04 274.663C211.357 274.143 211.769 273.686 212.255 273.317C212.761 272.933 213.382 272.733 214.017 272.749C214.507 272.781 214.762 272.967 214.738 273.019C214.715 273.088 214.442 273.03 214.026 273.084C213.485 273.163 212.972 273.375 212.533 273.701C212.087 274.049 211.677 274.44 211.306 274.867C211.004 275.196 210.795 275.391 210.742 275.351Z" fill="#263238"/>
<path d="M200.703 272.624C200.77 272.509 201.082 272.568 201.43 272.689C201.777 272.813 202.058 272.962 202.038 273.093C202.02 273.221 201.668 273.276 201.273 273.136C200.878 272.998 200.638 272.735 200.703 272.624Z" fill="#263238"/>
<path d="M200.921 271.908C200.933 271.778 201.305 271.676 201.752 271.683C202.199 271.688 202.568 271.8 202.577 271.93C202.585 272.061 202.213 272.163 201.746 272.157C201.278 272.15 200.908 272.039 200.921 271.908Z" fill="#263238"/>
<path d="M188.611 144.119L181.017 145.386L185.388 150.764C186.644 176.083 186.34 200.606 187.5 212.835C187.676 214.691 195.515 272.94 194.737 271.576L217.821 272.539L210.931 214.041L214.197 162.087C217.738 155.948 218.774 148.68 217.087 141.797L216.515 139.46" fill="#1E3582"/>
<path d="M115.555 154.888L133.927 91.8463C134.382 90.2847 135.439 88.9678 136.865 88.1853C138.291 87.4029 139.969 87.219 141.531 87.6741L244.811 117.772C246.373 118.227 247.69 119.284 248.473 120.71C249.255 122.137 249.439 123.815 248.984 125.377L230.612 188.419C230.157 189.981 229.1 191.297 227.674 192.08C226.248 192.862 224.57 193.046 223.008 192.591L119.727 162.493C118.954 162.267 118.233 161.892 117.605 161.388C116.976 160.884 116.454 160.261 116.066 159.555C115.679 158.848 115.434 158.073 115.346 157.272C115.259 156.472 115.33 155.661 115.555 154.888Z" fill="#531EDC"/>
<path d="M228.678 131.953C229.956 127.567 227.437 122.976 223.051 121.697C218.665 120.419 214.073 122.939 212.795 127.325C211.516 131.71 214.036 136.302 218.422 137.58C222.808 138.859 227.399 136.339 228.678 131.953Z" fill="#FFFFFE"/>
<path d="M230.318 141.11C229.492 141.109 228.67 140.991 227.877 140.76C225.783 140.144 224 138.759 222.887 136.882C221.773 135.005 221.412 132.776 221.876 130.643C222.339 128.511 223.594 126.633 225.386 125.388C227.179 124.143 229.376 123.623 231.536 123.933C233.697 124.243 235.659 125.36 237.029 127.058C238.4 128.757 239.076 130.911 238.921 133.088C238.767 135.265 237.794 137.303 236.197 138.791C234.601 140.279 232.501 141.108 230.318 141.11ZM230.294 124.559C228.301 124.557 226.382 125.311 224.923 126.668C223.464 128.025 222.573 129.884 222.43 131.872C222.287 133.859 222.902 135.827 224.152 137.379C225.402 138.931 227.193 139.952 229.165 140.236C231.138 140.52 233.144 140.046 234.781 138.91C236.418 137.774 237.564 136.059 237.987 134.112C238.411 132.165 238.081 130.13 237.064 128.416C236.046 126.702 234.418 125.438 232.506 124.877C231.788 124.666 231.043 124.558 230.294 124.559Z" fill="white"/>
<path d="M131.895 136.766L130.034 143.153L129.377 142.962L131.069 137.158L129.563 136.72L129.733 136.135L131.895 136.766Z" fill="white"/>
<path d="M136.773 144.484L136.603 145.067L132.123 143.762L132.258 143.297L135.672 141.47C136.6 140.968 136.862 140.579 136.989 140.141C137.205 139.402 136.818 138.794 135.842 138.509C135.522 138.394 135.181 138.353 134.843 138.388C134.505 138.423 134.18 138.534 133.891 138.713L133.543 138.176C133.92 137.951 134.342 137.811 134.779 137.768C135.216 137.724 135.658 137.777 136.072 137.923C137.367 138.3 137.997 139.197 137.686 140.265C137.508 140.876 137.157 141.368 136.054 141.957L133.26 143.46L136.773 144.484Z" fill="white"/>
<path d="M143.816 145.348L142.539 144.976L142.049 146.655L141.392 146.463L141.881 144.784L138.277 143.734L138.415 143.259L143.034 140.012L143.765 140.224L139.295 143.397L142.069 144.205L142.5 142.727L143.139 142.913L142.709 144.391L143.986 144.765L143.816 145.348Z" fill="white"/>
<path d="M153.604 148.2L152.327 147.828L151.837 149.507L151.18 149.315L151.669 147.636L148.065 146.586L148.203 146.112L152.823 142.864L153.553 143.077L149.084 146.25L151.857 147.058L152.289 145.579L152.927 145.765L152.497 147.244L153.774 147.616L153.604 148.2Z" fill="white"/>
<path d="M159.246 149.626C158.929 150.713 157.924 151.341 156.363 150.886C155.515 150.669 154.782 150.137 154.312 149.398L154.783 148.97C155.171 149.619 155.798 150.09 156.53 150.281C157.616 150.597 158.345 150.236 158.572 149.46C158.811 148.639 158.449 147.979 156.824 147.505L155.465 147.109L156.727 144.001L160.222 145.02L160.052 145.605L157.132 144.753L156.319 146.725L157.141 146.964C159.066 147.525 159.575 148.495 159.246 149.626Z" fill="white"/>
<path d="M165.566 151.439C165.483 151.714 165.343 151.969 165.157 152.187C164.97 152.406 164.74 152.583 164.481 152.708C164.222 152.832 163.94 152.902 163.653 152.912C163.366 152.922 163.08 152.872 162.813 152.766C161.115 152.271 160.537 150.825 161.125 148.808C161.757 146.636 163.274 145.85 165.007 146.355C165.541 146.486 166.029 146.759 166.421 147.144L166.002 147.596C165.69 147.268 165.289 147.038 164.849 146.933C163.471 146.532 162.328 147.158 161.823 148.893C161.78 149.039 161.736 149.223 161.699 149.42C161.985 149.121 162.353 148.912 162.756 148.819C163.16 148.725 163.582 148.752 163.971 148.895C164.25 148.943 164.516 149.049 164.752 149.207C164.987 149.365 165.186 149.57 165.337 149.81C165.487 150.05 165.586 150.32 165.625 150.6C165.664 150.881 165.644 151.167 165.566 151.439ZM164.913 151.267C164.97 151.066 164.983 150.856 164.951 150.649C164.92 150.443 164.845 150.245 164.73 150.071C164.616 149.896 164.466 149.747 164.289 149.636C164.113 149.524 163.915 149.451 163.708 149.422C163.514 149.328 163.302 149.278 163.087 149.275C162.872 149.272 162.658 149.317 162.462 149.406C162.266 149.495 162.092 149.626 161.952 149.79C161.813 149.954 161.711 150.146 161.654 150.354C161.597 150.562 161.587 150.779 161.624 150.991C161.661 151.204 161.744 151.405 161.867 151.581C161.991 151.758 162.152 151.905 162.338 152.012C162.525 152.119 162.733 152.184 162.948 152.201C163.137 152.281 163.341 152.32 163.547 152.316C163.752 152.311 163.954 152.263 164.14 152.175C164.325 152.087 164.49 151.96 164.623 151.804C164.757 151.647 164.855 151.464 164.913 151.267Z" fill="white"/>
<path d="M174.283 154.059C173.972 155.127 172.957 155.723 171.415 155.273C170.564 155.055 169.828 154.522 169.355 153.782L169.826 153.354C170.219 154.006 170.853 154.479 171.59 154.669C172.648 154.978 173.376 154.656 173.608 153.862C173.831 153.095 173.439 152.436 172.253 152.091L171.797 151.958L171.938 151.474L174.354 149.773L171.087 148.821L171.258 148.237L175.364 149.433L175.228 149.898L172.759 151.645C174.106 152.116 174.581 153.037 174.283 154.059Z" fill="white"/>
<path d="M180.709 155.852C180.626 156.127 180.486 156.382 180.3 156.6C180.113 156.819 179.883 156.996 179.624 157.121C179.365 157.245 179.083 157.315 178.796 157.325C178.509 157.335 178.222 157.285 177.955 157.179C176.258 156.683 175.679 155.237 176.267 153.221C176.9 151.049 178.417 150.263 180.151 150.769C180.684 150.899 181.172 151.172 181.564 151.557L181.146 152.009C180.833 151.681 180.433 151.451 179.992 151.346C178.615 150.945 177.471 151.571 176.966 153.306C176.923 153.452 176.879 153.636 176.842 153.833C177.128 153.534 177.496 153.325 177.899 153.232C178.303 153.138 178.725 153.165 179.113 153.308C179.393 153.356 179.659 153.462 179.894 153.62C180.13 153.778 180.329 153.983 180.48 154.223C180.631 154.463 180.729 154.733 180.768 155.013C180.808 155.294 180.787 155.58 180.709 155.852ZM180.055 155.68C180.112 155.48 180.125 155.269 180.094 155.062C180.063 154.856 179.987 154.659 179.873 154.484C179.759 154.309 179.609 154.161 179.432 154.049C179.256 153.937 179.058 153.864 178.851 153.836C178.658 153.741 178.446 153.691 178.23 153.688C178.015 153.685 177.802 153.73 177.606 153.819C177.41 153.908 177.236 154.039 177.096 154.202C176.956 154.366 176.854 154.559 176.798 154.766C176.741 154.974 176.73 155.191 176.767 155.404C176.804 155.616 176.887 155.817 177.01 155.993C177.134 156.17 177.295 156.317 177.481 156.424C177.668 156.531 177.876 156.596 178.09 156.614C178.28 156.694 178.484 156.733 178.689 156.728C178.894 156.724 179.097 156.676 179.282 156.588C179.468 156.5 179.633 156.373 179.766 156.217C179.899 156.061 179.998 155.878 180.055 155.68Z" fill="white"/>
<path d="M187.89 153.083L187.754 153.549L183.355 158.692L182.643 158.485L186.963 153.447L183.677 152.49L183.329 153.685L182.68 153.496L183.199 151.717L187.89 153.083Z" fill="white"/>
<path d="M197.021 155.745L196.885 156.21L192.485 161.352L191.775 161.145L196.094 156.108L192.809 155.151L192.46 156.346L191.812 156.157L192.331 154.377L197.021 155.745Z" fill="white"/>
<path d="M201.963 162.185C201.634 163.315 200.47 163.74 198.946 163.296C197.413 162.849 196.688 161.874 197.017 160.743C197.119 160.379 197.342 160.061 197.649 159.841C197.956 159.621 198.329 159.512 198.707 159.532C198.437 159.351 198.234 159.088 198.127 158.782C198.02 158.476 198.015 158.144 198.113 157.835C198.415 156.795 199.49 156.404 200.84 156.798C202.19 157.192 202.905 158.103 202.602 159.143C202.516 159.458 202.329 159.736 202.071 159.935C201.813 160.135 201.497 160.245 201.171 160.25C201.502 160.435 201.761 160.727 201.905 161.079C202.049 161.43 202.07 161.82 201.963 162.185ZM201.291 161.978C201.519 161.193 200.987 160.504 199.856 160.175C198.724 159.845 197.914 160.143 197.685 160.927C197.454 161.722 197.977 162.409 199.108 162.739C200.24 163.069 201.06 162.772 201.291 161.978ZM200.007 159.654C201.003 159.943 201.726 159.67 201.929 158.976C202.138 158.256 201.636 157.634 200.678 157.354C199.71 157.073 198.971 157.333 198.764 158.045C198.559 158.747 199.012 159.364 200.007 159.654Z" fill="white"/>
<path d="M208.595 162.523C207.962 164.695 206.446 165.481 204.712 164.976C204.179 164.845 203.69 164.573 203.299 164.188L203.717 163.735C204.029 164.063 204.429 164.294 204.87 164.398C206.248 164.8 207.392 164.172 207.897 162.439C207.94 162.293 207.983 162.107 208.021 161.911C207.734 162.21 207.367 162.419 206.963 162.512C206.559 162.606 206.137 162.579 205.749 162.436C205.469 162.388 205.203 162.282 204.968 162.124C204.732 161.966 204.533 161.761 204.382 161.521C204.232 161.28 204.134 161.011 204.094 160.731C204.055 160.45 204.075 160.164 204.154 159.892C204.237 159.617 204.376 159.362 204.563 159.144C204.75 158.925 204.98 158.748 205.239 158.623C205.497 158.499 205.779 158.429 206.066 158.419C206.354 158.409 206.64 158.459 206.906 158.566C208.604 159.06 209.183 160.506 208.595 162.523ZM208.061 160.991C208.266 160.289 207.876 159.452 206.771 159.13C206.58 159.049 206.374 159.01 206.166 159.015C205.959 159.02 205.755 159.07 205.569 159.16C205.382 159.251 205.217 159.38 205.085 159.54C204.952 159.699 204.855 159.885 204.801 160.085C204.746 160.285 204.735 160.495 204.768 160.699C204.801 160.904 204.877 161.099 204.992 161.272C205.107 161.445 205.257 161.591 205.433 161.701C205.609 161.811 205.806 161.882 206.011 161.909C206.206 161.99 206.414 162.031 206.625 162.028C206.835 162.025 207.043 161.98 207.235 161.894C207.427 161.808 207.599 161.683 207.742 161.528C207.884 161.373 207.992 161.19 208.061 160.991Z" fill="white"/>
<path d="M215.985 161.271L214.124 167.659L213.467 167.467L215.159 161.664L213.653 161.225L213.823 160.641L215.985 161.271Z" fill="white"/>
<path d="M220.862 168.989L220.692 169.573L216.212 168.267L216.347 167.803L219.761 165.975C220.689 165.473 220.951 165.084 221.079 164.647C221.294 163.907 220.908 163.299 219.931 163.015C219.611 162.899 219.27 162.858 218.932 162.893C218.594 162.929 218.269 163.04 217.98 163.219L217.632 162.681C218.009 162.456 218.431 162.316 218.868 162.273C219.305 162.229 219.747 162.282 220.161 162.428C221.456 162.806 222.086 163.702 221.775 164.77C221.597 165.381 221.246 165.873 220.143 166.463L217.349 167.965L220.862 168.989Z" fill="white"/>
<path d="M226.957 169.408C226.646 170.477 225.631 171.072 224.088 170.623C223.237 170.405 222.501 169.872 222.028 169.131L222.499 168.703C222.893 169.356 223.526 169.829 224.264 170.02C225.322 170.328 226.05 170.006 226.281 169.212C226.504 168.445 226.112 167.787 224.925 167.441L224.47 167.308L224.611 166.823L227.028 165.123L223.76 164.171L223.931 163.586L228.037 164.783L227.901 165.249L225.432 166.995C226.78 167.466 227.255 168.386 226.957 169.408Z" fill="white"/>
<path d="M175.982 161.708L175.174 164.481L226.335 179.386L227.143 176.613L175.982 161.708Z" fill="white"/>
<path d="M199.289 174.507L198.481 177.281L224.721 184.926L225.529 182.152L199.289 174.507Z" fill="white"/>
<path d="M138.034 115.218L151.966 119.278C152.965 119.569 153.807 120.245 154.308 121.157C154.808 122.07 154.926 123.143 154.635 124.142L152.157 132.645C151.866 133.644 151.19 134.486 150.277 134.987C149.365 135.487 148.291 135.605 147.292 135.314L133.36 131.253C132.361 130.962 131.518 130.286 131.018 129.374C130.517 128.462 130.399 127.388 130.691 126.389L133.168 117.887C133.459 116.888 134.136 116.045 135.048 115.545C135.96 115.044 137.034 114.926 138.034 115.218Z" fill="#00CE99"/>
<path d="M130.885 125.716L131.186 124.687L142.238 127.909C142.542 127.998 142.86 128.026 143.175 127.992C143.49 127.957 143.795 127.861 144.073 127.709C144.35 127.557 144.595 127.352 144.794 127.105C144.992 126.858 145.14 126.574 145.228 126.27C145.317 125.966 145.345 125.648 145.31 125.333C145.275 125.018 145.179 124.714 145.027 124.436C144.874 124.158 144.669 123.914 144.421 123.716C144.174 123.518 143.891 123.37 143.586 123.282L132.533 120.061L132.834 119.032L143.886 122.253C144.325 122.381 144.735 122.594 145.092 122.88C145.449 123.166 145.746 123.519 145.967 123.92C146.187 124.321 146.326 124.762 146.376 125.216C146.426 125.671 146.385 126.131 146.258 126.57C146.13 127.009 145.916 127.419 145.63 127.776C145.344 128.132 144.99 128.429 144.589 128.649C144.188 128.869 143.747 129.008 143.292 129.057C142.838 129.107 142.378 129.066 141.938 128.938L130.885 125.716Z" fill="white"/>
<path d="M145.891 125.901L145.591 126.93L153.175 129.148L153.475 128.119L145.891 125.901Z" fill="white"/>
<path d="M195.852 117.754L140.646 101.663L139.265 106.401L194.471 122.492L195.852 117.754Z" fill="white"/>
<path d="M204.519 52.6906C203.943 52.4705 203.428 52.1164 203.016 51.6577C202.603 51.1989 202.306 50.6485 202.149 50.0522C202.005 49.4523 202.027 48.8246 202.211 48.2358C202.395 47.6471 202.736 47.1193 203.196 46.7086C203.67 46.3131 204.252 46.0706 204.866 46.0132C205.481 45.9558 206.098 46.0863 206.637 46.3874C207.468 46.965 208.072 47.8134 208.347 48.7875C208.604 49.4091 208.676 50.0918 208.553 50.7534C208.396 51.2305 208.117 51.6584 207.744 51.9948C207.37 52.3313 206.916 52.5647 206.425 52.6721C205.442 52.8746 204.43 52.9017 203.437 52.7522" fill="#263238"/>
<path d="M224.893 66.7785C224.981 66.4409 224.997 66.0885 224.94 65.7442C224.851 65.3504 224.661 64.9863 224.389 64.6874C224.02 64.3018 223.548 64.03 223.029 63.9042C222.391 63.7484 221.731 63.7013 221.077 63.7649C220.362 63.8108 219.593 63.9382 218.756 63.9573C217.857 64.0122 216.962 63.8 216.184 63.3476C215.407 62.7618 214.862 61.9199 214.646 60.9709C214.126 59.2983 213.265 57.7521 212.116 56.4303C211.177 55.3508 210.071 54.4282 208.842 53.6973C207.681 53.0591 206.456 52.5459 205.187 52.1662C205.19 52.1518 205.286 52.1595 205.467 52.1873C205.731 52.2243 205.993 52.2776 206.251 52.3469C207.207 52.5901 208.128 52.9566 208.99 53.4372C210.275 54.1504 211.431 55.0753 212.409 56.1728C213.611 57.521 214.51 59.1107 215.047 60.8351C215.234 61.6938 215.716 62.4598 216.41 62.9995C217.118 63.4119 217.932 63.6091 218.751 63.5672C219.549 63.5602 220.32 63.4469 221.056 63.4143C221.748 63.3622 222.444 63.4307 223.112 63.6167C223.677 63.7728 224.183 64.0913 224.568 64.5327C224.851 64.8713 225.035 65.2803 225.102 65.7159C225.144 65.9892 225.118 66.2683 225.029 66.5298C224.966 66.7062 224.901 66.7832 224.893 66.7785Z" fill="#263238"/>
<path d="M210.29 71.3223C210.317 71.2829 210.672 71.5846 210.666 72.2672C210.661 72.4667 210.616 72.6632 210.534 72.8451C210.452 73.027 210.334 73.1907 210.188 73.3266C210.008 73.4987 209.791 73.6266 209.554 73.7003C209.317 73.774 209.065 73.7914 208.82 73.7511C208.575 73.7109 208.342 73.614 208.141 73.4683C207.939 73.3225 207.774 73.1318 207.659 72.9114C207.564 72.7359 207.505 72.5432 207.486 72.3446C207.466 72.146 207.486 71.9454 207.545 71.7547C207.758 71.1061 208.191 70.934 208.203 70.9796C208.251 71.0282 207.936 71.2768 207.836 71.825C207.779 72.1326 207.837 72.4506 207.999 72.7184C208.092 72.8803 208.221 73.0195 208.375 73.1258C208.528 73.2321 208.704 73.3029 208.889 73.3332C209.073 73.3636 209.262 73.3525 209.442 73.301C209.622 73.2495 209.788 73.1587 209.928 73.0353C210.167 72.8333 210.324 72.5505 210.368 72.2408C210.381 71.9326 210.355 71.624 210.29 71.3223Z" fill="#E0E0E0"/>
<path d="M208.243 53.6863C206.547 52.0021 204.389 50.8604 202.043 50.4063C203.274 50.357 204.496 50.6346 205.585 51.2107C206.674 51.7868 207.591 52.6409 208.243 53.6863Z" fill="#E8505B"/>
<path d="M211.193 70.3539C211.193 70.2988 211.417 70.2802 211.559 70.5414C211.599 70.6185 211.62 70.7037 211.621 70.7903C211.622 70.877 211.604 70.9628 211.566 71.0411C211.515 71.1391 211.438 71.2214 211.343 71.2793C211.249 71.3372 211.141 71.3686 211.03 71.3701C210.936 71.3758 210.842 71.3609 210.754 71.3263C210.667 71.2917 210.588 71.2383 210.523 71.1699C210.459 71.1015 210.41 71.0197 210.38 70.9303C210.351 70.8409 210.341 70.7462 210.352 70.6527C210.388 70.3859 210.543 70.2916 210.583 70.3247C210.635 70.3568 210.607 70.4846 210.651 70.6433C210.665 70.7291 210.709 70.8071 210.776 70.8628C210.843 70.9186 210.927 70.9485 211.014 70.9468C211.053 70.9485 211.091 70.9414 211.127 70.926C211.163 70.9106 211.194 70.8873 211.219 70.8579C211.245 70.8285 211.263 70.7938 211.273 70.7563C211.283 70.7188 211.284 70.6796 211.277 70.6416C211.269 70.4923 211.177 70.4115 211.193 70.3539Z" fill="#E0E0E0"/>
<path d="M205.783 86.0956C205.864 86.3724 205.894 86.6617 205.871 86.9493C205.856 87.7371 205.7 88.5159 205.41 89.2488C204.979 90.3471 204.278 91.3196 203.373 92.0771C202.239 92.9898 200.85 93.5272 199.397 93.6148C197.944 93.7025 196.499 93.3361 195.264 92.5663C194.274 91.923 193.462 91.0417 192.901 90.0032C192.526 89.3103 192.278 88.556 192.167 87.7758C192.11 87.4931 192.105 87.2024 192.152 86.9179C192.322 87.9469 192.664 88.9402 193.162 89.8563C193.731 90.8226 194.523 91.6387 195.472 92.2362C196.645 92.9413 198.005 93.2745 199.371 93.1921C200.737 93.1097 202.047 92.6155 203.127 91.7745C203.997 91.0673 204.685 90.162 205.134 89.1343C205.519 88.1649 205.738 87.1377 205.783 86.0956Z" fill="#455A64"/>
<path d="M204.126 267.247C204.101 267.178 204.086 267.107 204.08 267.034C204.055 266.868 204.024 266.661 203.986 266.404C203.909 265.817 203.802 265.005 203.668 263.976C203.397 261.867 203.037 258.811 202.619 255.032C201.778 247.474 200.743 237.019 199.812 225.453C198.884 213.884 198.237 203.396 197.86 195.801C197.67 192.004 197.537 188.93 197.467 186.805C197.436 185.768 197.411 184.95 197.394 184.358C197.39 184.098 197.388 183.889 197.385 183.721C197.358 183.717 197.334 183.702 197.317 183.681C197.3 183.66 197.291 183.634 197.293 183.606C197.294 183.579 197.306 183.554 197.325 183.535C197.345 183.515 197.37 183.504 197.397 183.503C197.425 183.502 197.451 183.511 197.472 183.528C197.493 183.545 197.507 183.57 197.511 183.597C197.515 183.624 197.508 183.651 197.493 183.674C197.478 183.696 197.455 183.712 197.429 183.719C197.442 183.886 197.458 184.095 197.479 184.354C197.516 184.945 197.567 185.762 197.632 186.797C197.758 188.953 197.938 192.015 198.159 195.785C198.612 203.374 199.307 213.854 200.234 225.42C201.165 236.981 202.152 247.436 202.917 255C203.3 258.757 203.612 261.808 203.831 263.957C203.933 264.99 204.013 265.805 204.071 266.394C204.092 266.653 204.109 266.862 204.122 267.029C204.133 267.101 204.134 267.175 204.126 267.247Z" fill="#263238"/>
<path d="M217.026 267.304C216.737 267.381 216.44 267.423 216.142 267.427C215.571 267.48 214.744 267.534 213.721 267.583C211.675 267.682 208.844 267.729 205.721 267.681C202.597 267.636 199.772 267.537 197.728 267.459C196.779 267.415 195.972 267.377 195.307 267.345C195.009 267.349 194.711 267.316 194.42 267.247C194.713 267.188 195.012 267.166 195.31 267.18C195.883 267.165 196.711 267.158 197.734 267.16C199.78 267.162 202.607 267.213 205.727 267.258C208.846 267.306 211.669 267.306 213.713 267.283C214.662 267.275 215.469 267.268 216.134 267.262C216.432 267.239 216.731 267.253 217.026 267.304Z" fill="#263238"/>
<path d="M221.525 112.903L207.966 103.985C207.966 103.985 201.337 123.084 199.305 123.27C188.047 124.296 176.002 120.564 171.779 119.088C171.35 118.607 170.861 118.029 170.315 117.321C169.849 116.712 169.491 116.028 169.256 115.299C168.927 114.404 168.724 113.468 168.653 112.517C168.671 112.334 168.631 112.151 168.54 111.991C168.448 111.832 168.309 111.705 168.142 111.628C167.975 111.552 167.788 111.529 167.608 111.564C167.427 111.599 167.262 111.689 167.135 111.822C166.648 112.451 166.524 114.864 167.635 117.459C168.746 120.054 164.813 117.99 163.366 117.263C161.919 116.537 157.338 114.499 156.762 114.766C155.918 115.16 156.183 116.136 157.645 116.828C159.124 117.529 163.344 119.904 162.923 120.65C162.509 121.384 155.194 117.585 155.194 117.585C155.194 117.585 153.762 116.52 153.248 117.365C152.319 118.89 160.393 122.356 161.169 122.667C161.709 122.883 161.281 123.709 160.714 123.447C160.13 123.176 153.506 119.487 152.546 121.031C151.809 122.215 159.16 123.944 160.109 125.472C161.058 127.001 154.668 123.594 154.011 124.755C153.766 125.187 153.643 125.543 157.596 126.969C160.489 127.877 163.43 128.628 166.405 129.218L166.39 129.258C166.39 129.258 206.752 147.326 214.386 129.894C222.515 111.331 221.525 112.903 221.525 112.903Z" fill="#EA908B"/>
<path d="M212.613 86.7933C212.613 86.7933 224.949 88.2484 223.644 102.916C222.816 111.987 220.266 120.817 216.131 128.932L199.961 120.442C203.597 113.175 206.335 105.493 208.116 97.5652L212.613 86.7933Z" fill="#3EC9DC"/>
<path d="M212.884 86.8358C212.912 86.9343 211.543 87.2999 209.485 87.4425L209.635 87.1557C210.104 87.9174 210.615 88.7478 211.156 89.628C211.492 90.1899 211.815 90.7316 212.12 91.2415L212.351 91.6291L211.911 91.5451C210.451 91.3272 208.978 91.2036 207.502 91.1751C207.905 91.0332 208.329 90.9638 208.756 90.9704C209.835 90.9036 210.918 90.9629 211.983 91.1472L211.774 91.4508C211.464 90.9445 211.136 90.4066 210.795 89.8486C210.268 88.9605 209.771 88.1224 209.315 87.3538L209.153 87.0799L209.465 87.0668C210.482 87.0247 211.338 86.96 211.934 86.9043C212.248 86.8484 212.566 86.8254 212.884 86.8358Z" fill="#455A64"/>
<path d="M220.14 93.1032C220.128 93.1719 218.992 92.8929 217.026 92.8455L217.155 92.6937C217.622 94.5497 218.244 97.0168 218.959 99.8606L219.043 100.193L218.716 100.103C217.156 99.6747 215.459 99.2089 213.69 98.7231C213.227 98.5946 212.77 98.4676 212.319 98.3423L212.59 98.1314C212.701 100.858 212.804 103.384 212.893 105.558L212.903 105.797L212.681 105.735C210.733 105.189 209.093 104.73 207.855 104.384C207.328 104.225 206.886 104.092 206.52 103.981C206.359 103.945 206.204 103.885 206.06 103.805C206.225 103.807 206.39 103.832 206.549 103.88C206.921 103.965 207.369 104.067 207.906 104.189C209.15 104.498 210.797 104.907 212.755 105.393L212.543 105.57C212.434 103.398 212.306 100.873 212.168 98.1492L212.154 97.8592L212.439 97.9381C212.889 98.0623 213.345 98.1884 213.807 98.3162C215.57 98.8089 217.261 99.2815 218.815 99.7158L218.572 99.9582C217.911 97.0958 217.338 94.6126 216.907 92.7446L216.87 92.583L217.037 92.5927C217.81 92.6324 218.579 92.7305 219.338 92.8861C219.613 92.9258 219.882 92.9987 220.14 93.1032Z" fill="#455A64"/>
<path d="M221.139 113.143C220.91 112.987 220.715 112.787 220.565 112.554C220.23 112.132 219.873 111.436 219.345 110.631L219.564 110.622C218.283 113.119 216.786 115.498 215.089 117.732L214.927 117.945L214.764 117.733C214.005 116.744 213.194 115.688 212.358 114.599C211.736 113.784 211.129 112.987 210.542 112.218L210.845 112.247C209.82 113.142 208.843 113.994 207.932 114.789C207.479 115.182 207.042 115.56 206.623 115.924C206.415 116.103 206.212 116.279 206.013 116.451L205.719 116.703L205.647 116.766L205.61 116.798L205.573 116.826C205.558 116.836 205.541 116.844 205.523 116.849C205.496 116.915 205.262 116.75 205.32 116.676C205.328 116.627 205.324 116.658 205.326 116.645L205.332 116.628L205.343 116.605C205.349 116.597 205.344 116.596 205.342 116.625C205.328 116.662 205.396 116.757 205.423 116.749C205.466 116.757 205.428 116.752 205.414 116.756L205.28 116.8L205.234 116.649C204.76 115.092 204.424 113.817 204.24 112.92C204.102 112.462 204.05 111.983 204.088 111.506C204.117 111.508 204.164 112.003 204.412 112.879C204.647 113.755 205.028 115.015 205.536 116.551L205.355 116.444C205.413 116.43 205.474 116.431 205.531 116.448C205.57 116.462 205.604 116.489 205.628 116.524C205.651 116.558 205.663 116.6 205.662 116.642C205.659 116.68 205.649 116.716 205.631 116.75C205.614 116.741 205.661 116.785 205.592 116.732C205.555 116.716 205.518 116.701 205.48 116.689C205.471 116.659 205.456 116.632 205.435 116.609C205.42 116.59 205.419 116.604 205.389 116.561L205.391 116.56L205.393 116.558L205.399 116.553L205.433 116.522L205.503 116.459L205.791 116.199C205.986 116.024 206.186 115.844 206.391 115.66C206.803 115.291 207.233 114.906 207.681 114.505C208.585 113.701 209.553 112.84 210.57 111.936L210.736 111.788L210.872 111.966C211.461 112.733 212.071 113.528 212.694 114.341C213.527 115.434 214.333 116.493 215.089 117.484L214.763 117.485C216.459 115.273 217.989 112.939 219.341 110.502L219.448 110.31L219.559 110.494C220.069 111.338 220.384 112.041 220.676 112.477C220.958 112.918 221.159 113.123 221.139 113.143Z" fill="#455A64"/>
<path d="M207.168 101.871C207.159 102.133 207.113 102.391 207.032 102.64C206.918 103.127 206.731 103.827 206.482 104.686C205.983 106.405 205.21 108.757 204.21 111.299C203.208 113.842 202.171 116.09 201.364 117.687C200.961 118.486 200.621 119.126 200.372 119.56C200.262 119.797 200.12 120.018 199.948 120.215C200.276 119.307 200.658 118.42 201.094 117.558C201.829 115.933 202.818 113.676 203.816 111.144C204.811 108.612 205.626 106.287 206.196 104.597C206.464 103.669 206.789 102.759 207.168 101.871Z" fill="#455A64"/>
<path d="M212.884 86.8358C212.912 86.9343 211.543 87.2999 209.485 87.4425L209.635 87.1557C210.104 87.9174 210.615 88.7478 211.156 89.628C211.492 90.1899 211.815 90.7316 212.12 91.2415L212.351 91.6291L211.911 91.5451C210.451 91.3272 208.978 91.2036 207.502 91.1751C207.905 91.0332 208.329 90.9638 208.756 90.9704C209.835 90.9036 210.918 90.9629 211.983 91.1472L211.774 91.4508C211.464 90.9445 211.136 90.4066 210.795 89.8486C210.268 88.9605 209.771 88.1224 209.315 87.3538L209.153 87.0799L209.465 87.0668C210.482 87.0247 211.338 86.96 211.934 86.9043C212.248 86.8484 212.566 86.8254 212.884 86.8358Z" fill="#455A64"/>
<path d="M220.14 93.1032C220.128 93.1719 218.992 92.8929 217.026 92.8455L217.155 92.6937C217.622 94.5497 218.244 97.0168 218.959 99.8606L219.043 100.193L218.716 100.103C217.156 99.6747 215.459 99.2089 213.69 98.7231C213.227 98.5946 212.77 98.4676 212.319 98.3423L212.59 98.1314C212.701 100.858 212.804 103.384 212.893 105.558L212.903 105.797L212.681 105.735C210.733 105.189 209.093 104.73 207.855 104.384C207.328 104.225 206.886 104.092 206.52 103.981C206.359 103.945 206.204 103.885 206.06 103.805C206.225 103.807 206.39 103.832 206.549 103.88C206.921 103.965 207.369 104.067 207.906 104.189C209.15 104.498 210.797 104.907 212.755 105.393L212.543 105.57C212.434 103.398 212.306 100.873 212.168 98.1492L212.154 97.8592L212.439 97.9381C212.889 98.0623 213.345 98.1884 213.807 98.3162C215.57 98.8089 217.261 99.2815 218.815 99.7158L218.572 99.9582C217.911 97.0958 217.338 94.6126 216.907 92.7446L216.87 92.583L217.037 92.5927C217.81 92.6324 218.579 92.7305 219.338 92.8861C219.613 92.9258 219.882 92.9987 220.14 93.1032Z" fill="#455A64"/>
<path d="M221.139 113.143C220.91 112.987 220.715 112.787 220.565 112.554C220.23 112.132 219.873 111.436 219.345 110.631L219.564 110.622C218.283 113.119 216.786 115.498 215.089 117.732L214.927 117.945L214.764 117.733C214.005 116.744 213.194 115.688 212.358 114.599C211.736 113.784 211.129 112.987 210.542 112.218L210.845 112.247C209.82 113.142 208.843 113.994 207.932 114.789C207.479 115.182 207.042 115.56 206.623 115.924C206.415 116.103 206.212 116.279 206.013 116.451L205.719 116.703L205.647 116.766L205.61 116.798L205.573 116.826C205.558 116.836 205.541 116.844 205.523 116.849C205.496 116.915 205.262 116.75 205.32 116.676C205.328 116.627 205.324 116.658 205.326 116.645L205.332 116.628L205.343 116.605C205.349 116.597 205.344 116.596 205.342 116.625C205.328 116.662 205.396 116.757 205.423 116.749C205.466 116.757 205.428 116.752 205.414 116.756L205.28 116.8L205.234 116.649C204.76 115.092 204.424 113.817 204.24 112.92C204.102 112.462 204.05 111.983 204.088 111.506C204.117 111.508 204.164 112.003 204.412 112.879C204.647 113.755 205.028 115.015 205.536 116.551L205.355 116.444C205.413 116.43 205.474 116.431 205.531 116.448C205.57 116.462 205.604 116.489 205.628 116.524C205.651 116.558 205.663 116.6 205.662 116.642C205.659 116.68 205.649 116.716 205.631 116.75C205.614 116.741 205.661 116.785 205.592 116.732C205.555 116.716 205.518 116.701 205.48 116.689C205.471 116.659 205.456 116.632 205.435 116.609C205.42 116.59 205.419 116.604 205.389 116.561L205.391 116.56L205.393 116.558L205.399 116.553L205.433 116.522L205.503 116.459L205.791 116.199C205.986 116.024 206.186 115.844 206.391 115.66C206.803 115.291 207.233 114.906 207.681 114.505C208.585 113.701 209.553 112.84 210.57 111.936L210.736 111.788L210.872 111.966C211.461 112.733 212.071 113.528 212.694 114.341C213.527 115.434 214.333 116.493 215.089 117.484L214.763 117.485C216.459 115.273 217.989 112.939 219.341 110.502L219.448 110.31L219.559 110.494C220.069 111.338 220.384 112.041 220.676 112.477C220.958 112.918 221.159 113.123 221.139 113.143Z" fill="#455A64"/>
<path d="M207.168 101.871C207.159 102.133 207.113 102.391 207.032 102.64C206.918 103.127 206.731 103.827 206.482 104.686C205.983 106.405 205.21 108.757 204.21 111.299C203.208 113.842 202.171 116.09 201.364 117.687C200.961 118.486 200.621 119.126 200.372 119.56C200.262 119.797 200.12 120.018 199.948 120.215C200.276 119.307 200.658 118.42 201.094 117.558C201.829 115.933 202.818 113.676 203.816 111.144C204.811 108.612 205.626 106.287 206.196 104.597C206.464 103.669 206.789 102.759 207.168 101.871Z" fill="#455A64"/>
<mask id="path-81-inside-1_2_1956" fill="white">
<path fill-rule="evenodd" clip-rule="evenodd" d="M91.5932 19.7372C91.5932 22.4773 91.5932 25.2174 91.7237 28.0881C92.2457 55.6216 92.8981 93.0723 47.2264 108.862L45.9215 109.123L44.6166 108.862C-1.11907 93.0952 -0.404742 55.6001 0.11712 28.2074L0.119393 28.0881C0.249883 25.2173 0.249884 22.477 0.249884 19.7367C0.249884 17.5183 1.94626 15.822 4.1646 15.822C20.4759 15.822 32.8725 11.1243 43.1812 1.07655C44.7471 -0.358849 47.096 -0.358849 48.6618 1.07655C58.9706 11.1243 71.3672 15.822 87.6785 15.822C89.8968 15.822 91.5932 17.5183 91.5932 19.7367V19.7372Z"/>
</mask>
<path fill-rule="evenodd" clip-rule="evenodd" d="M91.5932 19.7372C91.5932 22.4773 91.5932 25.2174 91.7237 28.0881C92.2457 55.6216 92.8981 93.0723 47.2264 108.862L45.9215 109.123L44.6166 108.862C-1.11907 93.0952 -0.404742 55.6001 0.11712 28.2074L0.119393 28.0881C0.249883 25.2173 0.249884 22.477 0.249884 19.7367C0.249884 17.5183 1.94626 15.822 4.1646 15.822C20.4759 15.822 32.8725 11.1243 43.1812 1.07655C44.7471 -0.358849 47.096 -0.358849 48.6618 1.07655C58.9706 11.1243 71.3672 15.822 87.6785 15.822C89.8968 15.822 91.5932 17.5183 91.5932 19.7367V19.7372Z" fill="url(#paint0_linear_2_1956)"/>
<path d="M91.7237 28.0881L98.7224 27.9554L98.7207 27.8628L98.7165 27.7702L91.7237 28.0881ZM47.2264 108.862L48.5992 115.726L49.0649 115.633L49.5136 115.477L47.2264 108.862ZM45.9215 109.123L44.5487 115.987L45.9215 116.261L47.2943 115.987L45.9215 109.123ZM44.6166 108.862L42.3353 115.479L42.7813 115.633L43.2438 115.726L44.6166 108.862ZM0.11712 28.2074L7.11585 28.3407V28.3407L0.11712 28.2074ZM0.119393 28.0881L-6.87339 27.7702L-6.87758 27.8624L-6.87934 27.9547L0.119393 28.0881ZM43.1812 1.07655L38.4512 -4.08353L38.3721 -4.01108L38.2954 -3.93625L43.1812 1.07655ZM48.6618 1.07655L53.5477 -3.93625L53.4709 -4.01109L53.3919 -4.08354L48.6618 1.07655ZM98.7165 27.7702C98.5943 25.083 98.5932 22.4981 98.5932 19.7372H84.5932C84.5932 22.4565 84.5921 25.3519 84.7309 28.4059L98.7165 27.7702ZM49.5136 115.477C74.2876 106.913 87.1372 92.0945 93.3609 75.313C99.3761 59.0933 98.9793 41.5079 98.7224 27.9554L84.7249 28.2207C84.99 42.2017 85.1805 57.1084 80.2345 70.4449C75.4969 83.2194 65.8369 95.0212 44.9393 102.246L49.5136 115.477ZM47.2943 115.987L48.5992 115.726L45.8536 101.998L44.5487 102.259L47.2943 115.987ZM43.2438 115.726L44.5487 115.987L47.2943 102.259L45.9894 101.998L43.2438 115.726ZM-6.88161 28.0741C-7.13837 41.5515 -7.55126 59.1155 -1.54348 75.3268C4.67329 92.1021 17.5264 106.927 42.3353 115.479L46.898 102.244C25.9712 95.0298 16.3136 83.224 11.5841 70.4619C6.64554 57.1358 6.85075 42.256 7.11585 28.3407L-6.88161 28.0741ZM-6.87934 27.9547L-6.88161 28.0741L7.11585 28.3407L7.11812 28.2214L-6.87934 27.9547ZM-6.75012 19.7367C-6.75012 22.4978 -6.75123 25.0828 -6.87339 27.7702L7.11217 28.4059C7.251 25.3518 7.24988 22.4561 7.24988 19.7367H-6.75012ZM4.1646 8.82197C-1.91973 8.82197 -6.75012 13.6524 -6.75012 19.7367H7.24988C7.24988 20.4584 6.95448 21.2678 6.32511 21.8972C5.69574 22.5266 4.88633 22.822 4.1646 22.822V8.82197ZM38.2954 -3.93625C29.4669 4.66871 18.9073 8.82197 4.1646 8.82197V22.822C22.0445 22.822 36.2781 17.5799 48.0671 6.08934L38.2954 -3.93625ZM53.3919 -4.08354C49.1498 -7.97215 42.6933 -7.97216 38.4512 -4.08353L47.9113 6.23662C46.8009 7.25446 45.0421 7.25445 43.9318 6.23663L53.3919 -4.08354ZM87.6785 8.82197C72.9358 8.82197 62.3762 4.66871 53.5477 -3.93625L43.776 6.08934C55.565 17.5799 69.7986 22.822 87.6785 22.822V8.82197ZM98.5932 19.7367C98.5932 13.6524 93.7628 8.82197 87.6785 8.82197V22.822C86.9568 22.822 86.1473 22.5266 85.518 21.8972C84.8886 21.2678 84.5932 20.4584 84.5932 19.7367H98.5932ZM98.5932 19.7372V19.7367H84.5932V19.7372H98.5932Z" fill="white" mask="url(#path-81-inside-1_2_1956)"/>
<g filter="url(#filter1_d_2_1956)">
<circle cx="82.8389" cy="23" r="11" fill="#00CACE"/>
</g>
<path d="M88.3389 19.75L81.4639 26.625L78.3389 23.5" stroke="white" stroke-width="2" stroke-linecap="round" stroke-linejoin="round"/>
<g filter="url(#filter2_d_2_1956)">
<circle cx="102.339" cy="155.5" r="31.5" fill="#00CACE"/>
</g>
<path d="M100.339 157.25C100.876 157.968 101.561 158.561 102.347 158.991C103.134 159.421 104.003 159.676 104.897 159.74C105.791 159.804 106.688 159.675 107.528 159.362C108.368 159.049 109.13 158.559 109.764 157.925L113.514 154.175C114.652 152.996 115.282 151.417 115.268 149.779C115.254 148.14 114.597 146.572 113.438 145.414C112.279 144.255 110.711 143.598 109.073 143.583C107.434 143.569 105.855 144.199 104.676 145.338L102.526 147.475" stroke="white" stroke-width="3" stroke-linecap="round" stroke-linejoin="round"/>
<path d="M105.339 154.75C104.802 154.032 104.117 153.439 103.331 153.009C102.544 152.579 101.674 152.324 100.781 152.26C99.8866 152.196 98.9894 152.325 98.1497 152.638C97.31 152.951 96.5475 153.441 95.9139 154.075L92.1639 157.825C91.0254 159.004 90.3954 160.583 90.4097 162.221C90.4239 163.86 91.0812 165.428 92.24 166.586C93.3988 167.745 94.9664 168.402 96.6051 168.417C98.2438 168.431 99.8226 167.801 101.001 166.663L103.139 164.525" stroke="white" stroke-width="3" stroke-linecap="round" stroke-linejoin="round"/>
<defs>
<filter id="filter0_d_2_1956" x="31.8389" y="35" width="140.098" height="260.858" filterUnits="userSpaceOnUse" color-interpolation-filters="sRGB">
<feFlood flood-opacity="0" result="BackgroundImageFix"/>
<feColorMatrix in="SourceAlpha" type="matrix" values="0 0 0 0 0 0 0 0 0 0 0 0 0 0 0 0 0 0 127 0" result="hardAlpha"/>
<feOffset dy="10"/>
<feGaussianBlur stdDeviation="5"/>
<feColorMatrix type="matrix" values="0 0 0 0 0.12549 0 0 0 0 0.12549 0 0 0 0 0.137255 0 0 0 0.05 0"/>
<feBlend mode="normal" in2="BackgroundImageFix" result="effect1_dropShadow_2_1956"/>
<feBlend mode="normal" in="SourceGraphic" in2="effect1_dropShadow_2_1956" result="shape"/>
</filter>
<filter id="filter1_d_2_1956" x="61.8389" y="2" width="42" height="42" filterUnits="userSpaceOnUse" color-interpolation-filters="sRGB">
<feFlood flood-opacity="0" result="BackgroundImageFix"/>
<feColorMatrix in="SourceAlpha" type="matrix" values="0 0 0 0 0 0 0 0 0 0 0 0 0 0 0 0 0 0 127 0" result="hardAlpha"/>
<feOffset/>
<feGaussianBlur stdDeviation="5"/>
<feColorMatrix type="matrix" values="0 0 0 0 0.12549 0 0 0 0 0.12549 0 0 0 0 0.137255 0 0 0 0.1 0"/>
<feBlend mode="normal" in2="BackgroundImageFix" result="effect1_dropShadow_2_1956"/>
<feBlend mode="normal" in="SourceGraphic" in2="effect1_dropShadow_2_1956" result="shape"/>
</filter>
<filter id="filter2_d_2_1956" x="55.8389" y="109" width="93" height="93" filterUnits="userSpaceOnUse" color-interpolation-filters="sRGB">
<feFlood flood-opacity="0" result="BackgroundImageFix"/>
<feColorMatrix in="SourceAlpha" type="matrix" values="0 0 0 0 0 0 0 0 0 0 0 0 0 0 0 0 0 0 127 0" result="hardAlpha"/>
<feOffset/>
<feGaussianBlur stdDeviation="7.5"/>
<feColorMatrix type="matrix" values="0 0 0 0 0.12549 0 0 0 0 0.12549 0 0 0 0 0.137255 0 0 0 0.15 0"/>
<feBlend mode="normal" in2="BackgroundImageFix" result="effect1_dropShadow_2_1956"/>
<feBlend mode="normal" in="SourceGraphic" in2="effect1_dropShadow_2_1956" result="shape"/>
</filter>
<linearGradient id="paint0_linear_2_1956" x1="23.8389" y1="97.5" x2="77.3389" y2="14" gradientUnits="userSpaceOnUse">
<stop stop-color="#C8B3FD"/>
<stop offset="1" stop-color="#8F6BEA"/>
</linearGradient>
</defs>
</svg>
