<svg width="294" height="242" viewBox="0 0 294 242" fill="none" xmlns="http://www.w3.org/2000/svg">
<path d="M74.7365 160.917C72.744 162 70.5218 162.592 68.2546 162.643C65.59 162.801 62.9219 162.398 60.4231 161.459C55.9842 159.784 52.2693 157.237 51.1471 152.434C50.2625 148.648 51.6668 144.382 50.0125 140.758C48.4505 137.336 43.4002 134.978 40.0129 133.902C37.6334 133.146 35.1345 132.784 32.7996 131.901C31.6057 131.527 30.5 130.915 29.5497 130.101C28.5993 129.288 27.824 128.29 27.2708 127.168C25.0258 121.662 31.1381 115.421 29.1324 109.824C28.1375 107.047 25.4254 105.333 22.9317 103.758C20.438 102.183 17.7943 100.274 17.1096 97.4057C16.8904 96.0798 17.0014 94.7203 17.4328 93.4475C17.8642 92.1747 18.6026 91.0279 19.5828 90.1085C24.0327 85.5035 31.5205 85.0584 37.5022 87.3449C39.3473 88.1788 41.2365 88.9115 43.1614 89.5396C50.6964 91.5106 58.7135 86.5662 66.294 88.3542C68.7288 88.9646 70.9493 90.2319 72.7132 92.018C74.477 93.804 75.7164 96.0402 76.2962 98.4825C76.6634 100.132 76.7165 101.84 77.0992 103.486C78.0599 107.619 82.4233 108.496 83.4652 112.73C84.4074 116.56 83.2107 120.595 82.5518 124.37C81.5385 130.173 80.4007 135.955 79.1973 141.721C78.5434 144.854 77.8725 147.983 77.1845 151.109C76.5489 153.983 77.3867 157.141 76.1015 159.783C75.6703 160.189 75.2144 160.568 74.7365 160.917Z" fill="#E6344A"/>
<path d="M76.8545 140.447C76.8881 140.447 76.9216 140.445 76.9547 140.44C77.1251 140.413 77.2781 140.32 77.38 140.181C77.482 140.042 77.5245 139.868 77.4983 139.698C74.244 118.589 44.5939 93.6311 25.6566 91.1047C25.5713 91.0919 25.4842 91.0962 25.4006 91.1174C25.3169 91.1386 25.2384 91.1762 25.1694 91.228C25.1004 91.2798 25.0424 91.3449 24.9988 91.4193C24.9552 91.4937 24.9269 91.5761 24.9155 91.6616C24.904 91.7471 24.9096 91.8341 24.9321 91.9174C24.9546 92.0007 24.9934 92.0787 25.0463 92.1468C25.0992 92.215 25.1651 92.272 25.2402 92.3144C25.3153 92.3568 25.3981 92.3839 25.4838 92.394C44.0172 94.8665 73.0324 119.264 76.2129 139.896C76.2365 140.049 76.3142 140.189 76.4318 140.29C76.5495 140.391 76.6994 140.447 76.8545 140.447Z" fill="#F5F5F5"/>
<path d="M59.912 112.228C60.0739 112.227 60.2299 112.166 60.3494 112.057C60.469 111.948 60.5435 111.798 60.5585 111.637C61.7411 98.7539 66.422 93.7543 66.4688 93.7055C66.5889 93.5817 66.6549 93.4152 66.6523 93.2428C66.6496 93.0703 66.5786 92.906 66.4548 92.7859C66.331 92.6658 66.1646 92.5999 65.9922 92.6025C65.8197 92.6051 65.6553 92.6761 65.5353 92.7999C65.3294 93.0108 60.4938 98.1201 59.263 111.517C59.2473 111.689 59.3004 111.86 59.4106 111.993C59.5209 112.126 59.6793 112.209 59.851 112.225C59.8715 112.227 59.8918 112.228 59.912 112.228Z" fill="#F5F5F5"/>
<path d="M39.2959 122.975C39.3832 122.975 39.4697 122.958 39.55 122.923C39.6947 122.862 54.2257 116.781 66.4082 120.089C66.4906 120.111 66.5766 120.117 66.6613 120.106C66.746 120.095 66.8277 120.068 66.9017 120.025C66.9758 119.983 67.0408 119.926 67.093 119.859C67.1451 119.791 67.1835 119.714 67.2058 119.631C67.2282 119.549 67.2341 119.463 67.2232 119.378C67.2123 119.294 67.1848 119.212 67.1424 119.138C67.0999 119.064 67.0433 118.999 66.9757 118.947C66.9081 118.895 66.831 118.856 66.7485 118.834C54.1279 115.405 39.6515 121.468 39.0406 121.727C38.9028 121.786 38.7896 121.89 38.7201 122.023C38.6506 122.156 38.629 122.308 38.6591 122.455C38.6891 122.602 38.7688 122.734 38.8848 122.829C39.0009 122.923 39.1461 122.975 39.2959 122.975Z" fill="#F5F5F5"/>
<path d="M46.2319 198.809C45.7012 192.409 44.224 186.123 41.8486 180.156C37.9557 170.549 31.2031 162.756 22.5817 160.931C13.9602 159.106 10.6744 163.614 11.399 168.713C12.1235 173.812 19.3724 177.692 24.2366 181.973C29.1007 186.254 38.1831 196.601 40.7081 206.6L45.5711 207.131L46.2319 198.809Z" fill="#5351FD"/>
<path d="M43.7696 207.16C43.7611 207.16 43.7533 207.16 43.7456 207.16C43.6501 207.153 43.5609 207.109 43.4977 207.037C43.4345 206.966 43.4025 206.871 43.4086 206.776C44.5071 189.638 33.3426 170.685 17.9901 163.627C17.9035 163.587 17.8364 163.514 17.8034 163.424C17.7705 163.334 17.7744 163.235 17.8143 163.149C17.8542 163.062 17.9269 162.995 18.0164 162.961C18.1059 162.928 18.2049 162.932 18.2918 162.971C33.8968 170.145 45.2459 189.407 44.1292 206.822C44.1233 206.914 44.0829 207 44.0161 207.062C43.9493 207.125 43.8612 207.16 43.7696 207.16Z" fill="#F5F5F5"/>
<path d="M45.9046 237.346C45.9046 237.346 40.8782 240.523 33.0255 239.171C25.1727 237.819 23.5004 232.481 22.8303 227.193C22.1601 221.905 18.3012 224.319 13.0433 222.141C7.78538 219.963 6.91274 214.562 8.08385 210.5C8.58852 208.738 9.49063 207.114 10.7209 205.755C10.7209 205.755 7.00537 204.125 3.64329 198.49C2.21485 195.953 0.996353 193.304 0 190.569C0 190.569 4.27494 187.305 12.7162 189.075C15.5384 189.709 18.2027 190.909 20.5482 192.602C20.5482 192.602 25.1804 187.397 31.4441 189.313C32.4981 189.646 33.4605 190.219 34.2559 190.986C35.0513 191.754 35.6579 192.696 36.0283 193.737C36.3139 194.613 36.6571 195.47 37.0557 196.301C37.4243 196.817 37.902 197.246 38.4549 197.558C39.0079 197.869 39.6226 198.055 40.2554 198.102C43.2396 198.53 46.004 198.03 48.7806 199.556C50.1112 200.408 51.1838 201.607 51.8824 203.025C55.9644 210.227 45.9046 237.346 45.9046 237.346Z" fill="#5351FD"/>
<path d="M49.3526 227.119C49.2909 227.119 49.2302 227.103 49.1764 227.073C49.1226 227.043 49.0774 226.999 49.0452 226.947C36.7857 207.038 17.3581 195.53 4.44718 191.725C4.35537 191.697 4.2781 191.635 4.23236 191.551C4.18661 191.467 4.17614 191.368 4.20326 191.276C4.23037 191.184 4.29284 191.107 4.37693 191.061C4.46101 191.016 4.55983 191.005 4.65164 191.032C17.6853 194.873 37.2934 206.485 49.66 226.569C49.6848 226.609 49.7015 226.654 49.7089 226.701C49.7164 226.748 49.7146 226.795 49.7036 226.842C49.6926 226.888 49.6726 226.931 49.6448 226.969C49.617 227.008 49.5819 227.04 49.5416 227.065C49.4849 227.101 49.4194 227.119 49.3526 227.119Z" fill="#F5F5F5"/>
<path d="M16.9237 211.477C16.8504 211.477 16.7787 211.455 16.7184 211.413C16.658 211.372 16.6118 211.313 16.5859 211.244C16.5599 211.175 16.5555 211.101 16.5731 211.029C16.5908 210.958 16.6297 210.894 16.6847 210.845C16.9308 210.628 22.7975 205.532 30.7709 205.398C30.8188 205.396 30.8667 205.403 30.9116 205.42C30.9566 205.436 30.9976 205.462 31.0321 205.495C31.0666 205.529 31.0938 205.569 31.1121 205.613C31.1303 205.657 31.1392 205.705 31.1382 205.753C31.1399 205.849 31.1034 205.941 31.0369 206.01C30.9704 206.079 30.8793 206.119 30.7836 206.12C23.0732 206.249 17.2205 211.336 17.1627 211.387C17.0968 211.445 17.0117 211.477 16.9237 211.477Z" fill="#F5F5F5"/>
<path d="M26.1787 202.639C26.09 202.639 26.0045 202.607 25.9384 202.547C25.8723 202.488 25.8304 202.407 25.8205 202.319C25.5344 199.119 26.087 195.901 27.4238 192.98C27.4664 192.894 27.5413 192.829 27.632 192.798C27.7228 192.768 27.822 192.774 27.9078 192.817C27.9936 192.86 28.059 192.934 28.0896 193.025C28.1202 193.116 28.1135 193.215 28.071 193.301C26.8094 196.102 26.2819 199.177 26.5383 202.238C26.5488 202.333 26.5211 202.429 26.4614 202.504C26.4017 202.578 26.3147 202.627 26.2196 202.637C26.206 202.639 26.1924 202.639 26.1787 202.639Z" fill="#F5F5F5"/>
<path d="M210.907 39.296L216.896 42.7485V53.1196L210.907 49.6628V39.296Z" fill="#263238"/>
<path d="M206.319 14.2864L186.958 25.4643V3.10839C186.978 2.56374 186.849 2.02394 186.585 1.54702C186.322 1.0701 185.933 0.674106 185.461 0.401618C184.989 0.12913 184.451 -0.00954304 183.907 0.000510249C183.362 0.0105635 182.83 0.168964 182.368 0.458678L86.5979 55.7517C82.8967 57.8886 81.0459 60.6893 81.0459 63.4902V156.827C81.0459 159.628 82.8967 162.429 86.5979 164.566L86.7348 164.645C94.1373 168.919 106.139 168.919 113.542 164.645L209.312 109.352C209.776 109.048 210.162 108.64 210.439 108.16C210.716 107.68 210.877 107.141 210.908 106.588V15.0936L209.411 14.2294C208.927 13.9954 208.395 13.8786 207.858 13.8885C207.321 13.8984 206.793 14.0347 206.319 14.2864Z" fill="#00CE99"/>
<path d="M186.958 20.5344L186.958 9.65501C186.934 9.21206 186.806 8.78101 186.584 8.39685C186.362 8.01269 186.053 7.68623 185.681 7.44397L185.24 7.18947C184.845 6.98878 184.407 6.88419 183.964 6.88419C183.52 6.88419 183.083 6.98878 182.687 7.18947L82.1748 65.2205L97.1439 73.8621L185.682 22.7454C186.053 22.5032 186.362 22.1767 186.584 21.7926C186.806 21.4084 186.934 20.9773 186.958 20.5344Z" fill="#E0E0E0"/>
<path d="M182.687 7.18947L82.1748 65.2205L85.1694 66.9486L185.681 8.91802C185.835 8.86589 185.969 8.76674 186.064 8.63453C186.159 8.50233 186.21 8.34371 186.21 8.18099C186.21 8.01828 186.159 7.85966 186.064 7.72745C185.969 7.59525 185.835 7.4961 185.681 7.44397L185.24 7.18947C184.845 6.98878 184.407 6.88419 183.964 6.88419C183.52 6.88419 183.083 6.98878 182.687 7.18947Z" fill="#EBEBEB"/>
<path d="M188.675 10.6458L88.1631 68.6769L91.1577 70.405L191.669 12.3744C191.824 12.3223 191.958 12.2231 192.052 12.0909C192.147 11.9587 192.198 11.8001 192.198 11.6374C192.198 11.4747 192.147 11.3161 192.052 11.1838C191.958 11.0516 191.824 10.9525 191.669 10.9004L191.229 10.6458C190.833 10.4451 190.396 10.3405 189.952 10.3405C189.508 10.3405 189.071 10.4451 188.675 10.6458Z" fill="#EBEBEB"/>
<path d="M194.662 14.1005L94.1494 72.1316L97.144 73.8597L197.656 15.8291C197.81 15.777 197.944 15.6778 198.039 15.5456C198.134 15.4134 198.185 15.2548 198.185 15.0921C198.185 14.9294 198.134 14.7708 198.039 14.6386C197.944 14.5064 197.81 14.4072 197.656 14.3551L197.215 14.1005C196.819 13.8998 196.382 13.7953 195.938 13.7953C195.495 13.7953 195.057 13.8998 194.662 14.1005Z" fill="#EBEBEB"/>
<path d="M86.5984 71.23C79.2263 66.9737 79.2263 60.0089 86.5984 55.7527L182.369 0.459672C182.844 0.207994 183.371 0.0716786 183.908 0.0617696C184.446 0.0518606 184.978 0.168635 185.461 0.402634C186.288 0.87993 186.244 1.67937 185.363 2.18814L92.2664 55.9367C91.3851 56.4456 89.9462 57.258 89.1325 57.8691C84.8121 61.1138 84.4199 65.4408 88.143 68.4996C89.1207 69.2435 90.1848 69.8663 91.3121 70.3546C96.6527 72.5854 104.302 72.3614 109.987 69.7961C110.915 69.3775 112.341 68.5455 113.223 68.0367L206.319 14.2875C206.794 14.0358 207.321 13.8994 207.859 13.8895C208.396 13.8796 208.928 13.9963 209.412 14.2303C210.238 14.7076 210.194 15.5071 209.313 16.0159L113.543 71.3089C106.17 75.5652 94.1071 75.5652 86.735 71.3089L86.5984 71.23Z" fill="#27DEBF"/>
<path opacity="0.3" d="M86.5984 71.23C79.2263 66.9737 79.2263 60.0089 86.5984 55.7527L182.369 0.459672C182.844 0.207994 183.371 0.0716786 183.908 0.0617696C184.446 0.0518606 184.978 0.168635 185.461 0.402634C186.288 0.87993 186.244 1.67937 185.363 2.18814L92.2664 55.9367C91.3851 56.4456 89.9462 57.258 89.1325 57.8691C84.8121 61.1138 84.4199 65.4408 88.143 68.4996C89.1207 69.2435 90.1848 69.8663 91.3121 70.3546C96.6527 72.5854 104.302 72.3614 109.987 69.7961C110.915 69.3775 112.341 68.5455 113.223 68.0367L206.319 14.2875C206.794 14.0358 207.321 13.8994 207.859 13.8895C208.396 13.8796 208.928 13.9963 209.412 14.2303C210.238 14.7076 210.194 15.5071 209.313 16.0159L113.543 71.3089C106.17 75.5652 94.1071 75.5652 86.735 71.3089L86.5984 71.23Z" fill="black"/>
<path d="M84.1987 76.7995C84.1116 76.7995 84.0275 76.7681 83.9617 76.711C83.4919 76.3049 83.0548 75.8624 82.6546 75.3876C82.5935 75.3141 82.5641 75.2194 82.5728 75.1242C82.5814 75.029 82.6275 74.9411 82.7008 74.8798C82.7741 74.8185 82.8688 74.7888 82.964 74.7971C83.0592 74.8055 83.1472 74.8512 83.2088 74.9244C83.5842 75.37 83.9944 75.7852 84.4355 76.166C84.491 76.2143 84.5303 76.2783 84.5484 76.3496C84.5665 76.4209 84.5623 76.4959 84.5366 76.5648C84.5108 76.6337 84.4647 76.693 84.4043 76.7349C84.3439 76.7769 84.2722 76.7994 84.1987 76.7995Z" fill="#F5F5F5"/>
<path d="M101.304 81.7546C101.209 81.7546 101.119 81.7175 101.051 81.6511C100.984 81.5848 100.945 81.4946 100.943 81.4C100.941 81.3054 100.977 81.2139 101.042 81.1452C101.107 81.0766 101.197 81.0363 101.291 81.033C102.491 80.9913 103.686 80.8815 104.873 80.704C104.968 80.6898 105.064 80.7138 105.141 80.7708C105.218 80.8277 105.27 80.9129 105.284 81.0076C105.298 81.1023 105.274 81.1988 105.217 81.2758C105.16 81.3528 105.075 81.4041 104.98 81.4183C103.766 81.5996 102.543 81.7118 101.317 81.7542L101.304 81.7546ZM97.6668 81.6816L97.6386 81.6806C96.4146 81.5888 95.1971 81.4259 93.9921 81.1927C93.9453 81.1838 93.9008 81.1658 93.8611 81.1397C93.8214 81.1135 93.7872 81.0798 93.7605 81.0404C93.7338 81.0011 93.7152 80.9568 93.7057 80.9102C93.6962 80.8636 93.696 80.8156 93.7051 80.7689C93.7142 80.7223 93.7324 80.6778 93.7588 80.6382C93.7851 80.5986 93.819 80.5646 93.8585 80.5381C93.898 80.5117 93.9423 80.4933 93.989 80.484C94.0356 80.4747 94.0836 80.4747 94.1302 80.4841C95.3078 80.7119 96.4976 80.8711 97.6936 80.9607C97.7865 80.9679 97.8731 81.0108 97.9351 81.0804C97.9972 81.15 98.0299 81.2408 98.0264 81.334C98.023 81.4272 97.9836 81.5154 97.9166 81.5802C97.8495 81.6449 97.76 81.6813 97.6668 81.6816ZM108.484 80.661C108.397 80.6611 108.313 80.6296 108.247 80.5724C108.181 80.5152 108.139 80.436 108.127 80.3497C108.115 80.2633 108.134 80.1755 108.182 80.1026C108.23 80.0296 108.302 79.9764 108.386 79.9528C109.537 79.6299 110.662 79.2198 111.75 78.7261C111.837 78.6867 111.936 78.6834 112.026 78.7169C112.115 78.7504 112.187 78.818 112.227 78.9048C112.267 78.9916 112.271 79.0905 112.237 79.1801C112.204 79.2696 112.137 79.3424 112.051 79.3825C110.928 79.8919 109.769 80.3147 108.582 80.6473C108.551 80.6565 108.518 80.6611 108.484 80.661ZM90.5451 80.2726C90.5057 80.2726 90.4667 80.2662 90.4294 80.2535C89.2591 79.8613 88.1237 79.3714 87.0353 78.7892C86.9935 78.7667 86.9564 78.7363 86.9263 78.6995C86.8963 78.6628 86.8737 78.6205 86.86 78.575C86.8464 78.5295 86.8418 78.4818 86.8466 78.4345C86.8514 78.3873 86.8654 78.3414 86.888 78.2996C86.9105 78.2578 86.9411 78.2209 86.978 78.1909C87.0148 78.161 87.0572 78.1386 87.1027 78.125C87.1483 78.1115 87.196 78.1071 87.2432 78.112C87.2905 78.117 87.3363 78.1312 87.378 78.1539C88.4308 78.7167 89.5288 79.1902 90.6607 79.5696C90.7418 79.597 90.8105 79.6523 90.8546 79.7257C90.8987 79.7991 90.9153 79.8857 90.9014 79.9702C90.8875 80.0547 90.844 80.1314 90.7788 80.1868C90.7135 80.2422 90.6307 80.2726 90.5451 80.2726ZM115.094 77.6738C115.015 77.6737 114.938 77.6474 114.875 77.599C114.812 77.5506 114.766 77.4828 114.746 77.4061C114.725 77.3293 114.73 77.248 114.761 77.1746C114.791 77.1012 114.845 77.0398 114.914 77L118.066 75.1803C118.149 75.1327 118.247 75.1199 118.34 75.1447C118.432 75.1696 118.511 75.2301 118.559 75.3129C118.606 75.3957 118.619 75.4941 118.595 75.5865C118.57 75.6789 118.51 75.7578 118.427 75.8057L115.275 77.6255C115.22 77.6571 115.158 77.6738 115.094 77.6738ZM121.399 74.0342C121.319 74.0342 121.242 74.0079 121.179 73.9595C121.116 73.9111 121.071 73.8433 121.05 73.7666C121.03 73.6899 121.035 73.6085 121.065 73.5351C121.096 73.4617 121.15 73.4004 121.218 73.3606L124.37 71.5405C124.453 71.4931 124.551 71.4805 124.643 71.5054C124.735 71.5303 124.814 71.5907 124.862 71.6734C124.909 71.7561 124.923 71.8544 124.898 71.9467C124.873 72.039 124.813 72.1178 124.731 72.1659L121.579 73.9859C121.524 74.0176 121.462 74.0343 121.399 74.0342ZM127.703 70.3944C127.623 70.3943 127.546 70.3681 127.483 70.3197C127.42 70.2713 127.375 70.2035 127.354 70.1268C127.334 70.05 127.339 69.9687 127.369 69.8953C127.4 69.8219 127.453 69.7605 127.522 69.7208L130.674 67.901C130.757 67.8536 130.856 67.841 130.948 67.8659C131.04 67.8908 131.119 67.9513 131.166 68.034C131.214 68.1167 131.227 68.2149 131.203 68.3072C131.178 68.3995 131.118 68.4783 131.035 68.5264L127.883 70.3461C127.828 70.3778 127.766 70.3945 127.703 70.3944ZM134.007 66.7546C133.928 66.7545 133.851 66.7282 133.788 66.6799C133.725 66.6315 133.679 66.5637 133.659 66.4869C133.638 66.4102 133.644 66.3288 133.674 66.2555C133.704 66.1821 133.758 66.1207 133.827 66.0809L136.978 64.2612C137.061 64.2138 137.159 64.2012 137.252 64.2261C137.344 64.251 137.422 64.3114 137.47 64.3941C137.518 64.4769 137.531 64.5751 137.506 64.6674C137.482 64.7597 137.422 64.8385 137.339 64.8866L134.188 66.7063C134.133 66.7379 134.071 66.7546 134.007 66.7546ZM140.311 63.1151C140.232 63.1151 140.154 63.0888 140.091 63.0404C140.028 62.992 139.983 62.9242 139.963 62.8475C139.942 62.7708 139.947 62.6894 139.978 62.616C140.008 62.5426 140.062 62.4812 140.131 62.4415L143.283 60.6214C143.366 60.574 143.464 60.5614 143.556 60.5863C143.648 60.6112 143.727 60.6716 143.775 60.7543C143.822 60.837 143.836 60.9353 143.811 61.0276C143.786 61.1199 143.726 61.1987 143.644 61.2467L140.492 63.0668C140.437 63.0985 140.374 63.1151 140.311 63.1151ZM146.615 59.4753C146.535 59.4752 146.458 59.449 146.395 59.4006C146.332 59.3522 146.287 59.2844 146.266 59.2077C146.246 59.1309 146.251 59.0496 146.282 58.9762C146.312 58.9028 146.366 58.8414 146.434 58.8016L149.587 56.9819C149.67 56.9345 149.768 56.9219 149.86 56.9468C149.952 56.9717 150.031 57.0322 150.079 57.1149C150.126 57.1976 150.139 57.2958 150.115 57.3881C150.09 57.4804 150.03 57.5592 149.948 57.6073L146.795 59.427C146.741 59.4587 146.678 59.4753 146.615 59.4753ZM152.919 55.8359C152.84 55.8358 152.763 55.8095 152.7 55.7611C152.637 55.7127 152.592 55.6449 152.571 55.5682C152.55 55.4915 152.556 55.4101 152.586 55.3367C152.617 55.2633 152.67 55.202 152.739 55.1622L155.891 53.3421C155.974 53.2947 156.072 53.2821 156.164 53.307C156.256 53.3319 156.335 53.3923 156.382 53.475C156.43 53.5577 156.443 53.656 156.419 53.7483C156.394 53.8406 156.334 53.9194 156.252 53.9675L153.1 55.7876C153.045 55.8192 152.983 55.8359 152.919 55.8359ZM159.223 52.196C159.144 52.196 159.067 52.1697 159.004 52.1213C158.941 52.0729 158.895 52.0051 158.875 51.9284C158.854 51.8517 158.86 51.7703 158.89 51.6969C158.92 51.6235 158.974 51.5622 159.043 51.5224L162.195 49.7026C162.278 49.6552 162.376 49.6426 162.469 49.6675C162.561 49.6925 162.639 49.7529 162.687 49.8356C162.735 49.9183 162.748 50.0165 162.723 50.1088C162.699 50.2011 162.639 50.2799 162.556 50.328L159.404 52.1477C159.349 52.1794 159.287 52.196 159.223 52.196ZM165.527 48.5562C165.448 48.5561 165.371 48.5299 165.308 48.4815C165.245 48.4331 165.199 48.3653 165.179 48.2886C165.158 48.2118 165.164 48.1305 165.194 48.0571C165.224 47.9837 165.278 47.9223 165.347 47.8825L168.499 46.0628C168.582 46.0154 168.68 46.0028 168.772 46.0277C168.865 46.0526 168.943 46.1131 168.991 46.1958C169.039 46.2785 169.052 46.3767 169.027 46.469C169.003 46.5613 168.942 46.6401 168.86 46.6882L165.708 48.5079C165.653 48.5396 165.591 48.5562 165.527 48.5562ZM171.832 44.9168C171.752 44.9167 171.675 44.8904 171.612 44.842C171.549 44.7936 171.504 44.7258 171.483 44.6491C171.463 44.5724 171.468 44.491 171.498 44.4176C171.529 44.3442 171.582 44.2829 171.651 44.2431L174.803 42.4234C174.886 42.376 174.984 42.3633 175.076 42.3883C175.168 42.4132 175.247 42.4736 175.295 42.5563C175.342 42.639 175.356 42.7372 175.331 42.8295C175.306 42.9218 175.246 43.0006 175.164 43.0487L172.012 44.8685C171.957 44.9001 171.895 44.9168 171.832 44.9168ZM178.136 41.2769C178.056 41.2769 177.979 41.2506 177.916 41.2022C177.853 41.1538 177.808 41.086 177.787 41.0093C177.767 40.9325 177.772 40.8512 177.802 40.7778C177.833 40.7044 177.886 40.643 177.955 40.6033L181.107 38.7835C181.19 38.7361 181.289 38.7235 181.381 38.7484C181.473 38.7734 181.552 38.8338 181.599 38.9165C181.647 38.9992 181.66 39.0974 181.636 39.1897C181.611 39.282 181.551 39.3608 181.468 39.4089L178.316 41.2286C178.261 41.2603 178.199 41.2769 178.136 41.2769ZM184.439 37.6375C184.36 37.6374 184.283 37.6111 184.22 37.5627C184.157 37.5143 184.112 37.4465 184.091 37.3698C184.07 37.293 184.076 37.2117 184.106 37.1383C184.136 37.0649 184.19 37.0035 184.259 36.9637L187.411 35.1437C187.494 35.0963 187.592 35.0837 187.685 35.1086C187.777 35.1335 187.855 35.194 187.903 35.2767C187.951 35.3594 187.964 35.4576 187.939 35.5499C187.915 35.6422 187.855 35.721 187.772 35.7691L184.62 37.5892C184.565 37.6208 184.503 37.6375 184.439 37.6375ZM190.744 33.9976C190.665 33.9975 190.587 33.9713 190.524 33.9229C190.461 33.8745 190.416 33.8067 190.396 33.7299C190.375 33.6532 190.38 33.5718 190.411 33.4984C190.441 33.425 190.495 33.3637 190.564 33.3239L193.715 31.5042C193.798 31.4568 193.896 31.4442 193.989 31.4691C194.081 31.494 194.159 31.5544 194.207 31.6371C194.255 31.7198 194.268 31.8181 194.243 31.9104C194.219 32.0026 194.159 32.0815 194.076 32.1295L190.925 33.9494C190.87 33.981 190.807 33.9976 190.744 33.9976ZM197.048 30.3578C196.968 30.3577 196.891 30.3314 196.828 30.283C196.765 30.2346 196.72 30.1668 196.699 30.0901C196.679 30.0134 196.684 29.932 196.715 29.8586C196.745 29.7852 196.799 29.7239 196.867 29.6841L200.02 27.8644C200.103 27.817 200.201 27.8043 200.293 27.8293C200.385 27.8542 200.464 27.9146 200.512 27.9973C200.559 28.08 200.572 28.1783 200.548 28.2705C200.523 28.3628 200.463 28.4416 200.381 28.4897L197.228 30.3095C197.174 30.3412 197.111 30.3578 197.048 30.3578Z" fill="#F5F5F5"/>
<path d="M204.922 27.617C204.874 27.617 204.827 27.6077 204.784 27.5895C204.74 27.5714 204.7 27.5448 204.667 27.5113C204.633 27.4777 204.606 27.4379 204.588 27.3941C204.57 27.3503 204.561 27.3034 204.561 27.256V26.0764L203.539 26.6662C203.456 26.7136 203.358 26.7262 203.266 26.7013C203.174 26.6764 203.095 26.6159 203.047 26.5332C203 26.4505 202.987 26.3523 203.011 26.26C203.036 26.1677 203.096 26.0889 203.178 26.0408L204.741 25.1384C204.796 25.1067 204.858 25.09 204.922 25.09C204.985 25.09 205.047 25.1067 205.102 25.1384C205.157 25.1701 205.203 25.2156 205.234 25.2705C205.266 25.3254 205.283 25.3877 205.283 25.451V27.256C205.283 27.3034 205.274 27.3503 205.255 27.3941C205.237 27.438 205.211 27.4778 205.177 27.5113C205.144 27.5448 205.104 27.5714 205.06 27.5895C205.016 27.6077 204.969 27.617 204.922 27.617Z" fill="#F5F5F5"/>
<path d="M204.922 99.9149C204.874 99.915 204.827 99.9056 204.783 99.8875C204.74 99.8694 204.7 99.8428 204.666 99.8093C204.633 99.7757 204.606 99.7359 204.588 99.6921C204.57 99.6483 204.561 99.6014 204.561 99.5539V95.9388C204.561 95.8431 204.599 95.7513 204.666 95.6836C204.734 95.6159 204.826 95.5778 204.922 95.5778C205.017 95.5778 205.109 95.6159 205.177 95.6836C205.244 95.7513 205.283 95.8431 205.283 95.9388V99.5539C205.283 99.6014 205.273 99.6483 205.255 99.6921C205.237 99.7359 205.21 99.7757 205.177 99.8093C205.143 99.8428 205.104 99.8694 205.06 99.8875C205.016 99.9057 204.969 99.915 204.922 99.9149ZM204.922 92.685C204.874 92.685 204.827 92.6757 204.783 92.6575C204.74 92.6394 204.7 92.6128 204.666 92.5793C204.633 92.5458 204.606 92.506 204.588 92.4622C204.57 92.4183 204.561 92.3714 204.561 92.324V88.7092C204.561 88.6135 204.599 88.5217 204.666 88.454C204.734 88.3863 204.826 88.3482 204.922 88.3482C205.017 88.3482 205.109 88.3863 205.177 88.454C205.244 88.5217 205.283 88.6135 205.283 88.7092V92.324C205.283 92.3714 205.273 92.4184 205.255 92.4622C205.237 92.506 205.21 92.5458 205.177 92.5793C205.143 92.6128 205.104 92.6394 205.06 92.6575C205.016 92.6757 204.969 92.685 204.922 92.685ZM204.922 85.4551C204.874 85.4551 204.827 85.4458 204.783 85.4276C204.74 85.4095 204.7 85.3829 204.666 85.3494C204.633 85.3159 204.606 85.2761 204.588 85.2323C204.57 85.1884 204.561 85.1415 204.561 85.0941V81.4793C204.561 81.3836 204.599 81.2918 204.666 81.2241C204.734 81.1564 204.826 81.1183 204.922 81.1183C205.017 81.1183 205.109 81.1564 205.177 81.2241C205.244 81.2918 205.283 81.3836 205.283 81.4793V85.0941C205.283 85.1415 205.273 85.1884 205.255 85.2323C205.237 85.2761 205.21 85.3159 205.177 85.3494C205.143 85.3829 205.104 85.4095 205.06 85.4277C205.016 85.4458 204.969 85.4551 204.922 85.4551ZM204.922 78.2255C204.874 78.2255 204.827 78.2162 204.783 78.198C204.74 78.1799 204.7 78.1533 204.666 78.1198C204.633 78.0863 204.606 78.0464 204.588 78.0026C204.57 77.9588 204.561 77.9119 204.561 77.8645V74.2497C204.561 74.154 204.599 74.0621 204.666 73.9944C204.734 73.9268 204.826 73.8887 204.922 73.8887C205.017 73.8887 205.109 73.9268 205.177 73.9944C205.244 74.0621 205.283 74.154 205.283 74.2497V77.8645C205.283 77.9119 205.273 77.9588 205.255 78.0027C205.237 78.0465 205.21 78.0863 205.177 78.1198C205.143 78.1533 205.104 78.1799 205.06 78.198C205.016 78.2162 204.969 78.2255 204.922 78.2255ZM204.922 70.9956C204.874 70.9956 204.827 70.9863 204.783 70.9681C204.74 70.95 204.7 70.9234 204.666 70.8899C204.633 70.8563 204.606 70.8165 204.588 70.7727C204.57 70.7289 204.561 70.682 204.561 70.6346V67.0197C204.561 66.924 204.599 66.8322 204.666 66.7645C204.734 66.6968 204.826 66.6587 204.922 66.6587C205.017 66.6587 205.109 66.6968 205.177 66.7645C205.244 66.8322 205.283 66.924 205.283 67.0197V70.6346C205.283 70.682 205.273 70.7289 205.255 70.7727C205.237 70.8165 205.21 70.8563 205.177 70.8899C205.143 70.9234 205.104 70.95 205.06 70.9681C205.016 70.9863 204.969 70.9956 204.922 70.9956ZM204.922 63.7659C204.874 63.766 204.827 63.7566 204.783 63.7385C204.74 63.7204 204.7 63.6938 204.666 63.6603C204.633 63.6267 204.606 63.5869 204.588 63.5431C204.57 63.4993 204.561 63.4524 204.561 63.405V59.7898C204.561 59.6941 204.599 59.6023 204.666 59.5346C204.734 59.4669 204.826 59.4288 204.922 59.4288C205.017 59.4288 205.109 59.4669 205.177 59.5346C205.244 59.6023 205.283 59.6941 205.283 59.7898V63.405C205.283 63.4524 205.273 63.4993 205.255 63.5431C205.237 63.5869 205.21 63.6268 205.177 63.6603C205.143 63.6938 205.104 63.7204 205.06 63.7385C205.016 63.7566 204.969 63.766 204.922 63.7659ZM204.922 56.536C204.874 56.536 204.827 56.5267 204.783 56.5086C204.74 56.4904 204.7 56.4638 204.666 56.4303C204.633 56.3968 204.606 56.357 204.588 56.3132C204.57 56.2694 204.561 56.2224 204.561 56.175V52.5602C204.561 52.4645 204.599 52.3727 204.666 52.305C204.734 52.2373 204.826 52.1992 204.922 52.1992C205.017 52.1992 205.109 52.2373 205.177 52.305C205.244 52.3727 205.283 52.4645 205.283 52.5602V56.175C205.283 56.2224 205.273 56.2694 205.255 56.3132C205.237 56.357 205.21 56.3968 205.177 56.4303C205.143 56.4638 205.104 56.4904 205.06 56.5086C205.016 56.5267 204.969 56.536 204.922 56.536ZM204.922 49.3061C204.874 49.3061 204.827 49.2968 204.783 49.2786C204.74 49.2605 204.7 49.2339 204.666 49.2004C204.633 49.1669 204.606 49.1271 204.588 49.0833C204.57 49.0394 204.561 48.9925 204.561 48.9451V45.3302C204.561 45.2345 204.599 45.1427 204.666 45.075C204.734 45.0073 204.826 44.9693 204.922 44.9693C205.017 44.9693 205.109 45.0073 205.177 45.075C205.244 45.1427 205.283 45.2345 205.283 45.3302V48.9451C205.283 48.9925 205.273 49.0395 205.255 49.0833C205.237 49.1271 205.21 49.1669 205.177 49.2004C205.143 49.2339 205.104 49.2605 205.06 49.2787C205.016 49.2968 204.969 49.3061 204.922 49.3061ZM204.922 42.0765C204.874 42.0765 204.827 42.0672 204.783 42.049C204.74 42.0309 204.7 42.0043 204.666 41.9708C204.633 41.9373 204.606 41.8975 204.588 41.8537C204.57 41.8098 204.561 41.7629 204.561 41.7155V38.1007C204.561 38.005 204.599 37.9132 204.666 37.8455C204.734 37.7778 204.826 37.7397 204.922 37.7397C205.017 37.7397 205.109 37.7778 205.177 37.8455C205.244 37.9132 205.283 38.005 205.283 38.1007V41.7155C205.283 41.7629 205.273 41.8098 205.255 41.8537C205.237 41.8975 205.21 41.9373 205.177 41.9708C205.143 42.0043 205.104 42.0309 205.06 42.0491C205.016 42.0672 204.969 42.0765 204.922 42.0765ZM204.922 34.8465C204.874 34.8465 204.827 34.8372 204.783 34.8191C204.74 34.8009 204.7 34.7743 204.666 34.7408C204.633 34.7073 204.606 34.6675 204.588 34.6237C204.57 34.5799 204.561 34.5329 204.561 34.4855V30.8707C204.561 30.775 204.599 30.6832 204.666 30.6155C204.734 30.5478 204.826 30.5098 204.922 30.5098C205.017 30.5098 205.109 30.5478 205.177 30.6155C205.244 30.6832 205.283 30.775 205.283 30.8707V34.4855C205.283 34.5329 205.273 34.5799 205.255 34.6237C205.237 34.6675 205.21 34.7073 205.177 34.7408C205.143 34.7744 205.104 34.801 205.06 34.8191C205.016 34.8372 204.969 34.8465 204.922 34.8465Z" fill="#F5F5F5"/>
<path d="M203.359 106.237C203.279 106.237 203.202 106.211 203.139 106.162C203.076 106.114 203.031 106.046 203.01 105.969C202.99 105.893 202.995 105.811 203.025 105.738C203.056 105.665 203.11 105.603 203.178 105.563L204.561 104.765V103.169C204.561 103.073 204.599 102.981 204.667 102.913C204.734 102.846 204.826 102.808 204.922 102.808C205.018 102.808 205.109 102.846 205.177 102.913C205.245 102.981 205.283 103.073 205.283 103.169V104.974C205.283 105.037 205.266 105.099 205.234 105.154C205.203 105.209 205.157 105.255 205.102 105.286L203.539 106.189C203.484 106.22 203.422 106.237 203.359 106.237Z" fill="#F5F5F5"/>
<path d="M101.313 161.278C101.218 161.278 101.127 161.241 101.06 161.174C100.992 161.108 100.953 161.018 100.952 160.923C100.95 160.828 100.986 160.737 101.051 160.668C101.116 160.599 101.206 160.559 101.3 160.556C102.5 160.514 103.695 160.404 104.882 160.226C104.929 160.219 104.977 160.222 105.023 160.233C105.069 160.244 105.112 160.265 105.15 160.293C105.188 160.321 105.221 160.356 105.245 160.397C105.269 160.438 105.286 160.483 105.293 160.53C105.3 160.576 105.297 160.624 105.286 160.67C105.275 160.716 105.254 160.76 105.226 160.798C105.198 160.836 105.162 160.868 105.122 160.892C105.081 160.917 105.036 160.933 104.989 160.94C103.775 161.122 102.552 161.235 101.326 161.278H101.313ZM97.6756 161.206C97.6665 161.206 97.6574 161.206 97.6482 161.205C96.4238 161.113 95.2057 160.951 94.0002 160.718C93.9065 160.699 93.824 160.644 93.7707 160.565C93.7175 160.485 93.6979 160.388 93.7161 160.294C93.7344 160.201 93.7891 160.118 93.8682 160.064C93.9474 160.011 94.0445 159.991 94.1384 160.009C95.3158 160.237 96.5057 160.396 97.7018 160.484C97.795 160.491 97.8818 160.534 97.9442 160.604C98.0065 160.673 98.0395 160.764 98.0361 160.858C98.0327 160.951 97.9932 161.039 97.926 161.104C97.8588 161.169 97.7691 161.206 97.6756 161.206ZM108.492 160.182C108.405 160.182 108.32 160.151 108.255 160.093C108.189 160.036 108.146 159.957 108.134 159.871C108.122 159.784 108.141 159.697 108.189 159.623C108.237 159.55 108.309 159.497 108.393 159.473C109.544 159.15 110.669 158.74 111.757 158.246C111.8 158.226 111.847 158.215 111.894 158.213C111.941 158.212 111.988 158.219 112.033 158.236C112.077 158.252 112.118 158.277 112.153 158.31C112.187 158.342 112.215 158.381 112.235 158.424C112.255 158.467 112.266 158.513 112.268 158.561C112.269 158.608 112.262 158.655 112.245 158.699C112.229 158.744 112.204 158.785 112.171 158.819C112.139 158.854 112.1 158.882 112.057 158.902C110.936 159.412 109.777 159.835 108.591 160.169C108.558 160.177 108.525 160.182 108.492 160.182ZM90.5519 159.798C90.5125 159.798 90.4735 159.791 90.4362 159.779C89.2659 159.386 88.1303 158.897 87.0414 158.316C86.9997 158.293 86.9627 158.263 86.9328 158.226C86.9028 158.189 86.8804 158.147 86.8668 158.101C86.8532 158.056 86.8486 158.008 86.8534 157.961C86.8582 157.914 86.8723 157.868 86.8948 157.826C86.9173 157.785 86.9478 157.748 86.9845 157.718C87.0213 157.688 87.0636 157.665 87.1091 157.652C87.1545 157.638 87.2022 157.634 87.2494 157.638C87.2965 157.643 87.3423 157.657 87.3841 157.68C88.4372 158.242 89.5355 158.715 90.6674 159.095C90.7485 159.122 90.8173 159.177 90.8613 159.251C90.9054 159.324 90.922 159.411 90.9081 159.495C90.8942 159.58 90.8508 159.657 90.7855 159.712C90.7203 159.767 90.6375 159.798 90.5519 159.798ZM115.101 157.193C115.022 157.193 114.944 157.166 114.881 157.118C114.818 157.07 114.773 157.002 114.753 156.925C114.732 156.848 114.737 156.767 114.768 156.694C114.798 156.62 114.852 156.559 114.921 156.519L118.072 154.699C118.155 154.652 118.253 154.639 118.345 154.664C118.437 154.689 118.516 154.749 118.564 154.832C118.611 154.915 118.624 155.013 118.6 155.105C118.576 155.197 118.515 155.276 118.433 155.324L115.281 157.144C115.227 157.176 115.164 157.193 115.101 157.193ZM121.405 153.553C121.325 153.553 121.248 153.527 121.185 153.478C121.122 153.43 121.077 153.362 121.057 153.286C121.036 153.209 121.041 153.128 121.072 153.054C121.102 152.981 121.156 152.92 121.224 152.88L124.377 151.06C124.418 151.036 124.463 151.021 124.51 151.014C124.557 151.008 124.605 151.011 124.651 151.023C124.697 151.035 124.74 151.056 124.778 151.085C124.815 151.114 124.847 151.15 124.871 151.191C124.894 151.232 124.91 151.278 124.916 151.325C124.922 151.372 124.919 151.42 124.907 151.466C124.894 151.511 124.873 151.554 124.844 151.592C124.815 151.63 124.779 151.661 124.738 151.685L121.585 153.504C121.531 153.536 121.468 153.553 121.405 153.553ZM127.709 149.914C127.629 149.914 127.552 149.887 127.489 149.839C127.426 149.791 127.381 149.723 127.36 149.646C127.34 149.569 127.345 149.488 127.375 149.415C127.406 149.341 127.46 149.28 127.528 149.24L130.681 147.42C130.763 147.372 130.862 147.36 130.954 147.385C131.046 147.409 131.124 147.47 131.172 147.552C131.22 147.635 131.233 147.733 131.208 147.825C131.184 147.918 131.124 147.996 131.041 148.045L127.889 149.865C127.834 149.897 127.772 149.914 127.709 149.914ZM134.013 146.273C133.934 146.273 133.857 146.247 133.794 146.199C133.731 146.15 133.685 146.083 133.665 146.006C133.644 145.929 133.65 145.848 133.68 145.775C133.71 145.701 133.764 145.64 133.833 145.6L136.984 143.78C137.025 143.756 137.071 143.741 137.118 143.735C137.165 143.728 137.213 143.731 137.259 143.743C137.305 143.755 137.348 143.777 137.385 143.805C137.423 143.834 137.455 143.87 137.478 143.912C137.502 143.953 137.518 143.998 137.524 144.045C137.53 144.092 137.527 144.14 137.514 144.186C137.502 144.232 137.481 144.275 137.452 144.312C137.423 144.35 137.387 144.381 137.345 144.405L134.194 146.225C134.139 146.257 134.077 146.273 134.013 146.273ZM140.317 142.634C140.238 142.634 140.161 142.608 140.098 142.559C140.035 142.511 139.989 142.443 139.969 142.367C139.948 142.29 139.953 142.208 139.984 142.135C140.014 142.062 140.068 142 140.137 141.961L143.289 140.141C143.33 140.117 143.375 140.102 143.422 140.096C143.469 140.089 143.517 140.093 143.563 140.105C143.608 140.117 143.651 140.138 143.689 140.167C143.727 140.196 143.758 140.232 143.782 140.273C143.805 140.314 143.821 140.359 143.827 140.406C143.833 140.453 143.83 140.501 143.818 140.546C143.806 140.592 143.785 140.635 143.756 140.673C143.727 140.71 143.691 140.742 143.65 140.766L140.498 142.585C140.443 142.617 140.381 142.634 140.317 142.634ZM146.621 138.994C146.542 138.994 146.464 138.968 146.401 138.92C146.338 138.872 146.293 138.804 146.273 138.727C146.252 138.65 146.257 138.569 146.288 138.496C146.318 138.422 146.372 138.361 146.441 138.321L149.593 136.501C149.676 136.454 149.774 136.441 149.866 136.465C149.959 136.49 150.038 136.55 150.086 136.633C150.133 136.716 150.146 136.815 150.122 136.907C150.097 136.999 150.037 137.078 149.954 137.126L146.801 138.946C146.747 138.978 146.684 138.995 146.621 138.994ZM152.926 135.354C152.846 135.354 152.769 135.328 152.706 135.28C152.643 135.231 152.598 135.164 152.577 135.087C152.557 135.01 152.562 134.929 152.592 134.855C152.623 134.782 152.676 134.721 152.745 134.681L155.897 132.861C155.938 132.838 155.984 132.822 156.031 132.816C156.078 132.81 156.125 132.813 156.171 132.825C156.217 132.837 156.26 132.859 156.297 132.887C156.335 132.916 156.366 132.952 156.39 132.993C156.414 133.034 156.429 133.079 156.435 133.126C156.442 133.173 156.439 133.221 156.426 133.267C156.414 133.313 156.393 133.355 156.364 133.393C156.335 133.431 156.299 133.462 156.258 133.486L153.106 135.306C153.051 135.338 152.989 135.354 152.926 135.354ZM159.229 131.715C159.15 131.715 159.073 131.689 159.01 131.64C158.947 131.592 158.902 131.524 158.881 131.447C158.86 131.371 158.866 131.289 158.896 131.216C158.926 131.143 158.98 131.081 159.049 131.042L162.201 129.221C162.284 129.174 162.382 129.161 162.475 129.186C162.567 129.211 162.646 129.271 162.694 129.354C162.741 129.437 162.754 129.535 162.73 129.627C162.705 129.72 162.645 129.798 162.562 129.846L159.41 131.666C159.355 131.698 159.293 131.715 159.229 131.715ZM165.534 128.075C165.455 128.075 165.377 128.049 165.314 128C165.251 127.952 165.206 127.884 165.186 127.807C165.165 127.731 165.17 127.649 165.201 127.576C165.231 127.502 165.285 127.441 165.353 127.401L168.505 125.582C168.588 125.534 168.686 125.522 168.778 125.547C168.871 125.571 168.949 125.632 168.997 125.715C169.045 125.797 169.058 125.896 169.033 125.988C169.009 126.08 168.949 126.159 168.866 126.207L165.714 128.027C165.66 128.058 165.597 128.075 165.534 128.075ZM171.838 124.436C171.758 124.435 171.681 124.409 171.618 124.361C171.555 124.312 171.51 124.245 171.489 124.168C171.469 124.091 171.474 124.01 171.504 123.936C171.535 123.863 171.589 123.802 171.657 123.762L174.81 121.942C174.892 121.894 174.991 121.882 175.083 121.907C175.175 121.932 175.254 121.992 175.301 122.075C175.349 122.157 175.362 122.256 175.338 122.348C175.313 122.44 175.253 122.519 175.171 122.567L172.018 124.387C171.963 124.419 171.901 124.436 171.838 124.436ZM178.142 120.796C178.062 120.796 177.985 120.769 177.922 120.721C177.859 120.673 177.814 120.605 177.793 120.528C177.773 120.451 177.778 120.37 177.808 120.297C177.839 120.223 177.892 120.162 177.961 120.122L181.113 118.302C181.196 118.255 181.295 118.242 181.387 118.267C181.479 118.292 181.558 118.353 181.605 118.435C181.653 118.518 181.666 118.616 181.642 118.709C181.617 118.801 181.557 118.88 181.474 118.928L178.322 120.747C178.267 120.779 178.205 120.796 178.142 120.796ZM184.446 117.156C184.367 117.156 184.29 117.13 184.227 117.082C184.164 117.033 184.118 116.965 184.098 116.889C184.077 116.812 184.083 116.731 184.113 116.657C184.143 116.584 184.197 116.522 184.266 116.483L187.417 114.663C187.5 114.615 187.599 114.603 187.691 114.627C187.783 114.652 187.861 114.713 187.909 114.795C187.957 114.878 187.97 114.976 187.945 115.069C187.921 115.161 187.861 115.24 187.778 115.288L184.627 117.108C184.572 117.14 184.51 117.156 184.446 117.156ZM190.75 113.516C190.671 113.516 190.593 113.49 190.53 113.442C190.467 113.393 190.422 113.326 190.402 113.249C190.381 113.172 190.386 113.091 190.417 113.017C190.447 112.944 190.501 112.883 190.57 112.843L193.722 111.023C193.805 110.975 193.903 110.963 193.996 110.987C194.088 111.012 194.167 111.073 194.215 111.156C194.262 111.238 194.275 111.337 194.251 111.429C194.226 111.522 194.166 111.6 194.083 111.648L190.931 113.468C190.876 113.5 190.813 113.516 190.75 113.516ZM197.054 109.877C196.975 109.877 196.897 109.85 196.834 109.802C196.771 109.754 196.726 109.686 196.706 109.609C196.685 109.532 196.69 109.451 196.721 109.377C196.751 109.304 196.805 109.243 196.873 109.203L200.026 107.383C200.109 107.336 200.207 107.323 200.299 107.348C200.392 107.372 200.471 107.433 200.518 107.516C200.566 107.599 200.579 107.697 200.554 107.789C200.53 107.882 200.469 107.961 200.387 108.009L197.234 109.828C197.18 109.86 197.117 109.877 197.054 109.877Z" fill="#F5F5F5"/>
<path d="M84.1987 156.322C84.1116 156.322 84.0275 156.291 83.9617 156.234C83.492 155.828 83.0549 155.385 82.6546 154.91C82.5931 154.837 82.5633 154.742 82.5717 154.646C82.5802 154.551 82.6262 154.463 82.6997 154.401C82.7732 154.34 82.8681 154.31 82.9636 154.318C83.0591 154.327 83.1472 154.373 83.2088 154.446C83.5839 154.892 83.9942 155.308 84.4355 155.688C84.4912 155.736 84.5308 155.8 84.549 155.872C84.5671 155.943 84.5631 156.018 84.5373 156.087C84.5115 156.156 84.4653 156.216 84.4047 156.258C84.3442 156.3 84.2723 156.322 84.1987 156.322Z" fill="#F5F5F5"/>
<path d="M222.884 47.683V68.9311C222.86 69.3737 222.731 69.8043 222.51 70.1882C222.288 70.5722 221.98 70.899 221.609 71.1422L182.843 93.5253C182.82 93.5405 182.795 93.5528 182.769 93.5621C179.84 95.2356 177.181 95.4519 175.236 94.4472C174.645 94.1422 172.373 92.8199 171.819 92.4616C170.063 91.3255 168.994 89.0866 168.994 85.9488C168.994 79.4778 173.549 71.5623 179.275 67.9288L179.283 67.9214L215.618 46.946C215.684 46.9053 215.748 46.861 215.809 46.8133C216.318 46.408 216.251 45.8404 215.618 45.472L210.908 42.7524V39.2958L221.609 45.472C221.944 45.6922 222.229 45.9807 222.445 46.3185C222.661 46.6563 222.803 47.0359 222.862 47.4324C222.877 47.5151 222.884 47.599 222.884 47.683Z" fill="#27DEBF"/>
<path opacity="0.3" d="M222.884 47.683V68.9311C222.86 69.3737 222.731 69.8043 222.51 70.1882C222.288 70.5722 221.98 70.899 221.609 71.1422L182.843 93.5253C182.82 93.5405 182.795 93.5528 182.769 93.5621C179.84 95.2356 177.181 95.4519 175.236 94.4472C174.645 94.1422 172.373 92.8199 171.819 92.4616C170.063 91.3255 168.994 89.0866 168.994 85.9488C168.994 79.4778 173.549 71.5623 179.275 67.9288L179.283 67.9214L215.618 46.946C215.684 46.9053 215.748 46.861 215.809 46.8133C216.318 46.408 216.251 45.8404 215.618 45.472L210.908 42.7524V39.2958L221.609 45.472C221.944 45.6922 222.229 45.9807 222.445 46.3185C222.661 46.6563 222.803 47.0359 222.862 47.4324C222.877 47.5151 222.884 47.599 222.884 47.683Z" fill="black"/>
<path d="M222.884 47.683V68.9311C222.859 69.3737 222.731 69.8043 222.51 70.1882C222.288 70.5722 221.98 70.899 221.609 71.1422L182.843 93.5253C182.82 93.5405 182.795 93.5528 182.769 93.5621C178.951 95.7437 175.59 95.4489 173.674 93.201C172.476 91.6211 171.878 89.6676 171.986 87.6882C171.986 81.0034 176.85 72.7857 182.843 69.3218L219.892 47.9336L221.609 46.946C222.236 46.5774 222.759 46.7986 222.862 47.4324C222.877 47.5151 222.884 47.599 222.884 47.683Z" fill="#00CE99"/>
<path d="M180.971 82.5037C180.971 85.3676 182.981 86.5284 185.462 85.0964C186.769 84.2442 187.857 83.0957 188.637 81.7443C189.417 80.3928 189.868 78.8764 189.952 77.3182C189.952 74.4543 187.941 73.2935 185.461 74.7254C184.154 75.5777 183.066 76.7262 182.286 78.0776C181.506 79.4291 181.055 80.9454 180.971 82.5037Z" fill="#37474F"/>
<path d="M190.107 75.2603L188.776 74.5001L182.283 85.4091L183.808 86.2877L190.107 75.2603Z" fill="#37474F"/>
<path d="M182.468 83.3679C182.468 86.2318 184.478 87.3926 186.959 85.9605C188.266 85.1083 189.354 83.9599 190.134 82.6084C190.914 81.2569 191.365 79.7405 191.449 78.1823C191.449 75.3185 189.438 74.1577 186.958 75.5896C185.651 76.4419 184.563 77.5903 183.783 78.9418C183.003 80.2933 182.552 81.8096 182.468 83.3679Z" fill="#455A64"/>
<path d="M47.0265 240.819C46.582 240.517 46.2149 240.114 45.9548 239.644C45.6948 239.174 45.5492 238.649 45.5298 238.112L45.5293 151.917C45.5593 151.363 45.7194 150.825 45.9967 150.344C46.2739 149.864 46.6605 149.456 47.125 149.153L157.697 85.3142C158.159 85.0245 158.691 84.8661 159.236 84.8561C159.781 84.846 160.318 84.9847 160.79 85.2572C161.262 85.5297 161.651 85.9257 161.915 86.4026C162.178 86.8795 162.307 87.4193 162.287 87.964V174.159C162.257 174.713 162.097 175.252 161.82 175.732C161.543 176.212 161.156 176.62 160.692 176.923L50.1188 240.762C49.644 241.014 49.1167 241.15 48.5794 241.16C48.0422 241.17 47.5102 241.053 47.0265 240.819Z" fill="#0B0320"/>
<path d="M51.5165 153.531L45.9961 150.344C45.709 150.82 45.5483 151.362 45.529 151.917L45.5294 238.112C45.5092 238.657 45.6379 239.196 45.9016 239.673C46.1653 240.15 46.5541 240.546 47.026 240.819C47.498 241.091 48.0353 241.23 48.5802 241.22C49.125 241.21 49.6569 241.051 50.1185 240.762L51.5169 239.954L51.5165 153.531Z" fill="#263238"/>
<path d="M48.5225 153.645V239.841C48.5225 240.858 49.2369 241.271 50.1182 240.762L160.691 176.923C161.155 176.62 161.542 176.212 161.819 175.732C162.096 175.252 162.257 174.713 162.287 174.159V87.964C162.287 86.9464 161.572 86.534 160.691 87.0428L50.1182 150.882C49.6537 151.184 49.2671 151.592 48.9898 152.073C48.7126 152.553 48.5525 153.092 48.5225 153.645Z" fill="#06164B"/>
<path d="M57.5039 176.116V189.715C57.5039 190.733 58.2183 191.145 59.0995 190.636L76.8654 180.379C77.3299 180.077 77.7164 179.669 77.9937 179.188C78.2709 178.708 78.431 178.169 78.4609 177.616L78.4603 164.017C78.4603 162.999 77.7459 162.587 76.8647 163.095C72.9672 165.346 62.9969 171.102 59.0994 173.352C58.6349 173.655 58.2484 174.063 57.9712 174.543C57.694 175.023 57.5339 175.562 57.5039 176.116Z" fill="#00CE99"/>
<path d="M81.2706 165.313L54.332 180.879L54.693 181.504L81.6316 165.938L81.2706 165.313Z" fill="#F5F5F5"/>
<path d="M63.8519 176.002H63.1299V182.93H63.8519V176.002Z" fill="#F5F5F5"/>
<path d="M72.8343 170.845H72.1123V177.762H72.8343V170.845Z" fill="#F5F5F5"/>
<path d="M81.2706 172.256L54.332 187.822L54.693 188.447L81.6316 172.881L81.2706 172.256Z" fill="#F5F5F5"/>
<path d="M57.5039 202.045V205.273C57.504 206.291 58.2184 206.703 59.0996 206.195L76.8648 195.938C77.3293 195.635 77.7159 195.227 77.9931 194.747C78.2703 194.266 78.4304 193.728 78.4604 193.174V189.945C78.4604 188.928 77.746 188.515 76.8647 189.024L59.0995 199.281C58.635 199.584 58.2485 199.992 57.9713 200.472C57.694 200.952 57.5339 201.491 57.5039 202.045Z" fill="#E0E0E0"/>
<path d="M82.4521 187.639L82.4522 190.868C82.4522 191.886 83.1666 192.298 84.0479 191.789L101.813 181.532C102.278 181.23 102.664 180.822 102.941 180.341C103.219 179.861 103.379 179.322 103.409 178.769L103.409 175.54C103.409 174.522 102.694 174.11 101.813 174.619L84.0479 184.875C83.5833 185.178 83.1968 185.586 82.9195 186.067C82.6423 186.547 82.4821 187.086 82.4521 187.639Z" fill="#E0E0E0"/>
<path d="M107.4 173.234V176.463C107.4 177.48 108.115 177.893 108.996 177.384L126.761 167.127C127.226 166.824 127.612 166.416 127.89 165.936C128.167 165.456 128.327 164.917 128.357 164.363V161.135C128.357 160.117 127.642 159.705 126.761 160.213L108.996 170.47C108.532 170.773 108.145 171.181 107.868 171.661C107.59 172.141 107.43 172.68 107.4 173.234Z" fill="#E0E0E0"/>
<path d="M132.348 158.829L132.348 162.057C132.348 163.075 133.062 163.487 133.943 162.979L151.709 152.722C152.173 152.419 152.56 152.011 152.837 151.531C153.114 151.05 153.274 150.512 153.304 149.958V146.729C153.304 145.712 152.59 145.299 151.709 145.808L133.943 156.065C133.479 156.368 133.092 156.776 132.815 157.256C132.538 157.736 132.378 158.275 132.348 158.829Z" fill="#E0E0E0"/>
<path d="M143.367 162.727L139.294 165.078C139.016 165.26 138.784 165.505 138.617 165.793C138.451 166.081 138.355 166.404 138.337 166.736V167.982C138.337 168.593 138.766 168.84 139.294 168.535L143.367 166.184C143.646 166.002 143.878 165.757 144.044 165.469C144.21 165.181 144.307 164.857 144.325 164.525V163.279C144.325 162.669 143.896 162.421 143.367 162.727Z" fill="#00CE99"/>
<path d="M152.348 157.541L148.275 159.892C147.996 160.074 147.764 160.319 147.598 160.607C147.431 160.895 147.335 161.219 147.317 161.551V162.797C147.317 163.407 147.746 163.655 148.275 163.349L152.348 160.998C152.626 160.816 152.858 160.571 153.025 160.283C153.191 159.995 153.287 159.672 153.305 159.34V158.094C153.305 157.483 152.876 157.236 152.348 157.541Z" fill="#00CE99"/>
<path d="M100.932 195.866L151.629 166.597C152.51 166.088 153.224 166.5 153.224 167.518V169.018C153.194 169.572 153.034 170.111 152.757 170.591C152.48 171.071 152.093 171.479 151.629 171.782L100.931 201.052C100.05 201.561 99.3359 201.148 99.3359 200.131L99.3361 198.63C99.3661 198.076 99.5263 197.538 99.8035 197.057C100.081 196.577 100.467 196.169 100.932 195.866Z" fill="#00CE99"/>
<circle cx="235" cy="7" r="5" fill="#5351FD"/>
<circle cx="291" cy="31" r="3" fill="#5351FD"/>
<circle cx="251" cy="78" r="3" fill="#5351FD"/>
<path d="M219.275 145.559C233.463 144.29 243.938 131.786 242.672 117.63C241.406 103.475 228.878 93.0288 214.69 94.2978C200.502 95.5669 190.026 108.071 191.293 122.226C192.559 136.381 205.087 146.828 219.275 145.559Z" fill="#F5B403"/>
<g opacity="0.3">
<path opacity="0.3" d="M236.5 117.564C236.381 117.579 236.221 116.727 235.772 115.256C235.146 113.19 234.203 111.234 232.977 109.458C232.132 108.246 231.156 107.13 230.067 106.132C228.816 104.996 227.423 104.025 225.925 103.245C224.272 102.384 222.503 101.767 220.674 101.414C219.709 101.228 218.73 101.117 217.748 101.081C215.721 101.005 213.694 101.25 211.743 101.808C210.798 102.077 209.874 102.419 208.981 102.83C207.289 103.61 205.718 104.632 204.319 105.862C203.05 106.978 201.93 108.254 200.988 109.656C200.169 110.886 199.487 112.202 198.956 113.581C198.191 115.598 197.743 117.723 197.629 119.878C197.545 121.413 197.593 122.279 197.474 122.292C197.387 122.304 197.14 121.46 197.043 119.877C196.931 117.623 197.239 115.367 197.952 113.226C199.013 110.007 200.886 107.116 203.391 104.833C204.111 104.168 204.88 103.561 205.694 103.015C206.539 102.439 207.43 101.931 208.356 101.497C209.316 101.043 210.31 100.667 211.329 100.371C213.431 99.7594 215.619 99.4944 217.806 99.5867C218.866 99.6308 219.922 99.7589 220.962 99.9697C222.927 100.369 224.821 101.062 226.58 102.023C229.558 103.642 232.069 106.001 233.868 108.874C235.072 110.783 235.911 112.899 236.341 115.115C236.626 116.676 236.587 117.555 236.5 117.564Z" fill="black"/>
</g>
</svg>
