<svg width="193" height="175" viewBox="0 0 193 175" fill="none" xmlns="http://www.w3.org/2000/svg">
<path d="M187.225 80C165.225 70.4 149.058 36.6667 143.725 21C129.225 -4.00001 91.725 -3.00001 73.225 8.49999C38.725 32 12.225 77 17.725 114.5C30.225 160.5 95.725 189 148.225 166C200.725 143 195.225 100.5 187.225 80Z" fill="#F5F3FD"/>
<circle cx="158" cy="31" r="4" fill="#FCE9AD"/>
<circle cx="42" cy="21" r="2" fill="#FFC8B5"/>
<circle cx="170.5" cy="115.5" r="2.5" fill="#A5E7DC"/>
<g filter="url(#filter0_d)">
<path d="M135.938 58.773H135.244V39.7741C135.244 38.33 134.96 36.9001 134.407 35.566C133.854 34.2319 133.045 33.0197 132.023 31.9986C131.002 30.9775 129.79 30.1676 128.456 29.615C127.122 29.0624 125.692 28.7779 124.248 28.778H83.9961C82.5521 28.778 81.1222 29.0624 79.7881 29.615C78.454 30.1676 77.2418 30.9775 76.2207 31.9986C75.1996 33.0197 74.3896 34.2319 73.837 35.566C73.2844 36.9001 73 38.33 73 39.7741V144.004C73 145.448 73.2844 146.878 73.837 148.212C74.3896 149.546 75.1996 150.758 76.2207 151.779C77.2418 152.8 78.454 153.61 79.7881 154.163C81.1222 154.716 82.5521 155 83.9961 155H124.248C125.692 155 127.122 154.716 128.456 154.163C129.79 153.61 131.002 152.8 132.023 151.779C133.045 150.758 133.854 149.546 134.407 148.212C134.96 146.878 135.244 145.448 135.244 144.004V72.2968H135.938V58.773Z" fill="white"/>
</g>
<path d="M124.692 31.6388H119.437C119.679 32.2312 119.771 32.8739 119.706 33.5103C119.641 34.1467 119.42 34.7574 119.063 35.2884C118.706 35.8194 118.224 36.2545 117.66 36.5553C117.095 36.8562 116.465 37.0136 115.825 37.0136H92.7655C92.1258 37.0136 91.4958 36.8562 90.9312 36.5553C90.3666 36.2545 89.8846 35.8194 89.5277 35.2884C89.1709 34.7574 88.9501 34.1468 88.8848 33.5103C88.8195 32.8739 88.9118 32.2312 89.1534 31.6388H84.2459C83.1676 31.6388 82.0997 31.8512 81.1034 32.2638C80.1071 32.6765 79.2019 33.2814 78.4394 34.0439C77.6768 34.8065 77.0719 35.7117 76.6593 36.708C76.2466 37.7043 76.0342 38.7721 76.0342 39.8505V143.927C76.0342 145.006 76.2466 146.074 76.6593 147.07C77.0719 148.066 77.6768 148.972 78.4394 149.734C79.2019 150.497 80.1071 151.101 81.1034 151.514C82.0997 151.927 83.1676 152.139 84.2459 152.139H124.692C125.77 152.139 126.838 151.927 127.834 151.514C128.83 151.101 129.736 150.497 130.498 149.734C131.261 148.972 131.866 148.066 132.278 147.07C132.691 146.074 132.903 145.006 132.903 143.927V39.8505C132.903 37.6726 132.038 35.5839 130.498 34.0439C128.958 32.5039 126.87 31.6388 124.692 31.6388Z" fill="url(#paint0_linear)"/>
<g filter="url(#filter1_d)">
<circle cx="32.5" cy="51.5" r="17.5" fill="#00CACE"/>
</g>
<g clip-path="url(#clip0)">
<path d="M38.4931 45.5074C36.4826 43.4969 33.2114 43.4969 31.2009 45.5074C29.8276 46.8807 29.3506 48.9044 29.9453 50.7405L24.1383 56.5475C24.0504 56.6354 24.001 56.7544 24.001 56.8789V59.5308C24.001 59.7898 24.2106 59.9995 24.4697 59.9995H27.1215C27.246 59.9995 27.3651 59.9501 27.4529 59.8622L28.1158 59.1988C28.2169 59.0977 28.2664 58.9558 28.2499 58.8134L28.1675 58.1011L29.1544 58.0082C29.3788 57.9871 29.5559 57.81 29.577 57.5857L29.6699 56.5987L30.3822 56.6816C30.5145 56.6994 30.6477 56.655 30.7479 56.5662C30.8477 56.477 30.9049 56.3497 30.9049 56.216V55.3433H31.7619C31.8864 55.3433 32.0054 55.2938 32.0933 55.2059L33.2954 54.0197C35.131 54.6148 37.1198 54.1738 38.4931 52.7995C40.5036 50.7891 40.5036 47.5179 38.4931 45.5074ZM37.167 48.822C36.6186 49.3704 35.7269 49.3704 35.1784 48.822C34.63 48.2736 34.63 47.3819 35.1784 46.8335C35.7269 46.2851 36.6186 46.2851 37.167 46.8335C37.7154 47.3819 37.7154 48.2736 37.167 48.822Z" fill="white"/>
</g>
<g filter="url(#filter2_d)">
<circle cx="165" cy="154" r="11" fill="#00CACE"/>
</g>
<path d="M170.5 150.75L163.625 157.625L160.5 154.5" stroke="white" stroke-width="2" stroke-linecap="round" stroke-linejoin="round"/>
<defs>
<filter id="filter0_d" x="63" y="28.778" width="82.9376" height="146.222" filterUnits="userSpaceOnUse" color-interpolation-filters="sRGB">
<feFlood flood-opacity="0" result="BackgroundImageFix"/>
<feColorMatrix in="SourceAlpha" type="matrix" values="0 0 0 0 0 0 0 0 0 0 0 0 0 0 0 0 0 0 127 0"/>
<feOffset dy="10"/>
<feGaussianBlur stdDeviation="5"/>
<feColorMatrix type="matrix" values="0 0 0 0 0.12549 0 0 0 0 0.12549 0 0 0 0 0.137255 0 0 0 0.05 0"/>
<feBlend mode="normal" in2="BackgroundImageFix" result="effect1_dropShadow"/>
<feBlend mode="normal" in="SourceGraphic" in2="effect1_dropShadow" result="shape"/>
</filter>
<filter id="filter1_d" x="0" y="19" width="65" height="65" filterUnits="userSpaceOnUse" color-interpolation-filters="sRGB">
<feFlood flood-opacity="0" result="BackgroundImageFix"/>
<feColorMatrix in="SourceAlpha" type="matrix" values="0 0 0 0 0 0 0 0 0 0 0 0 0 0 0 0 0 0 127 0"/>
<feOffset/>
<feGaussianBlur stdDeviation="7.5"/>
<feColorMatrix type="matrix" values="0 0 0 0 0.12549 0 0 0 0 0.12549 0 0 0 0 0.137255 0 0 0 0.1 0"/>
<feBlend mode="normal" in2="BackgroundImageFix" result="effect1_dropShadow"/>
<feBlend mode="normal" in="SourceGraphic" in2="effect1_dropShadow" result="shape"/>
</filter>
<filter id="filter2_d" x="144" y="133" width="42" height="42" filterUnits="userSpaceOnUse" color-interpolation-filters="sRGB">
<feFlood flood-opacity="0" result="BackgroundImageFix"/>
<feColorMatrix in="SourceAlpha" type="matrix" values="0 0 0 0 0 0 0 0 0 0 0 0 0 0 0 0 0 0 127 0"/>
<feOffset/>
<feGaussianBlur stdDeviation="5"/>
<feColorMatrix type="matrix" values="0 0 0 0 0.12549 0 0 0 0 0.12549 0 0 0 0 0.137255 0 0 0 0.1 0"/>
<feBlend mode="normal" in2="BackgroundImageFix" result="effect1_dropShadow"/>
<feBlend mode="normal" in="SourceGraphic" in2="effect1_dropShadow" result="shape"/>
</filter>
<linearGradient id="paint0_linear" x1="104.469" y1="152.09" x2="104.469" y2="31.5529" gradientUnits="userSpaceOnUse">
<stop stop-color="#8F6BEA"/>
<stop offset="0.96875" stop-color="#C8B3FD"/>
</linearGradient>
<clipPath id="clip0">
<rect width="16" height="16" fill="white" transform="translate(24 44)"/>
</clipPath>
</defs>
</svg>
