<svg width="40" height="40" viewBox="0 0 40 40" fill="none" xmlns="http://www.w3.org/2000/svg">
<rect width="40" height="40" rx="10" transform="matrix(1 0 0 -1 0 40)" fill="#00CE98"/>
<path d="M19.9403 12.4987C16.209 12.4987 13.1733 15.5343 13.1733 19.2656C13.1733 22.9969 16.209 26.0326 19.9403 26.0326C23.6716 26.0326 26.7072 22.9969 26.7072 19.2656C26.7072 15.5343 23.6716 12.4987 19.9403 12.4987ZM21.3597 21.6253C21.1445 21.8014 20.8786 21.9251 20.5627 21.9971V22.9966C20.5627 23.3202 20.3003 23.5825 19.9767 23.5825C19.6531 23.5825 19.3908 23.3201 19.3908 22.9966V22.0498C19.0156 22.0109 18.6836 21.9211 18.3953 21.7796C17.9977 21.5847 17.7991 21.3597 17.7991 21.1046C17.7991 20.9696 17.8483 20.829 17.9471 20.6827C18.0457 20.5365 18.1596 20.4633 18.2886 20.4633C18.3719 20.4633 18.4764 20.5009 18.6017 20.5762C18.7269 20.6514 18.8919 20.7282 19.0969 20.8068C19.3019 20.8854 19.5446 20.9246 19.8255 20.9246C20.3796 20.9246 20.6566 20.7678 20.6566 20.4541C20.6566 20.279 20.5647 20.1404 20.381 20.0382C20.1971 19.9361 19.976 19.8522 19.7172 19.7865C19.4585 19.7209 19.1978 19.6425 18.9353 19.5512C18.6727 19.46 18.4496 19.3067 18.2659 19.0915C18.0821 18.8764 17.9903 18.6009 17.9903 18.2652C17.9903 17.7997 18.1514 17.3991 18.474 17.0633C18.6929 16.8353 18.9987 16.6849 19.3907 16.6117V15.6479C19.3907 15.3243 19.6531 15.0619 19.9767 15.0619C20.3003 15.0619 20.5627 15.3243 20.5627 15.6479V16.5981C20.8076 16.6328 21.0361 16.6907 21.2472 16.7733C21.6109 16.9158 21.7928 17.0883 21.7928 17.2908C21.7928 17.4184 21.7422 17.5664 21.6409 17.7351C21.5397 17.9039 21.414 17.9883 21.264 17.9883C21.2039 17.9883 21.0408 17.9415 20.7747 17.8476C20.5083 17.754 20.2589 17.707 20.0265 17.707C19.7715 17.707 19.5765 17.7582 19.4415 17.8603C19.3066 17.9624 19.239 18.0755 19.239 18.1996C19.239 18.3237 19.3065 18.4258 19.4415 18.506C19.5765 18.5863 19.7434 18.6484 19.9422 18.6921C20.1408 18.7359 20.3542 18.796 20.582 18.8726C20.8099 18.9493 21.0213 19.0386 21.2161 19.1407C21.4108 19.243 21.5745 19.4018 21.7068 19.6169C21.839 19.832 21.9053 20.0929 21.9053 20.3993C21.9053 20.9188 21.7234 21.3275 21.3597 21.6253Z" fill="white"/>
<path d="M29.4138 18.5914C29.0902 18.5914 28.8278 18.8538 28.8278 19.1774C28.8278 20.8266 28.355 22.4256 27.4603 23.8017C26.8227 24.7825 25.996 25.6154 25.0323 26.256L25.0863 26.0222C25.1591 25.7068 24.9625 25.3922 24.6471 25.3194C24.3316 25.2465 24.0172 25.4432 23.9443 25.7586L23.5927 27.2819C23.5914 27.2877 23.5908 27.2933 23.5897 27.299C23.588 27.3073 23.586 27.3155 23.5847 27.3239C23.5842 27.3272 23.584 27.3304 23.5836 27.3336C23.5824 27.3417 23.5818 27.3498 23.581 27.3578C23.5802 27.3656 23.5791 27.3733 23.5787 27.3811C23.5785 27.3848 23.5785 27.3885 23.5784 27.3921C23.5781 27.4004 23.5782 27.4085 23.5782 27.4167C23.5782 27.4239 23.578 27.4312 23.5782 27.4384C23.5784 27.4423 23.5788 27.4461 23.579 27.45C23.5795 27.4584 23.5805 27.4666 23.5814 27.475C23.5821 27.4818 23.5825 27.4887 23.5835 27.4955C23.584 27.4993 23.5847 27.503 23.5854 27.5068C23.5868 27.5155 23.5886 27.524 23.5904 27.5326C23.5917 27.539 23.5927 27.5455 23.5943 27.5518C23.5951 27.5553 23.5962 27.5587 23.5971 27.5622C23.5995 27.5715 23.6024 27.5805 23.6053 27.5896C23.6072 27.5954 23.6085 27.6012 23.6106 27.607C23.6116 27.6101 23.6129 27.6131 23.6141 27.6161C23.6174 27.6251 23.6212 27.6339 23.6249 27.6427C23.6277 27.6491 23.63 27.6557 23.633 27.6621C23.6341 27.6645 23.6354 27.6668 23.6366 27.6692C23.639 27.6743 23.6416 27.6792 23.6442 27.6841C23.6482 27.6918 23.6522 27.6994 23.6565 27.7068C23.6586 27.7104 23.6608 27.7139 23.663 27.7175C23.6652 27.7212 23.6674 27.7249 23.6697 27.7285C23.6748 27.7365 23.6801 27.7443 23.6855 27.7519C23.6879 27.7553 23.6902 27.7587 23.6927 27.762C23.7027 27.7756 23.7131 27.7888 23.7242 27.8014C23.7244 27.8016 23.7246 27.8018 23.7248 27.8021C23.7274 27.8051 23.7302 27.8079 23.7329 27.8108C23.7352 27.8134 23.7377 27.8158 23.7401 27.8183C23.747 27.8255 23.754 27.8327 23.7612 27.8395C23.7641 27.8423 23.7672 27.845 23.7702 27.8477C23.7734 27.8505 23.7765 27.8534 23.7797 27.8562C23.7865 27.8621 23.7933 27.8676 23.8002 27.8731C23.8043 27.8763 23.8084 27.8796 23.8126 27.8828C23.8148 27.8844 23.8169 27.8862 23.8191 27.8878C23.8213 27.8894 23.8237 27.8908 23.8259 27.8924C23.8348 27.8987 23.8438 27.9049 23.853 27.9106C23.8557 27.9123 23.8587 27.9139 23.8615 27.9156C23.8667 27.9187 23.872 27.9217 23.8773 27.9247C23.884 27.9284 23.8907 27.9321 23.8976 27.9356C23.9025 27.9381 23.9074 27.9405 23.9124 27.9429C23.916 27.9446 23.9195 27.9464 23.9232 27.948C23.9325 27.9523 23.9422 27.956 23.9517 27.9598C23.955 27.961 23.9582 27.9625 23.9615 27.9637C23.9641 27.9646 23.9667 27.9654 23.9692 27.9663C23.9738 27.9679 23.9784 27.9693 23.983 27.9708C23.9924 27.9739 24.0018 27.9768 24.0114 27.9793C24.0132 27.9798 24.0148 27.9805 24.0167 27.981L25.6239 28.3977C25.6733 28.4105 25.7227 28.4166 25.7714 28.4166C26.032 28.4166 26.2698 28.2415 26.3382 27.9775C26.4195 27.6642 26.2314 27.3444 25.9181 27.2632L25.7139 27.2103C26.7962 26.4845 27.725 25.5448 28.4429 24.4406C29.4614 22.8739 29.9998 21.0539 29.9998 19.1774C29.9998 18.8537 29.7374 18.5914 29.4138 18.5914Z" fill="white"/>
<path d="M14.4769 12.1642C14.4769 12.1629 14.4767 12.1617 14.4767 12.1605C14.4767 12.1593 14.4768 12.1582 14.4768 12.157C14.4767 12.151 14.4758 12.1452 14.4755 12.1392C14.475 12.1289 14.4747 12.1186 14.4736 12.1083C14.4733 12.1058 14.473 12.1032 14.4727 12.1007C14.4719 12.0935 14.4705 12.0866 14.4694 12.0796C14.4679 12.0703 14.4667 12.061 14.4648 12.0517C14.4642 12.0487 14.4636 12.0458 14.4629 12.0428C14.4614 12.0356 14.4593 12.0288 14.4574 12.0217C14.4552 12.0133 14.4533 12.0048 14.4507 11.9965C14.4497 11.9933 14.4488 11.9902 14.4477 11.9871C14.4454 11.9799 14.4425 11.973 14.4399 11.9659C14.437 11.9582 14.4344 11.9504 14.4312 11.9428C14.4299 11.9398 14.4286 11.9368 14.4273 11.9338C14.4241 11.9263 14.4203 11.9193 14.4167 11.912C14.4133 11.9051 14.4102 11.8981 14.4065 11.8913C14.4051 11.8886 14.4036 11.8859 14.4021 11.8832C14.3976 11.8752 14.3926 11.8676 14.3877 11.8599C14.3841 11.854 14.3808 11.848 14.3769 11.8423C14.3754 11.84 14.3739 11.8378 14.3723 11.8356C14.3666 11.8274 14.3604 11.8197 14.3543 11.8118C14.3528 11.8099 14.3515 11.8079 14.35 11.8061C14.3475 11.8029 14.3454 11.7996 14.3429 11.7965C14.3426 11.7962 14.3424 11.796 14.3422 11.7957C14.3409 11.7942 14.3395 11.7927 14.3383 11.7913C14.3315 11.7833 14.3242 11.7757 14.317 11.7681C14.3123 11.7631 14.308 11.7578 14.3031 11.7529C14.3019 11.7518 14.3007 11.7508 14.2995 11.7496C14.2918 11.7421 14.2836 11.7352 14.2755 11.7281C14.2706 11.7238 14.2659 11.7191 14.2608 11.715C14.2593 11.7137 14.2577 11.7125 14.2562 11.7112C14.2478 11.7045 14.239 11.6985 14.2303 11.6923C14.2251 11.6886 14.2202 11.6847 14.2149 11.6812C14.2133 11.6801 14.2118 11.679 14.2102 11.6779C14.201 11.6719 14.1913 11.6667 14.1818 11.6612C14.1764 11.6581 14.1711 11.6548 14.1657 11.6519C14.1644 11.6512 14.1632 11.6503 14.1619 11.6497C14.1517 11.6444 14.1411 11.6398 14.1306 11.6351C14.1252 11.6327 14.12 11.63 14.1145 11.6277C14.1025 11.6227 14.0901 11.6185 14.0776 11.6143C14.072 11.6124 14.0665 11.6103 14.0608 11.6086C14.0484 11.6048 14.0358 11.6019 14.0231 11.5989C14.0169 11.5975 14.0108 11.5958 14.0045 11.5946C13.9925 11.5922 13.9802 11.5906 13.9679 11.589C13.9613 11.5882 13.9548 11.5869 13.9481 11.5863C13.9469 11.5861 13.9456 11.5861 13.9444 11.586C13.9345 11.5851 13.9244 11.5849 13.9143 11.5845C13.9088 11.5843 13.9032 11.5838 13.8977 11.5837C13.8954 11.5837 13.8933 11.5834 13.891 11.5834C13.8909 11.5834 13.8908 11.5834 13.8907 11.5834C13.8906 11.5834 13.8905 11.5834 13.8904 11.5834C13.8889 11.5834 13.8873 11.5834 13.8857 11.5834C13.8845 11.5834 13.8833 11.5836 13.8821 11.5836C13.881 11.5836 13.8798 11.5835 13.8786 11.5835L12.0887 11.621C11.7651 11.6278 11.5084 11.8956 11.5151 12.2192C11.5218 12.5385 11.7828 12.7928 12.1007 12.7928C12.1049 12.7928 12.1091 12.7928 12.1132 12.7927L12.4133 12.7864C10.8656 14.5401 10 16.7989 10 19.1774C10 19.501 10.2624 19.7633 10.586 19.7633C10.9096 19.7633 11.1719 19.5009 11.1719 19.1774C11.1719 17.075 11.9417 15.0791 13.3171 13.5341L13.3183 13.6817C13.3212 14.0036 13.583 14.2625 13.9042 14.2625C13.906 14.2625 13.9078 14.2625 13.9095 14.2625C14.2331 14.2596 14.4931 13.9949 14.4902 13.6713L14.4769 12.1642Z" fill="white"/>
</svg>
