<svg width="20" height="20" viewBox="0 0 20 20" fill="none" xmlns="http://www.w3.org/2000/svg">
<g clip-path="url(#clip0_2_1659)">
<path d="M5.89939 15.2348V15.8207C5.89939 16.6019 6.41501 17.2579 7.12118 17.4861C7.35751 18.8661 8.55462 20.0004 10.0009 20.0004C11.4473 20.0004 12.6444 18.8661 12.8807 17.4861C13.5869 17.2579 14.1025 16.6019 14.1025 15.8207V15.2348H5.89939Z" fill="#F5B304"/>
<path d="M8.4909 0.158406C5.84619 0.710591 3.69241 2.85749 3.13163 5.50107C2.65499 7.75039 3.24323 10.0083 4.74467 11.6963C5.3517 12.3794 5.72201 13.2038 5.84345 14.0629H14.1604C14.286 13.2079 14.6672 12.3704 15.2915 11.6579C16.4142 10.3779 17.0712 8.73457 17.0712 7.03169C17.0712 2.57152 12.9413 -0.778502 8.4909 0.158406ZM14.1025 7.61766C13.7786 7.61766 13.5166 7.35559 13.5166 7.03173C13.5166 5.0931 11.939 3.51612 10.0004 3.51612C9.67649 3.51612 9.41442 3.25405 9.41442 2.93019C9.41442 2.60632 9.67649 2.34425 10.0004 2.34425C12.5856 2.34425 14.6884 4.44709 14.6884 7.03173C14.6884 7.35559 14.4264 7.61766 14.1025 7.61766Z" fill="#F5B304"/>
<path d="M1.75878 7.03173H0.586912C0.263046 7.03173 0.000976562 7.2938 0.000976562 7.61766C0.000976562 7.94153 0.263046 8.20359 0.586912 8.20359H1.75878C2.08265 8.20359 2.34472 7.94153 2.34472 7.61766C2.34472 7.2938 2.08265 7.03173 1.75878 7.03173Z" fill="#F5B304"/>
<path d="M2.0014 4.10206L1.17285 3.27351C0.943942 3.0446 0.573162 3.0446 0.344296 3.27351C0.115429 3.50237 0.115429 3.87319 0.344296 4.10206L1.17285 4.93061C1.40171 5.15947 1.77253 5.15947 2.0014 4.93061C2.23026 4.70174 2.23026 4.33092 2.0014 4.10206Z" fill="#F5B304"/>
<path d="M2.0014 10.3047C1.77253 10.0758 1.40171 10.0758 1.17285 10.3047L0.344296 11.1333C0.115429 11.3621 0.115429 11.7329 0.344296 11.9618C0.573162 12.1907 0.943981 12.1907 1.17285 11.9618L2.0014 11.1333C2.23026 10.9044 2.23026 10.5336 2.0014 10.3047Z" fill="#F5B304"/>
<path d="M19.415 7.03173H18.2431C17.9192 7.03173 17.6572 7.2938 17.6572 7.61766C17.6572 7.94153 17.9192 8.20359 18.2431 8.20359H19.415C19.7388 8.20359 20.0009 7.94153 20.0009 7.61766C20.0009 7.2938 19.7388 7.03173 19.415 7.03173Z" fill="#F5B304"/>
<path d="M19.6576 3.27351C19.4287 3.04464 19.0579 3.04464 18.829 3.27351L18.0005 4.10206C17.7716 4.33092 17.7716 4.70174 18.0005 4.9306C18.2293 5.15947 18.6001 5.15947 18.829 4.9306L19.6576 4.10206C19.8864 3.87319 19.8864 3.50237 19.6576 3.27351Z" fill="#F5B304"/>
<path d="M19.6576 11.1333L18.829 10.3047C18.6002 10.0758 18.2293 10.0758 18.0005 10.3047C17.7716 10.5336 17.7716 10.9044 18.0005 11.1333L18.829 11.9618C19.0579 12.1907 19.4287 12.1907 19.6576 11.9618C19.8864 11.7329 19.8864 11.3621 19.6576 11.1333Z" fill="#F5B304"/>
</g>
<defs>
<clipPath id="clip0_2_1659">
<rect width="20" height="20" fill="white"/>
</clipPath>
</defs>
</svg>
