<svg width="40" height="40" viewBox="0 0 40 40" fill="none" xmlns="http://www.w3.org/2000/svg">
<rect width="40" height="40" rx="10" transform="matrix(1 0 0 -1 0 40)" fill="#2544FF"/>
<path d="M18 15.5C18 16.8807 16.8807 18 15.5 18C14.1193 18 13 16.8807 13 15.5C13 14.1193 14.1193 13 15.5 13C16.8807 13 18 14.1193 18 15.5Z" fill="white"/>
<path d="M18 25.5C18 26.8807 16.8807 28 15.5 28C14.1193 28 13 26.8807 13 25.5C13 24.1193 14.1193 23 15.5 23C16.8807 23 18 24.1193 18 25.5Z" fill="white"/>
<path d="M28 15.5C28 16.8807 26.8807 18 25.5 18C24.1193 18 23 16.8807 23 15.5C23 14.1193 24.1193 13 25.5 13C26.8807 13 28 14.1193 28 15.5Z" fill="white"/>
<path d="M28 25.5C28 26.8807 26.8807 28 25.5 28C24.1193 28 23 26.8807 23 25.5C23 24.1193 24.1193 23 25.5 23C26.8807 23 28 24.1193 28 25.5Z" fill="white"/>
</svg>
