<svg width="40" height="40" viewBox="0 0 40 40" fill="none" xmlns="http://www.w3.org/2000/svg">
<rect width="40" height="40" rx="10" transform="matrix(1 0 0 -1 0 40)" fill="#F5B404"/>
<g clip-path="url(#clip0_2_1863)">
<path d="M26.726 10.5138C26.4219 10.3738 26.0637 10.4283 25.815 10.6524L24.5029 11.8141C24.4672 11.8459 24.4134 11.8457 24.3778 11.8138L22.5925 10.217C22.2697 9.92767 21.7808 9.92767 21.4579 10.217L19.6743 11.8123C19.6384 11.8443 19.5841 11.8443 19.5483 11.8123L17.7644 10.217C17.4415 9.92772 16.9527 9.92772 16.6298 10.217L14.8442 11.8138C14.8085 11.8457 14.7545 11.8459 14.7186 11.8141L13.4053 10.6524C13.0569 10.3425 12.5232 10.3738 12.2134 10.7222C12.0744 10.8784 11.9984 11.0807 12 11.2897V28.7103C11.9969 29.1773 12.3729 29.5584 12.8399 29.5615C13.0491 29.5629 13.2514 29.4867 13.4076 29.3477L14.7198 28.1859C14.7555 28.1541 14.8093 28.1543 14.8448 28.1863L16.6301 29.7831C16.953 30.0724 17.4418 30.0724 17.7647 29.7831L19.5486 28.1878C19.5845 28.1557 19.6387 28.1557 19.6746 28.1878L21.4585 29.783C21.7814 30.0722 22.2702 30.0722 22.5931 29.783L24.3787 28.1862C24.4144 28.1543 24.4684 28.1541 24.5044 28.1859L25.8177 29.3477C26.1662 29.6574 26.6998 29.6259 27.0095 29.2773C27.1482 29.1212 27.2241 28.9192 27.2226 28.7103V11.2897C27.2271 10.9551 27.0317 10.6499 26.726 10.5138ZM15.13 16.7853H19.8379C20.0468 16.7853 20.2161 16.9547 20.2161 17.1635C20.2161 17.3724 20.0468 17.5417 19.8379 17.5417H15.13C14.9211 17.5417 14.7518 17.3724 14.7518 17.1635C14.7518 16.9547 14.9211 16.7853 15.13 16.7853ZM24.0927 23.2147H15.13C14.9211 23.2147 14.7518 23.0454 14.7518 22.8365C14.7518 22.6277 14.9211 22.4583 15.13 22.4583H24.0927C24.3015 22.4583 24.4709 22.6277 24.4709 22.8365C24.4709 23.0454 24.3015 23.2147 24.0927 23.2147ZM24.0927 20.3782H15.13C14.9211 20.3782 14.7518 20.2089 14.7518 20C14.7518 19.7912 14.9211 19.6218 15.13 19.6218H24.0927C24.3015 19.6218 24.4709 19.7912 24.4709 20C24.4709 20.2089 24.3015 20.3782 24.0927 20.3782Z" fill="white"/>
</g>
<defs>
<clipPath id="clip0_2_1863">
<rect width="20" height="20" fill="white" transform="translate(8 7)"/>
</clipPath>
</defs>
</svg>
