<svg width="20" height="20" viewBox="0 0 20 20" fill="none" xmlns="http://www.w3.org/2000/svg">
<g clip-path="url(#clip0_2_1633)">
<path d="M19.4847 14.7572L16.999 12.2709C16.3358 11.6077 15.1771 11.6066 14.5128 12.2709L14.0983 12.6854L19.0704 17.6572L19.4847 17.2429C20.173 16.5546 20.1707 15.4419 19.4847 14.7572Z" fill="#E6344A"/>
<path d="M13.2469 13.491C12.7239 13.8962 11.9777 13.88 11.4998 13.401L6.58507 8.48292C6.10605 8.00389 6.08991 7.25718 6.49511 6.73542L1.53453 1.77512C-0.599489 4.26261 -0.516052 8.01077 1.83922 10.366L9.61666 18.1469C11.8768 20.407 15.579 20.7067 18.2077 18.4515L13.2469 13.491Z" fill="#E6344A"/>
<path d="M7.7147 2.98365L5.22904 0.497444C4.56583 -0.165757 3.40712 -0.16689 2.74283 0.497444L2.32834 0.911935L7.30036 5.88368L7.7147 5.4693C8.4029 4.7811 8.40063 3.66845 7.7147 2.98365Z" fill="#E6344A"/>
</g>
<defs>
<clipPath id="clip0_2_1633">
<rect width="20" height="20" fill="white"/>
</clipPath>
</defs>
</svg>
