<svg width="20" height="20" viewBox="0 0 20 20" fill="none" xmlns="http://www.w3.org/2000/svg">
<g clip-path="url(#clip0_2_1646)">
<path d="M15.0683 3.54368L14.6647 3.15879L14.2611 3.54368C14.0598 3.73568 9.32971 8.28808 9.32971 11.8977C9.32971 14.8394 11.723 17.2327 14.6647 17.2327C17.6065 17.2327 19.9998 14.8394 19.9998 11.8977C19.9998 8.28808 15.2697 3.73572 15.0683 3.54368Z" fill="#3EC9DC"/>
<path d="M4.626 9.2809L4.22244 8.89601L3.81883 9.2809C3.78035 9.31762 2.86531 10.194 1.93858 11.4096C0.652248 13.0968 0 14.5664 0 15.7775C0 18.1058 1.89417 20 4.22248 20C6.55078 20 8.44495 18.1058 8.44495 15.7775C8.44495 14.5664 7.79274 13.0968 6.50634 11.4096C5.57956 10.194 4.66456 9.31758 4.626 9.2809Z" fill="#3EC9DC"/>
<path d="M8.79572 1.80573C8.17782 0.995357 7.56611 0.409422 7.54034 0.384861L7.13682 7.62939e-06L6.73321 0.3849C6.70748 0.409422 6.09574 0.995396 5.47791 1.80576C4.60626 2.94906 4.16429 3.95466 4.16429 4.79462C4.16429 6.43368 5.49776 7.76718 7.13682 7.76718C8.77588 7.76718 10.1094 6.43368 10.1094 4.79462C10.1094 3.95462 9.66741 2.94902 8.79572 1.80573Z" fill="#3EC9DC"/>
</g>
<defs>
<clipPath id="clip0_2_1646">
<rect width="20" height="20" fill="white"/>
</clipPath>
</defs>
</svg>
