<svg width="40" height="40" viewBox="0 0 40 40" fill="none" xmlns="http://www.w3.org/2000/svg">
<rect width="40" height="40" rx="10" transform="matrix(1 0 0 -1 0 40)" fill="#E6344A"/>
<g clip-path="url(#clip0_2_1870)">
<path d="M28.6703 20.259C28.5898 20.0944 28.5898 19.9056 28.6703 19.741L29.4162 18.215C29.8315 17.3653 29.5024 16.3527 28.6671 15.9094L27.1667 15.1133C27.0048 15.0275 26.8938 14.8747 26.8622 14.6942L26.5687 13.0212C26.4053 12.0898 25.5437 11.4638 24.6075 11.5963L22.9257 11.8342C22.7442 11.8598 22.5647 11.8014 22.433 11.6741L21.2123 10.4931C20.5326 9.83554 19.4677 9.83551 18.7881 10.4931L17.5673 11.6742C17.4356 11.8016 17.2561 11.8598 17.0746 11.8343L15.3928 11.5964C14.4563 11.4639 13.595 12.0899 13.4316 13.0213L13.1382 14.6943C13.1065 14.8747 12.9955 15.0275 12.8337 15.1134L11.3333 15.9095C10.4979 16.3527 10.1688 17.3655 10.5842 18.2151L11.3301 19.741C11.4105 19.9057 11.4105 20.0945 11.3301 20.2591L10.5841 21.7851C10.1688 22.6347 10.4979 23.6474 11.3333 24.0906L12.8336 24.8867C12.9955 24.9726 13.1065 25.1254 13.1382 25.3058L13.4316 26.9788C13.5804 27.8268 14.3075 28.4215 15.1431 28.4214C15.2254 28.4214 15.3089 28.4156 15.3929 28.4037L17.0746 28.1658C17.256 28.1401 17.4356 28.1986 17.5673 28.326L18.7881 29.5069C19.128 29.8357 19.564 30.0001 20.0002 30.0001C20.4362 30 20.8725 29.8356 21.2123 29.5069L22.433 28.326C22.5648 28.1986 22.7443 28.1404 22.9257 28.1658L24.6075 28.4037C25.5441 28.5362 26.4053 27.9103 26.5687 26.9788L26.8622 25.3059C26.8939 25.1254 27.0048 24.9726 27.1667 24.8867L28.6671 24.0906C29.5024 23.6474 29.8315 22.6347 29.4162 21.785L28.6703 20.259ZM17.6931 14.8092C18.8592 14.8092 19.8079 15.7579 19.8079 16.924C19.8079 18.0901 18.8592 19.0388 17.6931 19.0388C16.527 19.0388 15.5783 18.0901 15.5783 16.924C15.5783 15.7579 16.527 14.8092 17.6931 14.8092ZM16.6015 24.2142C16.4889 24.3268 16.3413 24.3832 16.1937 24.3832C16.0462 24.3832 15.8985 24.3269 15.7859 24.2142C15.5607 23.989 15.5607 23.6238 15.7859 23.3986L23.3987 15.7857C23.6239 15.5605 23.9892 15.5605 24.2144 15.7857C24.4396 16.011 24.4396 16.3762 24.2144 16.6014L16.6015 24.2142ZM22.3071 25.1909C21.1411 25.1909 20.1923 24.2421 20.1923 23.0761C20.1923 21.91 21.1411 20.9613 22.3071 20.9613C23.4732 20.9613 24.4219 21.91 24.4219 23.0761C24.4219 24.2421 23.4732 25.1909 22.3071 25.1909Z" fill="white"/>
<path d="M22.3067 22.1148C21.7767 22.1148 21.3455 22.546 21.3455 23.0761C21.3455 23.6061 21.7767 24.0373 22.3067 24.0373C22.8368 24.0373 23.268 23.6061 23.268 23.0761C23.268 22.546 22.8368 22.1148 22.3067 22.1148Z" fill="white"/>
<path d="M17.6929 15.9627C17.1629 15.9627 16.7317 16.3939 16.7317 16.924C16.7317 17.454 17.1629 17.8852 17.6929 17.8852C18.223 17.8852 18.6542 17.454 18.6542 16.924C18.6542 16.394 18.223 15.9627 17.6929 15.9627Z" fill="white"/>
</g>
<defs>
<clipPath id="clip0_2_1870">
<rect width="20" height="20" fill="white" transform="translate(10 10)"/>
</clipPath>
</defs>
</svg>
