<svg width="40" height="40" viewBox="0 0 40 40" fill="none" xmlns="http://www.w3.org/2000/svg">
<rect width="40" height="40" rx="10" transform="matrix(1 0 0 -1 0 40)" fill="#531FDC"/>
<path d="M28.617 18.7234H28.5106V17.6596C28.5106 16.4255 27.5957 15.4043 26.383 15.234V13.9362C26.383 12.5957 25.2766 11.4894 23.9362 11.4894H12.5957C11.1915 11.4894 10.0213 12.617 10 14.0426V26.0638C10 27.4043 11.1064 28.5106 12.4468 28.5106H26.0638C27.4043 28.5106 28.5106 27.4043 28.5106 26.0638V24.8936H28.617C29.383 24.8936 30 24.2766 30 23.5106V20.1064C30 19.3404 29.383 18.7234 28.617 18.7234ZM11.4894 14.0851C11.4894 13.4681 12 12.9787 12.5957 12.9787H23.9149C24.4468 12.9787 24.8723 13.4043 24.8723 13.9362V15.2128H12.5957C12 15.2128 11.4894 14.7021 11.4894 14.0851ZM28.5106 23.4043H25C24.1277 23.4043 23.4043 22.6809 23.4043 21.8085C23.4043 20.9362 24.1277 20.2128 25 20.2128H28.5106V23.4043Z" fill="white"/>
<path d="M25.4254 22.8723C26.0129 22.8723 26.4892 22.3961 26.4892 21.8085C26.4892 21.221 26.0129 20.7447 25.4254 20.7447C24.8379 20.7447 24.3616 21.221 24.3616 21.8085C24.3616 22.3961 24.8379 22.8723 25.4254 22.8723Z" fill="white"/>
</svg>
